# First-party deterministic geometry; units: metres.
mtllib dark.mtl
o geometry
usemtl surface
v -13.075000 -9.200000 0.000000
v -13.075000 -8.800000 0.000000
v -12.925000 -8.800000 0.000000
vn 0.000000 0.000000 -1.000000
f 1//1 2//1 3//1
v -13.075000 -9.200000 0.000000
v -12.925000 -8.800000 0.000000
v -12.925000 -9.200000 0.000000
vn 0.000000 0.000000 -1.000000
f 4//2 5//2 6//2
v -13.075000 -9.200000 0.540000
v -12.925000 -9.200000 0.540000
v -12.925000 -8.800000 0.540000
vn 0.000000 0.000000 1.000000
f 7//3 8//3 9//3
v -13.075000 -9.200000 0.540000
v -12.925000 -8.800000 0.540000
v -13.075000 -8.800000 0.540000
vn 0.000000 0.000000 1.000000
f 10//4 11//4 12//4
v -13.075000 -9.200000 0.000000
v -12.925000 -9.200000 0.000000
v -12.925000 -9.200000 0.540000
vn 0.000000 -1.000000 0.000000
f 13//5 14//5 15//5
v -13.075000 -9.200000 0.000000
v -12.925000 -9.200000 0.540000
v -13.075000 -9.200000 0.540000
vn 0.000000 -1.000000 0.000000
f 16//6 17//6 18//6
v -12.925000 -9.200000 0.000000
v -12.925000 -8.800000 0.000000
v -12.925000 -8.800000 0.540000
vn 1.000000 0.000000 0.000000
f 19//7 20//7 21//7
v -12.925000 -9.200000 0.000000
v -12.925000 -8.800000 0.540000
v -12.925000 -9.200000 0.540000
vn 1.000000 0.000000 0.000000
f 22//8 23//8 24//8
v -12.925000 -8.800000 0.000000
v -13.075000 -8.800000 0.000000
v -13.075000 -8.800000 0.540000
vn 0.000000 1.000000 0.000000
f 25//9 26//9 27//9
v -12.925000 -8.800000 0.000000
v -13.075000 -8.800000 0.540000
v -12.925000 -8.800000 0.540000
vn 0.000000 1.000000 -0.000000
f 28//10 29//10 30//10
v -13.075000 -8.800000 0.000000
v -13.075000 -9.200000 0.000000
v -13.075000 -9.200000 0.540000
vn -1.000000 0.000000 0.000000
f 31//11 32//11 33//11
v -13.075000 -8.800000 0.000000
v -13.075000 -9.200000 0.540000
v -13.075000 -8.800000 0.540000
vn -1.000000 0.000000 0.000000
f 34//12 35//12 36//12
v -11.075000 -9.200000 0.000000
v -11.075000 -8.800000 0.000000
v -10.925000 -8.800000 0.000000
vn 0.000000 0.000000 -1.000000
f 37//13 38//13 39//13
v -11.075000 -9.200000 0.000000
v -10.925000 -8.800000 0.000000
v -10.925000 -9.200000 0.000000
vn 0.000000 0.000000 -1.000000
f 40//14 41//14 42//14
v -11.075000 -9.200000 0.540000
v -10.925000 -9.200000 0.540000
v -10.925000 -8.800000 0.540000
vn 0.000000 0.000000 1.000000
f 43//15 44//15 45//15
v -11.075000 -9.200000 0.540000
v -10.925000 -8.800000 0.540000
v -11.075000 -8.800000 0.540000
vn 0.000000 0.000000 1.000000
f 46//16 47//16 48//16
v -11.075000 -9.200000 0.000000
v -10.925000 -9.200000 0.000000
v -10.925000 -9.200000 0.540000
vn 0.000000 -1.000000 0.000000
f 49//17 50//17 51//17
v -11.075000 -9.200000 0.000000
v -10.925000 -9.200000 0.540000
v -11.075000 -9.200000 0.540000
vn 0.000000 -1.000000 0.000000
f 52//18 53//18 54//18
v -10.925000 -9.200000 0.000000
v -10.925000 -8.800000 0.000000
v -10.925000 -8.800000 0.540000
vn 1.000000 0.000000 0.000000
f 55//19 56//19 57//19
v -10.925000 -9.200000 0.000000
v -10.925000 -8.800000 0.540000
v -10.925000 -9.200000 0.540000
vn 1.000000 0.000000 0.000000
f 58//20 59//20 60//20
v -10.925000 -8.800000 0.000000
v -11.075000 -8.800000 0.000000
v -11.075000 -8.800000 0.540000
vn 0.000000 1.000000 0.000000
f 61//21 62//21 63//21
v -10.925000 -8.800000 0.000000
v -11.075000 -8.800000 0.540000
v -10.925000 -8.800000 0.540000
vn 0.000000 1.000000 -0.000000
f 64//22 65//22 66//22
v -11.075000 -8.800000 0.000000
v -11.075000 -9.200000 0.000000
v -11.075000 -9.200000 0.540000
vn -1.000000 0.000000 0.000000
f 67//23 68//23 69//23
v -11.075000 -8.800000 0.000000
v -11.075000 -9.200000 0.540000
v -11.075000 -8.800000 0.540000
vn -1.000000 0.000000 0.000000
f 70//24 71//24 72//24
v 9.925000 -9.200000 0.000000
v 9.925000 -8.800000 0.000000
v 10.075000 -8.800000 0.000000
vn 0.000000 0.000000 -1.000000
f 73//25 74//25 75//25
v 9.925000 -9.200000 0.000000
v 10.075000 -8.800000 0.000000
v 10.075000 -9.200000 0.000000
vn 0.000000 0.000000 -1.000000
f 76//26 77//26 78//26
v 9.925000 -9.200000 0.540000
v 10.075000 -9.200000 0.540000
v 10.075000 -8.800000 0.540000
vn 0.000000 0.000000 1.000000
f 79//27 80//27 81//27
v 9.925000 -9.200000 0.540000
v 10.075000 -8.800000 0.540000
v 9.925000 -8.800000 0.540000
vn 0.000000 0.000000 1.000000
f 82//28 83//28 84//28
v 9.925000 -9.200000 0.000000
v 10.075000 -9.200000 0.000000
v 10.075000 -9.200000 0.540000
vn 0.000000 -1.000000 0.000000
f 85//29 86//29 87//29
v 9.925000 -9.200000 0.000000
v 10.075000 -9.200000 0.540000
v 9.925000 -9.200000 0.540000
vn 0.000000 -1.000000 0.000000
f 88//30 89//30 90//30
v 10.075000 -9.200000 0.000000
v 10.075000 -8.800000 0.000000
v 10.075000 -8.800000 0.540000
vn 1.000000 0.000000 0.000000
f 91//31 92//31 93//31
v 10.075000 -9.200000 0.000000
v 10.075000 -8.800000 0.540000
v 10.075000 -9.200000 0.540000
vn 1.000000 0.000000 0.000000
f 94//32 95//32 96//32
v 10.075000 -8.800000 0.000000
v 9.925000 -8.800000 0.000000
v 9.925000 -8.800000 0.540000
vn 0.000000 1.000000 0.000000
f 97//33 98//33 99//33
v 10.075000 -8.800000 0.000000
v 9.925000 -8.800000 0.540000
v 10.075000 -8.800000 0.540000
vn 0.000000 1.000000 -0.000000
f 100//34 101//34 102//34
v 9.925000 -8.800000 0.000000
v 9.925000 -9.200000 0.000000
v 9.925000 -9.200000 0.540000
vn -1.000000 0.000000 0.000000
f 103//35 104//35 105//35
v 9.925000 -8.800000 0.000000
v 9.925000 -9.200000 0.540000
v 9.925000 -8.800000 0.540000
vn -1.000000 0.000000 0.000000
f 106//36 107//36 108//36
v 11.925000 -9.200000 0.000000
v 11.925000 -8.800000 0.000000
v 12.075000 -8.800000 0.000000
vn 0.000000 0.000000 -1.000000
f 109//37 110//37 111//37
v 11.925000 -9.200000 0.000000
v 12.075000 -8.800000 0.000000
v 12.075000 -9.200000 0.000000
vn 0.000000 0.000000 -1.000000
f 112//38 113//38 114//38
v 11.925000 -9.200000 0.540000
v 12.075000 -9.200000 0.540000
v 12.075000 -8.800000 0.540000
vn 0.000000 0.000000 1.000000
f 115//39 116//39 117//39
v 11.925000 -9.200000 0.540000
v 12.075000 -8.800000 0.540000
v 11.925000 -8.800000 0.540000
vn 0.000000 0.000000 1.000000
f 118//40 119//40 120//40
v 11.925000 -9.200000 0.000000
v 12.075000 -9.200000 0.000000
v 12.075000 -9.200000 0.540000
vn 0.000000 -1.000000 0.000000
f 121//41 122//41 123//41
v 11.925000 -9.200000 0.000000
v 12.075000 -9.200000 0.540000
v 11.925000 -9.200000 0.540000
vn 0.000000 -1.000000 0.000000
f 124//42 125//42 126//42
v 12.075000 -9.200000 0.000000
v 12.075000 -8.800000 0.000000
v 12.075000 -8.800000 0.540000
vn 1.000000 0.000000 0.000000
f 127//43 128//43 129//43
v 12.075000 -9.200000 0.000000
v 12.075000 -8.800000 0.540000
v 12.075000 -9.200000 0.540000
vn 1.000000 0.000000 0.000000
f 130//44 131//44 132//44
v 12.075000 -8.800000 0.000000
v 11.925000 -8.800000 0.000000
v 11.925000 -8.800000 0.540000
vn 0.000000 1.000000 0.000000
f 133//45 134//45 135//45
v 12.075000 -8.800000 0.000000
v 11.925000 -8.800000 0.540000
v 12.075000 -8.800000 0.540000
vn 0.000000 1.000000 -0.000000
f 136//46 137//46 138//46
v 11.925000 -8.800000 0.000000
v 11.925000 -9.200000 0.000000
v 11.925000 -9.200000 0.540000
vn -1.000000 0.000000 0.000000
f 139//47 140//47 141//47
v 11.925000 -8.800000 0.000000
v 11.925000 -9.200000 0.540000
v 11.925000 -8.800000 0.540000
vn -1.000000 0.000000 0.000000
f 142//48 143//48 144//48
