# First-party deterministic geometry; units: metres.
mtllib letter.mtl
o geometry
usemtl surface
v -0.495533 -0.635868 0.370000
v -0.530878 -0.802153 0.370000
v -0.697163 -0.766808 0.370000
vn 0.000000 0.000000 -1.000000
f 1//1 2//1 3//1
v -0.495533 -0.635868 0.370000
v -0.697163 -0.766808 0.370000
v -0.661818 -0.600523 0.370000
vn -0.000000 0.000000 -1.000000
f 4//2 5//2 6//2
v -0.495533 -0.635868 1.570000
v -0.661818 -0.600523 1.570000
v -0.697163 -0.766808 1.570000
vn 0.000000 0.000000 1.000000
f 7//3 8//3 9//3
v -0.495533 -0.635868 1.570000
v -0.697163 -0.766808 1.570000
v -0.530878 -0.802153 1.570000
vn 0.000000 0.000000 1.000000
f 10//4 11//4 12//4
v -0.495533 -0.635868 0.370000
v -0.661818 -0.600523 0.370000
v -0.661818 -0.600523 1.570000
vn 0.207912 0.978148 0.000000
f 13//5 14//5 15//5
v -0.495533 -0.635868 0.370000
v -0.661818 -0.600523 1.570000
v -0.495533 -0.635868 1.570000
vn 0.207912 0.978148 -0.000000
f 16//6 17//6 18//6
v -0.661818 -0.600523 0.370000
v -0.697163 -0.766808 0.370000
v -0.697163 -0.766808 1.570000
vn -0.978148 0.207912 0.000000
f 19//7 20//7 21//7
v -0.661818 -0.600523 0.370000
v -0.697163 -0.766808 1.570000
v -0.661818 -0.600523 1.570000
vn -0.978148 0.207912 0.000000
f 22//8 23//8 24//8
v -0.697163 -0.766808 0.370000
v -0.530878 -0.802153 0.370000
v -0.530878 -0.802153 1.570000
vn -0.207912 -0.978148 0.000000
f 25//9 26//9 27//9
v -0.697163 -0.766808 0.370000
v -0.530878 -0.802153 1.570000
v -0.697163 -0.766808 1.570000
vn -0.207912 -0.978148 0.000000
f 28//10 29//10 30//10
v -0.530878 -0.802153 0.370000
v -0.495533 -0.635868 0.370000
v -0.495533 -0.635868 1.570000
vn 0.978148 -0.207912 0.000000
f 31//11 32//11 33//11
v -0.530878 -0.802153 0.370000
v -0.495533 -0.635868 1.570000
v -0.530878 -0.802153 1.570000
vn 0.978148 -0.207912 0.000000
f 34//12 35//12 36//12
v -0.578676 -0.618196 1.655000
v -0.578676 -0.618196 1.485000
v -0.614021 -0.784481 1.485000
vn -0.978148 0.207912 0.000000
f 37//13 38//13 39//13
v -0.578676 -0.618196 1.655000
v -0.614021 -0.784481 1.485000
v -0.614021 -0.784481 1.655000
vn -0.978148 0.207912 0.000000
f 40//14 41//14 42//14
v 0.093801 -0.761135 1.655000
v 0.058456 -0.927420 1.655000
v 0.058456 -0.927420 1.485000
vn 0.978148 -0.207912 0.000000
f 43//15 44//15 45//15
v 0.093801 -0.761135 1.655000
v 0.058456 -0.927420 1.485000
v 0.093801 -0.761135 1.485000
vn 0.978148 -0.207912 0.000000
f 46//16 47//16 48//16
v -0.578676 -0.618196 1.655000
v -0.614021 -0.784481 1.655000
v 0.058456 -0.927420 1.655000
vn 0.000000 0.000000 1.000000
f 49//17 50//17 51//17
v -0.578676 -0.618196 1.655000
v 0.058456 -0.927420 1.655000
v 0.093801 -0.761135 1.655000
vn 0.000000 0.000000 1.000000
f 52//18 53//18 54//18
v -0.614021 -0.784481 1.655000
v -0.614021 -0.784481 1.485000
v 0.058456 -0.927420 1.485000
vn -0.207912 -0.978148 -0.000000
f 55//19 56//19 57//19
v -0.614021 -0.784481 1.655000
v 0.058456 -0.927420 1.485000
v 0.058456 -0.927420 1.655000
vn -0.207912 -0.978148 0.000000
f 58//20 59//20 60//20
v -0.614021 -0.784481 1.485000
v -0.578676 -0.618196 1.485000
v 0.093801 -0.761135 1.485000
vn 0.000000 0.000000 -1.000000
f 61//21 62//21 63//21
v -0.614021 -0.784481 1.485000
v 0.093801 -0.761135 1.485000
v 0.058456 -0.927420 1.485000
vn 0.000000 0.000000 -1.000000
f 64//22 65//22 66//22
v -0.578676 -0.618196 1.485000
v -0.578676 -0.618196 1.655000
v 0.093801 -0.761135 1.655000
vn 0.207912 0.978148 -0.000000
f 67//23 68//23 69//23
v -0.578676 -0.618196 1.485000
v 0.093801 -0.761135 1.655000
v 0.093801 -0.761135 1.485000
vn 0.207912 0.978148 0.000000
f 70//24 71//24 72//24
v 0.155600 -0.774271 1.626862
v 0.032002 -0.747999 1.513138
v -0.003343 -0.914284 1.513138
vn -0.654346 0.139086 0.743294
f 73//25 74//25 75//25
v 0.155600 -0.774271 1.626862
v -0.003343 -0.914284 1.513138
v 0.120255 -0.940556 1.626862
vn -0.654346 0.139086 0.743294
f 76//26 77//26 78//26
v 0.375684 -0.821051 1.376862
v 0.340339 -0.987336 1.376862
v 0.216740 -0.961064 1.263138
vn 0.654346 -0.139086 -0.743294
f 79//27 80//27 81//27
v 0.375684 -0.821051 1.376862
v 0.216740 -0.961064 1.263138
v 0.252085 -0.794779 1.263138
vn 0.654346 -0.139086 -0.743294
f 82//28 83//28 84//28
v 0.155600 -0.774271 1.626862
v 0.120255 -0.940556 1.626862
v 0.340339 -0.987336 1.376862
vn 0.727051 -0.154540 0.668965
f 85//29 86//29 87//29
v 0.155600 -0.774271 1.626862
v 0.340339 -0.987336 1.376862
v 0.375684 -0.821051 1.376862
vn 0.727051 -0.154540 0.668965
f 88//30 89//30 90//30
v 0.120255 -0.940556 1.626862
v -0.003343 -0.914284 1.513138
v 0.216740 -0.961064 1.263138
vn -0.207912 -0.978148 -0.000000
f 91//31 92//31 93//31
v 0.120255 -0.940556 1.626862
v 0.216740 -0.961064 1.263138
v 0.340339 -0.987336 1.376862
vn -0.207912 -0.978148 -0.000000
f 94//32 95//32 96//32
v -0.003343 -0.914284 1.513138
v 0.032002 -0.747999 1.513138
v 0.252085 -0.794779 1.263138
vn -0.727051 0.154540 -0.668965
f 97//33 98//33 99//33
v -0.003343 -0.914284 1.513138
v 0.252085 -0.794779 1.263138
v 0.216740 -0.961064 1.263138
vn -0.727051 0.154540 -0.668965
f 100//34 101//34 102//34
v 0.032002 -0.747999 1.513138
v 0.155600 -0.774271 1.626862
v 0.375684 -0.821051 1.376862
vn 0.207912 0.978148 0.000000
f 103//35 104//35 105//35
v 0.032002 -0.747999 1.513138
v 0.375684 -0.821051 1.376862
v 0.252085 -0.794779 1.263138
vn 0.207912 0.978148 0.000000
f 106//36 107//36 108//36
v 0.213064 -0.960283 1.372386
v 0.344014 -0.988117 1.267614
v 0.379359 -0.821832 1.267614
vn 0.602840 -0.128138 0.787505
f 109//37 110//37 111//37
v 0.213064 -0.960283 1.372386
v 0.379359 -0.821832 1.267614
v 0.248409 -0.793998 1.372386
vn 0.602840 -0.128138 0.787505
f 112//38 113//38 114//38
v -0.007019 -0.913503 1.084886
v 0.028326 -0.747218 1.084886
v 0.159276 -0.775052 0.980114
vn -0.602840 0.128138 -0.787505
f 115//39 116//39 117//39
v -0.007019 -0.913503 1.084886
v 0.159276 -0.775052 0.980114
v 0.123931 -0.941337 0.980114
vn -0.602840 0.128138 -0.787505
f 118//40 119//40 120//40
v 0.213064 -0.960283 1.372386
v 0.248409 -0.793998 1.372386
v 0.028326 -0.747218 1.084886
vn -0.770296 0.163731 0.616308
f 121//41 122//41 123//41
v 0.213064 -0.960283 1.372386
v 0.028326 -0.747218 1.084886
v -0.007019 -0.913503 1.084886
vn -0.770296 0.163731 0.616308
f 124//42 125//42 126//42
v 0.248409 -0.793998 1.372386
v 0.379359 -0.821832 1.267614
v 0.159276 -0.775052 0.980114
vn 0.207912 0.978148 0.000000
f 127//43 128//43 129//43
v 0.248409 -0.793998 1.372386
v 0.159276 -0.775052 0.980114
v 0.028326 -0.747218 1.084886
vn 0.207912 0.978148 0.000000
f 130//44 131//44 132//44
v 0.379359 -0.821832 1.267614
v 0.344014 -0.988117 1.267614
v 0.123931 -0.941337 0.980114
vn 0.770296 -0.163731 -0.616308
f 133//45 134//45 135//45
v 0.379359 -0.821832 1.267614
v 0.123931 -0.941337 0.980114
v 0.159276 -0.775052 0.980114
vn 0.770296 -0.163731 -0.616308
f 136//46 137//46 138//46
v 0.344014 -0.988117 1.267614
v 0.213064 -0.960283 1.372386
v -0.007019 -0.913503 1.084886
vn -0.207912 -0.978148 -0.000000
f 139//47 140//47 141//47
v 0.344014 -0.988117 1.267614
v -0.007019 -0.913503 1.084886
v 0.123931 -0.941337 0.980114
vn -0.207912 -0.978148 -0.000000
f 142//48 143//48 144//48
v 0.058456 -0.927420 1.117500
v 0.058456 -0.927420 0.947500
v 0.093801 -0.761135 0.947500
vn 0.978148 -0.207912 0.000000
f 145//49 146//49 147//49
v 0.058456 -0.927420 1.117500
v 0.093801 -0.761135 0.947500
v 0.093801 -0.761135 1.117500
vn 0.978148 -0.207912 0.000000
f 148//50 149//50 150//50
v -0.614021 -0.784481 1.117500
v -0.578676 -0.618196 1.117500
v -0.578676 -0.618196 0.947500
vn -0.978148 0.207912 0.000000
f 151//51 152//51 153//51
v -0.614021 -0.784481 1.117500
v -0.578676 -0.618196 0.947500
v -0.614021 -0.784481 0.947500
vn -0.978148 0.207912 0.000000
f 154//52 155//52 156//52
v 0.058456 -0.927420 1.117500
v 0.093801 -0.761135 1.117500
v -0.578676 -0.618196 1.117500
vn 0.000000 -0.000000 1.000000
f 157//53 158//53 159//53
v 0.058456 -0.927420 1.117500
v -0.578676 -0.618196 1.117500
v -0.614021 -0.784481 1.117500
vn 0.000000 0.000000 1.000000
f 160//54 161//54 162//54
v 0.093801 -0.761135 1.117500
v 0.093801 -0.761135 0.947500
v -0.578676 -0.618196 0.947500
vn 0.207912 0.978148 0.000000
f 163//55 164//55 165//55
v 0.093801 -0.761135 1.117500
v -0.578676 -0.618196 0.947500
v -0.578676 -0.618196 1.117500
vn 0.207912 0.978148 0.000000
f 166//56 167//56 168//56
v 0.093801 -0.761135 0.947500
v 0.058456 -0.927420 0.947500
v -0.614021 -0.784481 0.947500
vn 0.000000 0.000000 -1.000000
f 169//57 170//57 171//57
v 0.093801 -0.761135 0.947500
v -0.614021 -0.784481 0.947500
v -0.578676 -0.618196 0.947500
vn -0.000000 0.000000 -1.000000
f 172//58 173//58 174//58
v 0.058456 -0.927420 0.947500
v 0.058456 -0.927420 1.117500
v -0.614021 -0.784481 1.117500
vn -0.207912 -0.978148 0.000000
f 175//59 176//59 177//59
v 0.058456 -0.927420 0.947500
v -0.614021 -0.784481 1.117500
v -0.614021 -0.784481 0.947500
vn -0.207912 -0.978148 0.000000
f 178//60 179//60 180//60
v 0.802153 -0.530878 0.370000
v 0.766808 -0.697163 0.370000
v 0.600523 -0.661818 0.370000
vn 0.000000 0.000000 -1.000000
f 181//61 182//61 183//61
v 0.802153 -0.530878 0.370000
v 0.600523 -0.661818 0.370000
v 0.635868 -0.495533 0.370000
vn -0.000000 0.000000 -1.000000
f 184//62 185//62 186//62
v 0.802153 -0.530878 1.570000
v 0.635868 -0.495533 1.570000
v 0.600523 -0.661818 1.570000
vn 0.000000 0.000000 1.000000
f 187//63 188//63 189//63
v 0.802153 -0.530878 1.570000
v 0.600523 -0.661818 1.570000
v 0.766808 -0.697163 1.570000
vn 0.000000 0.000000 1.000000
f 190//64 191//64 192//64
v 0.802153 -0.530878 0.370000
v 0.635868 -0.495533 0.370000
v 0.635868 -0.495533 1.570000
vn 0.207912 0.978148 0.000000
f 193//65 194//65 195//65
v 0.802153 -0.530878 0.370000
v 0.635868 -0.495533 1.570000
v 0.802153 -0.530878 1.570000
vn 0.207912 0.978148 -0.000000
f 196//66 197//66 198//66
v 0.635868 -0.495533 0.370000
v 0.600523 -0.661818 0.370000
v 0.600523 -0.661818 1.570000
vn -0.978148 0.207912 0.000000
f 199//67 200//67 201//67
v 0.635868 -0.495533 0.370000
v 0.600523 -0.661818 1.570000
v 0.635868 -0.495533 1.570000
vn -0.978148 0.207912 0.000000
f 202//68 203//68 204//68
v 0.600523 -0.661818 0.370000
v 0.766808 -0.697163 0.370000
v 0.766808 -0.697163 1.570000
vn -0.207912 -0.978148 0.000000
f 205//69 206//69 207//69
v 0.600523 -0.661818 0.370000
v 0.766808 -0.697163 1.570000
v 0.600523 -0.661818 1.570000
vn -0.207912 -0.978148 0.000000
f 208//70 209//70 210//70
v 0.766808 -0.697163 0.370000
v 0.802153 -0.530878 0.370000
v 0.802153 -0.530878 1.570000
vn 0.978148 -0.207912 0.000000
f 211//71 212//71 213//71
v 0.766808 -0.697163 0.370000
v 0.802153 -0.530878 1.570000
v 0.766808 -0.697163 1.570000
vn 0.978148 -0.207912 0.000000
f 214//72 215//72 216//72
v 0.618196 -0.578676 1.655000
v 0.618196 -0.578676 1.485000
v 0.784481 -0.614021 1.485000
vn -0.207912 -0.978148 -0.000000
f 217//73 218//73 219//73
v 0.618196 -0.578676 1.655000
v 0.784481 -0.614021 1.485000
v 0.784481 -0.614021 1.655000
vn -0.207912 -0.978148 0.000000
f 220//74 221//74 222//74
v 0.761135 0.093801 1.655000
v 0.927420 0.058456 1.655000
v 0.927420 0.058456 1.485000
vn 0.207912 0.978148 0.000000
f 223//75 224//75 225//75
v 0.761135 0.093801 1.655000
v 0.927420 0.058456 1.485000
v 0.761135 0.093801 1.485000
vn 0.207912 0.978148 0.000000
f 226//76 227//76 228//76
v 0.618196 -0.578676 1.655000
v 0.784481 -0.614021 1.655000
v 0.927420 0.058456 1.655000
vn -0.000000 0.000000 1.000000
f 229//77 230//77 231//77
v 0.618196 -0.578676 1.655000
v 0.927420 0.058456 1.655000
v 0.761135 0.093801 1.655000
vn 0.000000 0.000000 1.000000
f 232//78 233//78 234//78
v 0.784481 -0.614021 1.655000
v 0.784481 -0.614021 1.485000
v 0.927420 0.058456 1.485000
vn 0.978148 -0.207912 0.000000
f 235//79 236//79 237//79
v 0.784481 -0.614021 1.655000
v 0.927420 0.058456 1.485000
v 0.927420 0.058456 1.655000
vn 0.978148 -0.207912 0.000000
f 238//80 239//80 240//80
v 0.784481 -0.614021 1.485000
v 0.618196 -0.578676 1.485000
v 0.761135 0.093801 1.485000
vn 0.000000 0.000000 -1.000000
f 241//81 242//81 243//81
v 0.784481 -0.614021 1.485000
v 0.761135 0.093801 1.485000
v 0.927420 0.058456 1.485000
vn 0.000000 0.000000 -1.000000
f 244//82 245//82 246//82
v 0.618196 -0.578676 1.485000
v 0.618196 -0.578676 1.655000
v 0.761135 0.093801 1.655000
vn -0.978148 0.207912 0.000000
f 247//83 248//83 249//83
v 0.618196 -0.578676 1.485000
v 0.761135 0.093801 1.655000
v 0.761135 0.093801 1.485000
vn -0.978148 0.207912 0.000000
f 250//84 251//84 252//84
v 0.774271 0.155600 1.626862
v 0.747999 0.032002 1.513138
v 0.914284 -0.003343 1.513138
vn -0.139086 -0.654346 0.743294
f 253//85 254//85 255//85
v 0.774271 0.155600 1.626862
v 0.914284 -0.003343 1.513138
v 0.940556 0.120255 1.626862
vn -0.139086 -0.654346 0.743294
f 256//86 257//86 258//86
v 0.821051 0.375684 1.376862
v 0.987336 0.340339 1.376862
v 0.961064 0.216740 1.263138
vn 0.139086 0.654346 -0.743294
f 259//87 260//87 261//87
v 0.821051 0.375684 1.376862
v 0.961064 0.216740 1.263138
v 0.794779 0.252085 1.263138
vn 0.139086 0.654346 -0.743294
f 262//88 263//88 264//88
v 0.774271 0.155600 1.626862
v 0.940556 0.120255 1.626862
v 0.987336 0.340339 1.376862
vn 0.154540 0.727051 0.668965
f 265//89 266//89 267//89
v 0.774271 0.155600 1.626862
v 0.987336 0.340339 1.376862
v 0.821051 0.375684 1.376862
vn 0.154540 0.727051 0.668965
f 268//90 269//90 270//90
v 0.940556 0.120255 1.626862
v 0.914284 -0.003343 1.513138
v 0.961064 0.216740 1.263138
vn 0.978148 -0.207912 -0.000000
f 271//91 272//91 273//91
v 0.940556 0.120255 1.626862
v 0.961064 0.216740 1.263138
v 0.987336 0.340339 1.376862
vn 0.978148 -0.207912 -0.000000
f 274//92 275//92 276//92
v 0.914284 -0.003343 1.513138
v 0.747999 0.032002 1.513138
v 0.794779 0.252085 1.263138
vn -0.154540 -0.727051 -0.668965
f 277//93 278//93 279//93
v 0.914284 -0.003343 1.513138
v 0.794779 0.252085 1.263138
v 0.961064 0.216740 1.263138
vn -0.154540 -0.727051 -0.668965
f 280//94 281//94 282//94
v 0.747999 0.032002 1.513138
v 0.774271 0.155600 1.626862
v 0.821051 0.375684 1.376862
vn -0.978148 0.207912 0.000000
f 283//95 284//95 285//95
v 0.747999 0.032002 1.513138
v 0.821051 0.375684 1.376862
v 0.794779 0.252085 1.263138
vn -0.978148 0.207912 0.000000
f 286//96 287//96 288//96
v 0.960283 0.213064 1.372386
v 0.988117 0.344014 1.267614
v 0.821832 0.379359 1.267614
vn 0.128138 0.602840 0.787505
f 289//97 290//97 291//97
v 0.960283 0.213064 1.372386
v 0.821832 0.379359 1.267614
v 0.793998 0.248409 1.372386
vn 0.128138 0.602840 0.787505
f 292//98 293//98 294//98
v 0.913503 -0.007019 1.084886
v 0.747218 0.028326 1.084886
v 0.775052 0.159276 0.980114
vn -0.128138 -0.602840 -0.787505
f 295//99 296//99 297//99
v 0.913503 -0.007019 1.084886
v 0.775052 0.159276 0.980114
v 0.941337 0.123931 0.980114
vn -0.128138 -0.602840 -0.787505
f 298//100 299//100 300//100
v 0.960283 0.213064 1.372386
v 0.793998 0.248409 1.372386
v 0.747218 0.028326 1.084886
vn -0.163731 -0.770296 0.616308
f 301//101 302//101 303//101
v 0.960283 0.213064 1.372386
v 0.747218 0.028326 1.084886
v 0.913503 -0.007019 1.084886
vn -0.163731 -0.770296 0.616308
f 304//102 305//102 306//102
v 0.793998 0.248409 1.372386
v 0.821832 0.379359 1.267614
v 0.775052 0.159276 0.980114
vn -0.978148 0.207912 0.000000
f 307//103 308//103 309//103
v 0.793998 0.248409 1.372386
v 0.775052 0.159276 0.980114
v 0.747218 0.028326 1.084886
vn -0.978148 0.207912 0.000000
f 310//104 311//104 312//104
v 0.821832 0.379359 1.267614
v 0.988117 0.344014 1.267614
v 0.941337 0.123931 0.980114
vn 0.163731 0.770296 -0.616308
f 313//105 314//105 315//105
v 0.821832 0.379359 1.267614
v 0.941337 0.123931 0.980114
v 0.775052 0.159276 0.980114
vn 0.163731 0.770296 -0.616308
f 316//106 317//106 318//106
v 0.988117 0.344014 1.267614
v 0.960283 0.213064 1.372386
v 0.913503 -0.007019 1.084886
vn 0.978148 -0.207912 -0.000000
f 319//107 320//107 321//107
v 0.988117 0.344014 1.267614
v 0.913503 -0.007019 1.084886
v 0.941337 0.123931 0.980114
vn 0.978148 -0.207912 -0.000000
f 322//108 323//108 324//108
v 0.927420 0.058456 1.117500
v 0.927420 0.058456 0.947500
v 0.761135 0.093801 0.947500
vn 0.207912 0.978148 0.000000
f 325//109 326//109 327//109
v 0.927420 0.058456 1.117500
v 0.761135 0.093801 0.947500
v 0.761135 0.093801 1.117500
vn 0.207912 0.978148 0.000000
f 328//110 329//110 330//110
v 0.784481 -0.614021 1.117500
v 0.618196 -0.578676 1.117500
v 0.618196 -0.578676 0.947500
vn -0.207912 -0.978148 0.000000
f 331//111 332//111 333//111
v 0.784481 -0.614021 1.117500
v 0.618196 -0.578676 0.947500
v 0.784481 -0.614021 0.947500
vn -0.207912 -0.978148 -0.000000
f 334//112 335//112 336//112
v 0.927420 0.058456 1.117500
v 0.761135 0.093801 1.117500
v 0.618196 -0.578676 1.117500
vn 0.000000 0.000000 1.000000
f 337//113 338//113 339//113
v 0.927420 0.058456 1.117500
v 0.618196 -0.578676 1.117500
v 0.784481 -0.614021 1.117500
vn 0.000000 0.000000 1.000000
f 340//114 341//114 342//114
v 0.761135 0.093801 1.117500
v 0.761135 0.093801 0.947500
v 0.618196 -0.578676 0.947500
vn -0.978148 0.207912 0.000000
f 343//115 344//115 345//115
v 0.761135 0.093801 1.117500
v 0.618196 -0.578676 0.947500
v 0.618196 -0.578676 1.117500
vn -0.978148 0.207912 0.000000
f 346//116 347//116 348//116
v 0.761135 0.093801 0.947500
v 0.927420 0.058456 0.947500
v 0.784481 -0.614021 0.947500
vn 0.000000 0.000000 -1.000000
f 349//117 350//117 351//117
v 0.761135 0.093801 0.947500
v 0.784481 -0.614021 0.947500
v 0.618196 -0.578676 0.947500
vn 0.000000 -0.000000 -1.000000
f 352//118 353//118 354//118
v 0.927420 0.058456 0.947500
v 0.927420 0.058456 1.117500
v 0.784481 -0.614021 1.117500
vn 0.978148 -0.207912 0.000000
f 355//119 356//119 357//119
v 0.927420 0.058456 0.947500
v 0.784481 -0.614021 1.117500
v 0.784481 -0.614021 0.947500
vn 0.978148 -0.207912 0.000000
f 358//120 359//120 360//120
v 0.522008 -0.804039 3.248921
v 0.583765 -0.790912 3.091079
v 0.548420 -0.624627 3.091079
vn 0.908187 0.193041 0.371391
f 361//121 362//121 363//121
v 0.522008 -0.804039 3.248921
v 0.548420 -0.624627 3.091079
v 0.486663 -0.637754 3.248921
vn 0.908187 0.193041 0.371391
f 364//122 365//122 366//122
v -0.028200 -0.920989 3.023921
v -0.063545 -0.754704 3.023921
v -0.001788 -0.741577 2.866079
vn -0.908187 -0.193041 -0.371391
f 367//123 368//123 369//123
v -0.028200 -0.920989 3.023921
v -0.001788 -0.741577 2.866079
v 0.033557 -0.907862 2.866079
vn -0.908187 -0.193041 -0.371391
f 370//124 371//124 372//124
v 0.522008 -0.804039 3.248921
v 0.486663 -0.637754 3.248921
v -0.063545 -0.754704 3.023921
vn -0.363275 -0.077216 0.928477
f 373//125 374//125 375//125
v 0.522008 -0.804039 3.248921
v -0.063545 -0.754704 3.023921
v -0.028200 -0.920989 3.023921
vn -0.363275 -0.077216 0.928477
f 376//126 377//126 378//126
v 0.486663 -0.637754 3.248921
v 0.548420 -0.624627 3.091079
v -0.001788 -0.741577 2.866079
vn -0.207912 0.978148 0.000000
f 379//127 380//127 381//127
v 0.486663 -0.637754 3.248921
v -0.001788 -0.741577 2.866079
v -0.063545 -0.754704 3.023921
vn -0.207912 0.978148 -0.000000
f 382//128 383//128 384//128
v 0.548420 -0.624627 3.091079
v 0.583765 -0.790912 3.091079
v 0.033557 -0.907862 2.866079
vn 0.363275 0.077216 -0.928477
f 385//129 386//129 387//129
v 0.548420 -0.624627 3.091079
v 0.033557 -0.907862 2.866079
v -0.001788 -0.741577 2.866079
vn 0.363275 0.077216 -0.928477
f 388//130 389//130 390//130
v 0.583765 -0.790912 3.091079
v 0.522008 -0.804039 3.248921
v -0.028200 -0.920989 3.023921
vn 0.207912 -0.978148 -0.000000
f 391//131 392//131 393//131
v 0.583765 -0.790912 3.091079
v -0.028200 -0.920989 3.023921
v 0.033557 -0.907862 2.866079
vn 0.207912 -0.978148 0.000000
f 394//132 395//132 396//132
v -0.071687 -0.930232 2.983013
v 0.077043 -0.898619 2.906987
v 0.041698 -0.732334 2.906987
vn 0.437441 0.092981 0.894427
f 397//133 398//133 399//133
v -0.071687 -0.930232 2.983013
v 0.041698 -0.732334 2.906987
v -0.107032 -0.763947 2.983013
vn 0.437441 0.092981 0.894427
f 400//134 401//134 402//134
v -0.328450 -0.984809 2.458013
v -0.363795 -0.818524 2.458013
v -0.215065 -0.786911 2.381987
vn -0.437441 -0.092981 -0.894427
f 403//135 404//135 405//135
v -0.328450 -0.984809 2.458013
v -0.215065 -0.786911 2.381987
v -0.179721 -0.953196 2.381987
vn -0.437441 -0.092981 -0.894427
f 406//136 407//136 408//136
v -0.071687 -0.930232 2.983013
v -0.107032 -0.763947 2.983013
v -0.363795 -0.818524 2.458013
vn -0.874882 -0.185962 0.447214
f 409//137 410//137 411//137
v -0.071687 -0.930232 2.983013
v -0.363795 -0.818524 2.458013
v -0.328450 -0.984809 2.458013
vn -0.874882 -0.185962 0.447214
f 412//138 413//138 414//138
v -0.107032 -0.763947 2.983013
v 0.041698 -0.732334 2.906987
v -0.215065 -0.786911 2.381987
vn -0.207912 0.978148 0.000000
f 415//139 416//139 417//139
v -0.107032 -0.763947 2.983013
v -0.215065 -0.786911 2.381987
v -0.363795 -0.818524 2.458013
vn -0.207912 0.978148 0.000000
f 418//140 419//140 420//140
v 0.041698 -0.732334 2.906987
v 0.077043 -0.898619 2.906987
v -0.179721 -0.953196 2.381987
vn 0.874882 0.185962 -0.447214
f 421//141 422//141 423//141
v 0.041698 -0.732334 2.906987
v -0.179721 -0.953196 2.381987
v -0.215065 -0.786911 2.381987
vn 0.874882 0.185962 -0.447214
f 424//142 425//142 426//142
v 0.077043 -0.898619 2.906987
v -0.071687 -0.930232 2.983013
v -0.328450 -0.984809 2.458013
vn 0.207912 -0.978148 -0.000000
f 427//143 428//143 429//143
v 0.077043 -0.898619 2.906987
v -0.328450 -0.984809 2.458013
v -0.179721 -0.953196 2.381987
vn 0.207912 -0.978148 -0.000000
f 430//144 431//144 432//144
v -0.371058 -0.820068 2.403848
v -0.335713 -0.986353 2.403848
v -0.172458 -0.951652 2.436152
vn -0.185869 -0.039508 0.981780
f 433//145 434//145 435//145
v -0.371058 -0.820068 2.403848
v -0.172458 -0.951652 2.436152
v -0.207803 -0.785367 2.436152
vn -0.185869 -0.039508 0.981780
f 436//146 437//146 438//146
v -0.297697 -0.804474 2.016348
v -0.134442 -0.769773 2.048652
v -0.099097 -0.936058 2.048652
vn 0.185869 0.039508 -0.981780
f 439//147 440//147 441//147
v -0.297697 -0.804474 2.016348
v -0.099097 -0.936058 2.048652
v -0.262352 -0.970759 2.016348
vn 0.185869 0.039508 -0.981780
f 442//148 443//148 444//148
v -0.371058 -0.820068 2.403848
v -0.207803 -0.785367 2.436152
v -0.134442 -0.769773 2.048652
vn -0.207912 0.978148 -0.000000
f 445//149 446//149 447//149
v -0.371058 -0.820068 2.403848
v -0.134442 -0.769773 2.048652
v -0.297697 -0.804474 2.016348
vn -0.207912 0.978148 -0.000000
f 448//150 449//150 450//150
v -0.207803 -0.785367 2.436152
v -0.172458 -0.951652 2.436152
v -0.099097 -0.936058 2.048652
vn 0.960326 0.204124 0.190022
f 451//151 452//151 453//151
v -0.207803 -0.785367 2.436152
v -0.099097 -0.936058 2.048652
v -0.134442 -0.769773 2.048652
vn 0.960326 0.204124 0.190022
f 454//152 455//152 456//152
v -0.172458 -0.951652 2.436152
v -0.335713 -0.986353 2.403848
v -0.262352 -0.970759 2.016348
vn 0.207912 -0.978148 0.000000
f 457//153 458//153 459//153
v -0.172458 -0.951652 2.436152
v -0.262352 -0.970759 2.016348
v -0.099097 -0.936058 2.048652
vn 0.207912 -0.978148 0.000000
f 460//154 461//154 462//154
v -0.335713 -0.986353 2.403848
v -0.371058 -0.820068 2.403848
v -0.297697 -0.804474 2.016348
vn -0.960326 -0.204124 -0.190022
f 463//155 464//155 465//155
v -0.335713 -0.986353 2.403848
v -0.297697 -0.804474 2.016348
v -0.262352 -0.970759 2.016348
vn -0.960326 -0.204124 -0.190022
f 466//156 467//156 468//156
v -0.208112 -0.785432 2.117110
v -0.224027 -0.788815 1.947890
v -0.188682 -0.955100 1.947890
vn -0.973657 -0.206957 0.095712
f 469//157 470//157 471//157
v -0.208112 -0.785432 2.117110
v -0.188682 -0.955100 1.947890
v -0.172767 -0.951718 2.117110
vn -0.973657 -0.206957 0.095712
f 472//158 473//158 474//158
v 0.427684 -0.650290 2.054610
v 0.463029 -0.816575 2.054610
v 0.447114 -0.819958 1.885390
vn 0.973657 0.206957 -0.095712
f 475//159 476//159 477//159
v 0.427684 -0.650290 2.054610
v 0.447114 -0.819958 1.885390
v 0.411769 -0.653673 1.885390
vn 0.973657 0.206957 -0.095712
f 478//160 479//160 480//160
v -0.208112 -0.785432 2.117110
v -0.172767 -0.951718 2.117110
v 0.463029 -0.816575 2.054610
vn 0.093621 0.019900 0.995409
f 481//161 482//161 483//161
v -0.208112 -0.785432 2.117110
v 0.463029 -0.816575 2.054610
v 0.427684 -0.650290 2.054610
vn 0.093621 0.019900 0.995409
f 484//162 485//162 486//162
v -0.172767 -0.951718 2.117110
v -0.188682 -0.955100 1.947890
v 0.447114 -0.819958 1.885390
vn 0.207912 -0.978148 0.000000
f 487//163 488//163 489//163
v -0.172767 -0.951718 2.117110
v 0.447114 -0.819958 1.885390
v 0.463029 -0.816575 2.054610
vn 0.207912 -0.978148 0.000000
f 490//164 491//164 492//164
v -0.188682 -0.955100 1.947890
v -0.224027 -0.788815 1.947890
v 0.411769 -0.653673 1.885390
vn -0.093621 -0.019900 -0.995409
f 493//165 494//165 495//165
v -0.188682 -0.955100 1.947890
v 0.411769 -0.653673 1.885390
v 0.447114 -0.819958 1.885390
vn -0.093621 -0.019900 -0.995409
f 496//166 497//166 498//166
v -0.224027 -0.788815 1.947890
v -0.208112 -0.785432 2.117110
v 0.427684 -0.650290 2.054610
vn -0.207912 0.978148 -0.000000
f 499//167 500//167 501//167
v -0.224027 -0.788815 1.947890
v 0.427684 -0.650290 2.054610
v 0.411769 -0.653673 1.885390
vn -0.207912 0.978148 -0.000000
f 502//168 503//168 504//168
v 0.350548 -0.666686 2.017150
v 0.488905 -0.637277 1.922850
v 0.524250 -0.803562 1.922850
vn -0.542579 -0.115329 -0.832050
f 505//169 506//169 507//169
v 0.350548 -0.666686 2.017150
v 0.524250 -0.803562 1.922850
v 0.385893 -0.832971 2.017150
vn -0.542579 -0.115329 -0.832050
f 508//170 509//170 510//170
v 0.546177 -0.625103 2.317150
v 0.581522 -0.791388 2.317150
v 0.719880 -0.761980 2.222850
vn 0.542579 0.115329 0.832050
f 511//171 512//171 513//171
v 0.546177 -0.625103 2.317150
v 0.719880 -0.761980 2.222850
v 0.684535 -0.595695 2.222850
vn 0.542579 0.115329 0.832050
f 514//172 515//172 516//172
v 0.350548 -0.666686 2.017150
v 0.385893 -0.832971 2.017150
v 0.581522 -0.791388 2.317150
vn -0.813868 -0.172993 0.554700
f 517//173 518//173 519//173
v 0.350548 -0.666686 2.017150
v 0.581522 -0.791388 2.317150
v 0.546177 -0.625103 2.317150
vn -0.813868 -0.172993 0.554700
f 520//174 521//174 522//174
v 0.385893 -0.832971 2.017150
v 0.524250 -0.803562 1.922850
v 0.719880 -0.761980 2.222850
vn 0.207912 -0.978148 -0.000000
f 523//175 524//175 525//175
v 0.385893 -0.832971 2.017150
v 0.719880 -0.761980 2.222850
v 0.581522 -0.791388 2.317150
vn 0.207912 -0.978148 0.000000
f 526//176 527//176 528//176
v 0.524250 -0.803562 1.922850
v 0.488905 -0.637277 1.922850
v 0.684535 -0.595695 2.222850
vn 0.813868 0.172993 -0.554700
f 529//177 530//177 531//177
v 0.524250 -0.803562 1.922850
v 0.684535 -0.595695 2.222850
v 0.719880 -0.761980 2.222850
vn 0.813868 0.172993 -0.554700
f 532//178 533//178 534//178
v 0.488905 -0.637277 1.922850
v 0.350548 -0.666686 2.017150
v 0.546177 -0.625103 2.317150
vn -0.207912 0.978148 -0.000000
f 535//179 536//179 537//179
v 0.488905 -0.637277 1.922850
v 0.546177 -0.625103 2.317150
v 0.684535 -0.595695 2.222850
vn -0.207912 0.978148 -0.000000
f 538//180 539//180 540//180
v 0.725066 -0.760877 2.308013
v 0.576336 -0.792491 2.231987
v 0.540991 -0.626206 2.231987
vn 0.437441 0.092981 -0.894427
f 541//181 542//181 543//181
v 0.725066 -0.760877 2.308013
v 0.540991 -0.626206 2.231987
v 0.689721 -0.594592 2.308013
vn 0.437441 0.092981 -0.894427
f 544//182 545//182 546//182
v 0.566117 -0.794663 2.633013
v 0.530772 -0.628378 2.633013
v 0.382042 -0.659991 2.556987
vn -0.437441 -0.092981 0.894427
f 547//183 548//183 549//183
v 0.566117 -0.794663 2.633013
v 0.382042 -0.659991 2.556987
v 0.417387 -0.826276 2.556987
vn -0.437441 -0.092981 0.894427
f 550//184 551//184 552//184
v 0.725066 -0.760877 2.308013
v 0.689721 -0.594592 2.308013
v 0.530772 -0.628378 2.633013
vn 0.874882 0.185962 0.447214
f 553//185 554//185 555//185
v 0.725066 -0.760877 2.308013
v 0.530772 -0.628378 2.633013
v 0.566117 -0.794663 2.633013
vn 0.874882 0.185962 0.447214
f 556//186 557//186 558//186
v 0.689721 -0.594592 2.308013
v 0.540991 -0.626206 2.231987
v 0.382042 -0.659991 2.556987
vn -0.207912 0.978148 0.000000
f 559//187 560//187 561//187
v 0.689721 -0.594592 2.308013
v 0.382042 -0.659991 2.556987
v 0.530772 -0.628378 2.633013
vn -0.207912 0.978148 0.000000
f 562//188 563//188 564//188
v 0.540991 -0.626206 2.231987
v 0.576336 -0.792491 2.231987
v 0.417387 -0.826276 2.556987
vn -0.874882 -0.185962 -0.447214
f 565//189 566//189 567//189
v 0.540991 -0.626206 2.231987
v 0.417387 -0.826276 2.556987
v 0.382042 -0.659991 2.556987
vn -0.874882 -0.185962 -0.447214
f 568//190 569//190 570//190
v 0.576336 -0.792491 2.231987
v 0.725066 -0.760877 2.308013
v 0.566117 -0.794663 2.633013
vn 0.207912 -0.978148 -0.000000
f 571//191 572//191 573//191
v 0.576336 -0.792491 2.231987
v 0.566117 -0.794663 2.633013
v 0.417387 -0.826276 2.556987
vn 0.207912 -0.978148 -0.000000
f 574//192 575//192 576//192
v 0.491752 -0.810470 2.680000
v 0.491752 -0.810470 2.510000
v 0.456407 -0.644185 2.510000
vn 0.978148 0.207912 0.000000
f 577//193 578//193 579//193
v 0.491752 -0.810470 2.680000
v 0.456407 -0.644185 2.510000
v 0.456407 -0.644185 2.680000
vn 0.978148 0.207912 0.000000
f 580//194 581//194 582//194
v -0.192951 -0.956008 2.680000
v -0.228296 -0.789723 2.680000
v -0.228296 -0.789723 2.510000
vn -0.978148 -0.207912 0.000000
f 583//195 584//195 585//195
v -0.192951 -0.956008 2.680000
v -0.228296 -0.789723 2.510000
v -0.192951 -0.956008 2.510000
vn -0.978148 -0.207912 -0.000000
f 586//196 587//196 588//196
v 0.491752 -0.810470 2.680000
v 0.456407 -0.644185 2.680000
v -0.228296 -0.789723 2.680000
vn 0.000000 0.000000 1.000000
f 589//197 590//197 591//197
v 0.491752 -0.810470 2.680000
v -0.228296 -0.789723 2.680000
v -0.192951 -0.956008 2.680000
vn 0.000000 0.000000 1.000000
f 592//198 593//198 594//198
v 0.456407 -0.644185 2.680000
v 0.456407 -0.644185 2.510000
v -0.228296 -0.789723 2.510000
vn -0.207912 0.978148 0.000000
f 595//199 596//199 597//199
v 0.456407 -0.644185 2.680000
v -0.228296 -0.789723 2.510000
v -0.228296 -0.789723 2.680000
vn -0.207912 0.978148 0.000000
f 598//200 599//200 600//200
v 0.456407 -0.644185 2.510000
v 0.491752 -0.810470 2.510000
v -0.192951 -0.956008 2.510000
vn 0.000000 -0.000000 -1.000000
f 601//201 602//201 603//201
v 0.456407 -0.644185 2.510000
v -0.192951 -0.956008 2.510000
v -0.228296 -0.789723 2.510000
vn 0.000000 0.000000 -1.000000
f 604//202 605//202 606//202
v 0.491752 -0.810470 2.510000
v 0.491752 -0.810470 2.680000
v -0.192951 -0.956008 2.680000
vn 0.207912 -0.978148 0.000000
f 607//203 608//203 609//203
v 0.491752 -0.810470 2.510000
v -0.192951 -0.956008 2.680000
v -0.192951 -0.956008 2.510000
vn 0.207912 -0.978148 0.000000
f 610//204 611//204 612//204
v 0.804039 0.522008 3.248921
v 0.790912 0.583765 3.091079
v 0.624627 0.548420 3.091079
vn -0.193041 0.908187 0.371391
f 613//205 614//205 615//205
v 0.804039 0.522008 3.248921
v 0.624627 0.548420 3.091079
v 0.637754 0.486663 3.248921
vn -0.193041 0.908187 0.371391
f 616//206 617//206 618//206
v 0.920989 -0.028200 3.023921
v 0.754704 -0.063545 3.023921
v 0.741577 -0.001788 2.866079
vn 0.193041 -0.908187 -0.371391
f 619//207 620//207 621//207
v 0.920989 -0.028200 3.023921
v 0.741577 -0.001788 2.866079
v 0.907862 0.033557 2.866079
vn 0.193041 -0.908187 -0.371391
f 622//208 623//208 624//208
v 0.804039 0.522008 3.248921
v 0.637754 0.486663 3.248921
v 0.754704 -0.063545 3.023921
vn 0.077216 -0.363275 0.928477
f 625//209 626//209 627//209
v 0.804039 0.522008 3.248921
v 0.754704 -0.063545 3.023921
v 0.920989 -0.028200 3.023921
vn 0.077216 -0.363275 0.928477
f 628//210 629//210 630//210
v 0.637754 0.486663 3.248921
v 0.624627 0.548420 3.091079
v 0.741577 -0.001788 2.866079
vn -0.978148 -0.207912 0.000000
f 631//211 632//211 633//211
v 0.637754 0.486663 3.248921
v 0.741577 -0.001788 2.866079
v 0.754704 -0.063545 3.023921
vn -0.978148 -0.207912 -0.000000
f 634//212 635//212 636//212
v 0.624627 0.548420 3.091079
v 0.790912 0.583765 3.091079
v 0.907862 0.033557 2.866079
vn -0.077216 0.363275 -0.928477
f 637//213 638//213 639//213
v 0.624627 0.548420 3.091079
v 0.907862 0.033557 2.866079
v 0.741577 -0.001788 2.866079
vn -0.077216 0.363275 -0.928477
f 640//214 641//214 642//214
v 0.790912 0.583765 3.091079
v 0.804039 0.522008 3.248921
v 0.920989 -0.028200 3.023921
vn 0.978148 0.207912 -0.000000
f 643//215 644//215 645//215
v 0.790912 0.583765 3.091079
v 0.920989 -0.028200 3.023921
v 0.907862 0.033557 2.866079
vn 0.978148 0.207912 0.000000
f 646//216 647//216 648//216
v 0.930232 -0.071687 2.983013
v 0.898619 0.077043 2.906987
v 0.732334 0.041698 2.906987
vn -0.092981 0.437441 0.894427
f 649//217 650//217 651//217
v 0.930232 -0.071687 2.983013
v 0.732334 0.041698 2.906987
v 0.763947 -0.107032 2.983013
vn -0.092981 0.437441 0.894427
f 652//218 653//218 654//218
v 0.984809 -0.328450 2.458013
v 0.818524 -0.363795 2.458013
v 0.786911 -0.215065 2.381987
vn 0.092981 -0.437441 -0.894427
f 655//219 656//219 657//219
v 0.984809 -0.328450 2.458013
v 0.786911 -0.215065 2.381987
v 0.953196 -0.179721 2.381987
vn 0.092981 -0.437441 -0.894427
f 658//220 659//220 660//220
v 0.930232 -0.071687 2.983013
v 0.763947 -0.107032 2.983013
v 0.818524 -0.363795 2.458013
vn 0.185962 -0.874882 0.447214
f 661//221 662//221 663//221
v 0.930232 -0.071687 2.983013
v 0.818524 -0.363795 2.458013
v 0.984809 -0.328450 2.458013
vn 0.185962 -0.874882 0.447214
f 664//222 665//222 666//222
v 0.763947 -0.107032 2.983013
v 0.732334 0.041698 2.906987
v 0.786911 -0.215065 2.381987
vn -0.978148 -0.207912 0.000000
f 667//223 668//223 669//223
v 0.763947 -0.107032 2.983013
v 0.786911 -0.215065 2.381987
v 0.818524 -0.363795 2.458013
vn -0.978148 -0.207912 0.000000
f 670//224 671//224 672//224
v 0.732334 0.041698 2.906987
v 0.898619 0.077043 2.906987
v 0.953196 -0.179721 2.381987
vn -0.185962 0.874882 -0.447214
f 673//225 674//225 675//225
v 0.732334 0.041698 2.906987
v 0.953196 -0.179721 2.381987
v 0.786911 -0.215065 2.381987
vn -0.185962 0.874882 -0.447214
f 676//226 677//226 678//226
v 0.898619 0.077043 2.906987
v 0.930232 -0.071687 2.983013
v 0.984809 -0.328450 2.458013
vn 0.978148 0.207912 -0.000000
f 679//227 680//227 681//227
v 0.898619 0.077043 2.906987
v 0.984809 -0.328450 2.458013
v 0.953196 -0.179721 2.381987
vn 0.978148 0.207912 -0.000000
f 682//228 683//228 684//228
v 0.785367 -0.207803 2.436152
v 0.820068 -0.371058 2.403848
v 0.986353 -0.335713 2.403848
vn 0.039508 -0.185869 0.981780
f 685//229 686//229 687//229
v 0.785367 -0.207803 2.436152
v 0.986353 -0.335713 2.403848
v 0.951652 -0.172458 2.436152
vn 0.039508 -0.185869 0.981780
f 688//230 689//230 690//230
v 0.769773 -0.134442 2.048652
v 0.936058 -0.099097 2.048652
v 0.970759 -0.262352 2.016348
vn -0.039508 0.185869 -0.981780
f 691//231 692//231 693//231
v 0.769773 -0.134442 2.048652
v 0.970759 -0.262352 2.016348
v 0.804474 -0.297697 2.016348
vn -0.039508 0.185869 -0.981780
f 694//232 695//232 696//232
v 0.785367 -0.207803 2.436152
v 0.951652 -0.172458 2.436152
v 0.936058 -0.099097 2.048652
vn -0.204124 0.960326 0.190022
f 697//233 698//233 699//233
v 0.785367 -0.207803 2.436152
v 0.936058 -0.099097 2.048652
v 0.769773 -0.134442 2.048652
vn -0.204124 0.960326 0.190022
f 700//234 701//234 702//234
v 0.951652 -0.172458 2.436152
v 0.986353 -0.335713 2.403848
v 0.970759 -0.262352 2.016348
vn 0.978148 0.207912 0.000000
f 703//235 704//235 705//235
v 0.951652 -0.172458 2.436152
v 0.970759 -0.262352 2.016348
v 0.936058 -0.099097 2.048652
vn 0.978148 0.207912 0.000000
f 706//236 707//236 708//236
v 0.986353 -0.335713 2.403848
v 0.820068 -0.371058 2.403848
v 0.804474 -0.297697 2.016348
vn 0.204124 -0.960326 -0.190022
f 709//237 710//237 711//237
v 0.986353 -0.335713 2.403848
v 0.804474 -0.297697 2.016348
v 0.970759 -0.262352 2.016348
vn 0.204124 -0.960326 -0.190022
f 712//238 713//238 714//238
v 0.820068 -0.371058 2.403848
v 0.785367 -0.207803 2.436152
v 0.769773 -0.134442 2.048652
vn -0.978148 -0.207912 -0.000000
f 715//239 716//239 717//239
v 0.820068 -0.371058 2.403848
v 0.769773 -0.134442 2.048652
v 0.804474 -0.297697 2.016348
vn -0.978148 -0.207912 -0.000000
f 718//240 719//240 720//240
v 0.785432 -0.208112 2.117110
v 0.788815 -0.224027 1.947890
v 0.955100 -0.188682 1.947890
vn 0.206957 -0.973657 0.095712
f 721//241 722//241 723//241
v 0.785432 -0.208112 2.117110
v 0.955100 -0.188682 1.947890
v 0.951718 -0.172767 2.117110
vn 0.206957 -0.973657 0.095712
f 724//242 725//242 726//242
v 0.650290 0.427684 2.054610
v 0.816575 0.463029 2.054610
v 0.819958 0.447114 1.885390
vn -0.206957 0.973657 -0.095712
f 727//243 728//243 729//243
v 0.650290 0.427684 2.054610
v 0.819958 0.447114 1.885390
v 0.653673 0.411769 1.885390
vn -0.206957 0.973657 -0.095712
f 730//244 731//244 732//244
v 0.785432 -0.208112 2.117110
v 0.951718 -0.172767 2.117110
v 0.816575 0.463029 2.054610
vn -0.019900 0.093621 0.995409
f 733//245 734//245 735//245
v 0.785432 -0.208112 2.117110
v 0.816575 0.463029 2.054610
v 0.650290 0.427684 2.054610
vn -0.019900 0.093621 0.995409
f 736//246 737//246 738//246
v 0.951718 -0.172767 2.117110
v 0.955100 -0.188682 1.947890
v 0.819958 0.447114 1.885390
vn 0.978148 0.207912 0.000000
f 739//247 740//247 741//247
v 0.951718 -0.172767 2.117110
v 0.819958 0.447114 1.885390
v 0.816575 0.463029 2.054610
vn 0.978148 0.207912 0.000000
f 742//248 743//248 744//248
v 0.955100 -0.188682 1.947890
v 0.788815 -0.224027 1.947890
v 0.653673 0.411769 1.885390
vn 0.019900 -0.093621 -0.995409
f 745//249 746//249 747//249
v 0.955100 -0.188682 1.947890
v 0.653673 0.411769 1.885390
v 0.819958 0.447114 1.885390
vn 0.019900 -0.093621 -0.995409
f 748//250 749//250 750//250
v 0.788815 -0.224027 1.947890
v 0.785432 -0.208112 2.117110
v 0.650290 0.427684 2.054610
vn -0.978148 -0.207912 -0.000000
f 751//251 752//251 753//251
v 0.788815 -0.224027 1.947890
v 0.650290 0.427684 2.054610
v 0.653673 0.411769 1.885390
vn -0.978148 -0.207912 -0.000000
f 754//252 755//252 756//252
v 0.666686 0.350548 2.017150
v 0.637277 0.488905 1.922850
v 0.803562 0.524250 1.922850
vn 0.115329 -0.542579 -0.832050
f 757//253 758//253 759//253
v 0.666686 0.350548 2.017150
v 0.803562 0.524250 1.922850
v 0.832971 0.385893 2.017150
vn 0.115329 -0.542579 -0.832050
f 760//254 761//254 762//254
v 0.625103 0.546177 2.317150
v 0.791388 0.581522 2.317150
v 0.761980 0.719880 2.222850
vn -0.115329 0.542579 0.832050
f 763//255 764//255 765//255
v 0.625103 0.546177 2.317150
v 0.761980 0.719880 2.222850
v 0.595695 0.684535 2.222850
vn -0.115329 0.542579 0.832050
f 766//256 767//256 768//256
v 0.666686 0.350548 2.017150
v 0.832971 0.385893 2.017150
v 0.791388 0.581522 2.317150
vn 0.172993 -0.813868 0.554700
f 769//257 770//257 771//257
v 0.666686 0.350548 2.017150
v 0.791388 0.581522 2.317150
v 0.625103 0.546177 2.317150
vn 0.172993 -0.813868 0.554700
f 772//258 773//258 774//258
v 0.832971 0.385893 2.017150
v 0.803562 0.524250 1.922850
v 0.761980 0.719880 2.222850
vn 0.978148 0.207912 -0.000000
f 775//259 776//259 777//259
v 0.832971 0.385893 2.017150
v 0.761980 0.719880 2.222850
v 0.791388 0.581522 2.317150
vn 0.978148 0.207912 0.000000
f 778//260 779//260 780//260
v 0.803562 0.524250 1.922850
v 0.637277 0.488905 1.922850
v 0.595695 0.684535 2.222850
vn -0.172993 0.813868 -0.554700
f 781//261 782//261 783//261
v 0.803562 0.524250 1.922850
v 0.595695 0.684535 2.222850
v 0.761980 0.719880 2.222850
vn -0.172993 0.813868 -0.554700
f 784//262 785//262 786//262
v 0.637277 0.488905 1.922850
v 0.666686 0.350548 2.017150
v 0.625103 0.546177 2.317150
vn -0.978148 -0.207912 -0.000000
f 787//263 788//263 789//263
v 0.637277 0.488905 1.922850
v 0.625103 0.546177 2.317150
v 0.595695 0.684535 2.222850
vn -0.978148 -0.207912 -0.000000
f 790//264 791//264 792//264
v 0.760877 0.725066 2.308013
v 0.792491 0.576336 2.231987
v 0.626206 0.540991 2.231987
vn -0.092981 0.437441 -0.894427
f 793//265 794//265 795//265
v 0.760877 0.725066 2.308013
v 0.626206 0.540991 2.231987
v 0.594592 0.689721 2.308013
vn -0.092981 0.437441 -0.894427
f 796//266 797//266 798//266
v 0.794663 0.566117 2.633013
v 0.628378 0.530772 2.633013
v 0.659991 0.382042 2.556987
vn 0.092981 -0.437441 0.894427
f 799//267 800//267 801//267
v 0.794663 0.566117 2.633013
v 0.659991 0.382042 2.556987
v 0.826276 0.417387 2.556987
vn 0.092981 -0.437441 0.894427
f 802//268 803//268 804//268
v 0.760877 0.725066 2.308013
v 0.594592 0.689721 2.308013
v 0.628378 0.530772 2.633013
vn -0.185962 0.874882 0.447214
f 805//269 806//269 807//269
v 0.760877 0.725066 2.308013
v 0.628378 0.530772 2.633013
v 0.794663 0.566117 2.633013
vn -0.185962 0.874882 0.447214
f 808//270 809//270 810//270
v 0.594592 0.689721 2.308013
v 0.626206 0.540991 2.231987
v 0.659991 0.382042 2.556987
vn -0.978148 -0.207912 0.000000
f 811//271 812//271 813//271
v 0.594592 0.689721 2.308013
v 0.659991 0.382042 2.556987
v 0.628378 0.530772 2.633013
vn -0.978148 -0.207912 0.000000
f 814//272 815//272 816//272
v 0.626206 0.540991 2.231987
v 0.792491 0.576336 2.231987
v 0.826276 0.417387 2.556987
vn 0.185962 -0.874882 -0.447214
f 817//273 818//273 819//273
v 0.626206 0.540991 2.231987
v 0.826276 0.417387 2.556987
v 0.659991 0.382042 2.556987
vn 0.185962 -0.874882 -0.447214
f 820//274 821//274 822//274
v 0.792491 0.576336 2.231987
v 0.760877 0.725066 2.308013
v 0.794663 0.566117 2.633013
vn 0.978148 0.207912 -0.000000
f 823//275 824//275 825//275
v 0.792491 0.576336 2.231987
v 0.794663 0.566117 2.633013
v 0.826276 0.417387 2.556987
vn 0.978148 0.207912 -0.000000
f 826//276 827//276 828//276
v 0.810470 0.491752 2.680000
v 0.810470 0.491752 2.510000
v 0.644185 0.456407 2.510000
vn -0.207912 0.978148 0.000000
f 829//277 830//277 831//277
v 0.810470 0.491752 2.680000
v 0.644185 0.456407 2.510000
v 0.644185 0.456407 2.680000
vn -0.207912 0.978148 0.000000
f 832//278 833//278 834//278
v 0.956008 -0.192951 2.680000
v 0.789723 -0.228296 2.680000
v 0.789723 -0.228296 2.510000
vn 0.207912 -0.978148 0.000000
f 835//279 836//279 837//279
v 0.956008 -0.192951 2.680000
v 0.789723 -0.228296 2.510000
v 0.956008 -0.192951 2.510000
vn 0.207912 -0.978148 0.000000
f 838//280 839//280 840//280
v 0.810470 0.491752 2.680000
v 0.644185 0.456407 2.680000
v 0.789723 -0.228296 2.680000
vn 0.000000 0.000000 1.000000
f 841//281 842//281 843//281
v 0.810470 0.491752 2.680000
v 0.789723 -0.228296 2.680000
v 0.956008 -0.192951 2.680000
vn 0.000000 0.000000 1.000000
f 844//282 845//282 846//282
v 0.644185 0.456407 2.680000
v 0.644185 0.456407 2.510000
v 0.789723 -0.228296 2.510000
vn -0.978148 -0.207912 -0.000000
f 847//283 848//283 849//283
v 0.644185 0.456407 2.680000
v 0.789723 -0.228296 2.510000
v 0.789723 -0.228296 2.680000
vn -0.978148 -0.207912 0.000000
f 850//284 851//284 852//284
v 0.644185 0.456407 2.510000
v 0.810470 0.491752 2.510000
v 0.956008 -0.192951 2.510000
vn 0.000000 0.000000 -1.000000
f 853//285 854//285 855//285
v 0.644185 0.456407 2.510000
v 0.956008 -0.192951 2.510000
v 0.789723 -0.228296 2.510000
vn 0.000000 0.000000 -1.000000
f 856//286 857//286 858//286
v 0.810470 0.491752 2.510000
v 0.810470 0.491752 2.680000
v 0.956008 -0.192951 2.680000
vn 0.978148 0.207912 -0.000000
f 859//287 860//287 861//287
v 0.810470 0.491752 2.510000
v 0.956008 -0.192951 2.680000
v 0.956008 -0.192951 2.510000
vn 0.978148 0.207912 0.000000
f 862//288 863//288 864//288
v -0.556667 -0.622874 3.570000
v -0.592012 -0.789159 3.570000
v -0.758297 -0.753814 3.570000
vn 0.000000 0.000000 -1.000000
f 865//289 866//289 867//289
v -0.556667 -0.622874 3.570000
v -0.758297 -0.753814 3.570000
v -0.722952 -0.587529 3.570000
vn -0.000000 0.000000 -1.000000
f 868//290 869//290 870//290
v -0.556667 -0.622874 4.770000
v -0.722952 -0.587529 4.770000
v -0.758297 -0.753814 4.770000
vn 0.000000 0.000000 1.000000
f 871//291 872//291 873//291
v -0.556667 -0.622874 4.770000
v -0.758297 -0.753814 4.770000
v -0.592012 -0.789159 4.770000
vn 0.000000 0.000000 1.000000
f 874//292 875//292 876//292
v -0.556667 -0.622874 3.570000
v -0.722952 -0.587529 3.570000
v -0.722952 -0.587529 4.770000
vn 0.207912 0.978148 0.000000
f 877//293 878//293 879//293
v -0.556667 -0.622874 3.570000
v -0.722952 -0.587529 4.770000
v -0.556667 -0.622874 4.770000
vn 0.207912 0.978148 -0.000000
f 880//294 881//294 882//294
v -0.722952 -0.587529 3.570000
v -0.758297 -0.753814 3.570000
v -0.758297 -0.753814 4.770000
vn -0.978148 0.207912 0.000000
f 883//295 884//295 885//295
v -0.722952 -0.587529 3.570000
v -0.758297 -0.753814 4.770000
v -0.722952 -0.587529 4.770000
vn -0.978148 0.207912 0.000000
f 886//296 887//296 888//296
v -0.758297 -0.753814 3.570000
v -0.592012 -0.789159 3.570000
v -0.592012 -0.789159 4.770000
vn -0.207912 -0.978148 0.000000
f 889//297 890//297 891//297
v -0.758297 -0.753814 3.570000
v -0.592012 -0.789159 4.770000
v -0.758297 -0.753814 4.770000
vn -0.207912 -0.978148 0.000000
f 892//298 893//298 894//298
v -0.592012 -0.789159 3.570000
v -0.556667 -0.622874 3.570000
v -0.556667 -0.622874 4.770000
vn 0.978148 -0.207912 0.000000
f 895//299 896//299 897//299
v -0.592012 -0.789159 3.570000
v -0.556667 -0.622874 4.770000
v -0.592012 -0.789159 4.770000
vn 0.978148 -0.207912 0.000000
f 898//300 899//300 900//300
v -0.573446 -0.619307 4.821205
v -0.706173 -0.591095 4.718795
v -0.741518 -0.757380 4.718795
vn -0.589243 0.125247 0.798189
f 901//301 902//301 903//301
v -0.573446 -0.619307 4.821205
v -0.741518 -0.757380 4.718795
v -0.608791 -0.785592 4.821205
vn -0.589243 0.125247 0.798189
f 904//302 905//302 906//302
v -0.084372 -0.723263 4.158705
v -0.119717 -0.889548 4.158705
v -0.252444 -0.861336 4.056295
vn 0.589243 -0.125247 -0.798189
f 907//303 908//303 909//303
v -0.084372 -0.723263 4.158705
v -0.252444 -0.861336 4.056295
v -0.217099 -0.695051 4.056295
vn 0.589243 -0.125247 -0.798189
f 910//304 911//304 912//304
v -0.573446 -0.619307 4.821205
v -0.608791 -0.785592 4.821205
v -0.119717 -0.889548 4.158705
vn 0.780747 -0.165953 0.602407
f 913//305 914//305 915//305
v -0.573446 -0.619307 4.821205
v -0.119717 -0.889548 4.158705
v -0.084372 -0.723263 4.158705
vn 0.780747 -0.165953 0.602407
f 916//306 917//306 918//306
v -0.608791 -0.785592 4.821205
v -0.741518 -0.757380 4.718795
v -0.252444 -0.861336 4.056295
vn -0.207912 -0.978148 0.000000
f 919//307 920//307 921//307
v -0.608791 -0.785592 4.821205
v -0.252444 -0.861336 4.056295
v -0.119717 -0.889548 4.158705
vn -0.207912 -0.978148 0.000000
f 922//308 923//308 924//308
v -0.741518 -0.757380 4.718795
v -0.706173 -0.591095 4.718795
v -0.217099 -0.695051 4.056295
vn -0.780747 0.165953 -0.602407
f 925//309 926//309 927//309
v -0.741518 -0.757380 4.718795
v -0.217099 -0.695051 4.056295
v -0.252444 -0.861336 4.056295
vn -0.780747 0.165953 -0.602407
f 928//310 929//310 930//310
v -0.706173 -0.591095 4.718795
v -0.573446 -0.619307 4.821205
v -0.084372 -0.723263 4.158705
vn 0.207912 0.978148 -0.000000
f 931//311 932//311 933//311
v -0.706173 -0.591095 4.718795
v -0.084372 -0.723263 4.158705
v -0.217099 -0.695051 4.056295
vn 0.207912 0.978148 0.000000
f 934//312 935//312 936//312
v -0.217099 -0.695051 4.158705
v -0.084372 -0.723263 4.056295
v -0.119717 -0.889548 4.056295
vn -0.589243 0.125247 -0.798189
f 937//313 938//313 939//313
v -0.217099 -0.695051 4.158705
v -0.119717 -0.889548 4.056295
v -0.252444 -0.861336 4.158705
vn -0.589243 0.125247 -0.798189
f 940//314 941//314 942//314
v 0.271974 -0.799007 4.821205
v 0.236629 -0.965292 4.821205
v 0.369356 -0.993504 4.718795
vn 0.589243 -0.125247 0.798189
f 943//315 944//315 945//315
v 0.271974 -0.799007 4.821205
v 0.369356 -0.993504 4.718795
v 0.404701 -0.827219 4.718795
vn 0.589243 -0.125247 0.798189
f 946//316 947//316 948//316
v -0.217099 -0.695051 4.158705
v -0.252444 -0.861336 4.158705
v 0.236629 -0.965292 4.821205
vn -0.780747 0.165953 0.602407
f 949//317 950//317 951//317
v -0.217099 -0.695051 4.158705
v 0.236629 -0.965292 4.821205
v 0.271974 -0.799007 4.821205
vn -0.780747 0.165953 0.602407
f 952//318 953//318 954//318
v -0.252444 -0.861336 4.158705
v -0.119717 -0.889548 4.056295
v 0.369356 -0.993504 4.718795
vn -0.207912 -0.978148 0.000000
f 955//319 956//319 957//319
v -0.252444 -0.861336 4.158705
v 0.369356 -0.993504 4.718795
v 0.236629 -0.965292 4.821205
vn -0.207912 -0.978148 -0.000000
f 958//320 959//320 960//320
v -0.119717 -0.889548 4.056295
v -0.084372 -0.723263 4.056295
v 0.404701 -0.827219 4.718795
vn 0.780747 -0.165953 -0.602407
f 961//321 962//321 963//321
v -0.119717 -0.889548 4.056295
v 0.404701 -0.827219 4.718795
v 0.369356 -0.993504 4.718795
vn 0.780747 -0.165953 -0.602407
f 964//322 965//322 966//322
v -0.084372 -0.723263 4.056295
v -0.217099 -0.695051 4.158705
v 0.271974 -0.799007 4.821205
vn 0.207912 0.978148 -0.000000
f 967//323 968//323 969//323
v -0.084372 -0.723263 4.056295
v 0.271974 -0.799007 4.821205
v 0.404701 -0.827219 4.718795
vn 0.207912 0.978148 0.000000
f 970//324 971//324 972//324
v 0.255195 -0.795440 4.770000
v 0.219850 -0.961725 4.770000
v 0.386135 -0.997070 4.770000
vn 0.000000 0.000000 1.000000
f 973//325 974//325 975//325
v 0.255195 -0.795440 4.770000
v 0.386135 -0.997070 4.770000
v 0.421480 -0.830785 4.770000
vn 0.000000 0.000000 1.000000
f 976//326 977//326 978//326
v 0.255195 -0.795440 3.570000
v 0.421480 -0.830785 3.570000
v 0.386135 -0.997070 3.570000
vn 0.000000 0.000000 -1.000000
f 979//327 980//327 981//327
v 0.255195 -0.795440 3.570000
v 0.386135 -0.997070 3.570000
v 0.219850 -0.961725 3.570000
vn 0.000000 -0.000000 -1.000000
f 982//328 983//328 984//328
v 0.255195 -0.795440 4.770000
v 0.421480 -0.830785 4.770000
v 0.421480 -0.830785 3.570000
vn 0.207912 0.978148 0.000000
f 985//329 986//329 987//329
v 0.255195 -0.795440 4.770000
v 0.421480 -0.830785 3.570000
v 0.255195 -0.795440 3.570000
vn 0.207912 0.978148 0.000000
f 988//330 989//330 990//330
v 0.421480 -0.830785 4.770000
v 0.386135 -0.997070 4.770000
v 0.386135 -0.997070 3.570000
vn 0.978148 -0.207912 0.000000
f 991//331 992//331 993//331
v 0.421480 -0.830785 4.770000
v 0.386135 -0.997070 3.570000
v 0.421480 -0.830785 3.570000
vn 0.978148 -0.207912 0.000000
f 994//332 995//332 996//332
v 0.386135 -0.997070 4.770000
v 0.219850 -0.961725 4.770000
v 0.219850 -0.961725 3.570000
vn -0.207912 -0.978148 0.000000
f 997//333 998//333 999//333
v 0.386135 -0.997070 4.770000
v 0.219850 -0.961725 3.570000
v 0.386135 -0.997070 3.570000
vn -0.207912 -0.978148 -0.000000
f 1000//334 1001//334 1002//334
v 0.219850 -0.961725 4.770000
v 0.255195 -0.795440 4.770000
v 0.255195 -0.795440 3.570000
vn -0.978148 0.207912 0.000000
f 1003//335 1004//335 1005//335
v 0.219850 -0.961725 4.770000
v 0.255195 -0.795440 3.570000
v 0.219850 -0.961725 3.570000
vn -0.978148 0.207912 0.000000
f 1006//336 1007//336 1008//336
v 0.789159 -0.592012 3.570000
v 0.753814 -0.758297 3.570000
v 0.587529 -0.722952 3.570000
vn 0.000000 0.000000 -1.000000
f 1009//337 1010//337 1011//337
v 0.789159 -0.592012 3.570000
v 0.587529 -0.722952 3.570000
v 0.622874 -0.556667 3.570000
vn -0.000000 0.000000 -1.000000
f 1012//338 1013//338 1014//338
v 0.789159 -0.592012 4.770000
v 0.622874 -0.556667 4.770000
v 0.587529 -0.722952 4.770000
vn 0.000000 0.000000 1.000000
f 1015//339 1016//339 1017//339
v 0.789159 -0.592012 4.770000
v 0.587529 -0.722952 4.770000
v 0.753814 -0.758297 4.770000
vn 0.000000 0.000000 1.000000
f 1018//340 1019//340 1020//340
v 0.789159 -0.592012 3.570000
v 0.622874 -0.556667 3.570000
v 0.622874 -0.556667 4.770000
vn 0.207912 0.978148 0.000000
f 1021//341 1022//341 1023//341
v 0.789159 -0.592012 3.570000
v 0.622874 -0.556667 4.770000
v 0.789159 -0.592012 4.770000
vn 0.207912 0.978148 -0.000000
f 1024//342 1025//342 1026//342
v 0.622874 -0.556667 3.570000
v 0.587529 -0.722952 3.570000
v 0.587529 -0.722952 4.770000
vn -0.978148 0.207912 0.000000
f 1027//343 1028//343 1029//343
v 0.622874 -0.556667 3.570000
v 0.587529 -0.722952 4.770000
v 0.622874 -0.556667 4.770000
vn -0.978148 0.207912 0.000000
f 1030//344 1031//344 1032//344
v 0.587529 -0.722952 3.570000
v 0.753814 -0.758297 3.570000
v 0.753814 -0.758297 4.770000
vn -0.207912 -0.978148 0.000000
f 1033//345 1034//345 1035//345
v 0.587529 -0.722952 3.570000
v 0.753814 -0.758297 4.770000
v 0.587529 -0.722952 4.770000
vn -0.207912 -0.978148 0.000000
f 1036//346 1037//346 1038//346
v 0.753814 -0.758297 3.570000
v 0.789159 -0.592012 3.570000
v 0.789159 -0.592012 4.770000
vn 0.978148 -0.207912 0.000000
f 1039//347 1040//347 1041//347
v 0.753814 -0.758297 3.570000
v 0.789159 -0.592012 4.770000
v 0.753814 -0.758297 4.770000
vn 0.978148 -0.207912 0.000000
f 1042//348 1043//348 1044//348
v 0.619307 -0.573446 4.821205
v 0.591095 -0.706173 4.718795
v 0.757380 -0.741518 4.718795
vn -0.125247 -0.589243 0.798189
f 1045//349 1046//349 1047//349
v 0.619307 -0.573446 4.821205
v 0.757380 -0.741518 4.718795
v 0.785592 -0.608791 4.821205
vn -0.125247 -0.589243 0.798189
f 1048//350 1049//350 1050//350
v 0.723263 -0.084372 4.158705
v 0.889548 -0.119717 4.158705
v 0.861336 -0.252444 4.056295
vn 0.125247 0.589243 -0.798189
f 1051//351 1052//351 1053//351
v 0.723263 -0.084372 4.158705
v 0.861336 -0.252444 4.056295
v 0.695051 -0.217099 4.056295
vn 0.125247 0.589243 -0.798189
f 1054//352 1055//352 1056//352
v 0.619307 -0.573446 4.821205
v 0.785592 -0.608791 4.821205
v 0.889548 -0.119717 4.158705
vn 0.165953 0.780747 0.602407
f 1057//353 1058//353 1059//353
v 0.619307 -0.573446 4.821205
v 0.889548 -0.119717 4.158705
v 0.723263 -0.084372 4.158705
vn 0.165953 0.780747 0.602407
f 1060//354 1061//354 1062//354
v 0.785592 -0.608791 4.821205
v 0.757380 -0.741518 4.718795
v 0.861336 -0.252444 4.056295
vn 0.978148 -0.207912 0.000000
f 1063//355 1064//355 1065//355
v 0.785592 -0.608791 4.821205
v 0.861336 -0.252444 4.056295
v 0.889548 -0.119717 4.158705
vn 0.978148 -0.207912 0.000000
f 1066//356 1067//356 1068//356
v 0.757380 -0.741518 4.718795
v 0.591095 -0.706173 4.718795
v 0.695051 -0.217099 4.056295
vn -0.165953 -0.780747 -0.602407
f 1069//357 1070//357 1071//357
v 0.757380 -0.741518 4.718795
v 0.695051 -0.217099 4.056295
v 0.861336 -0.252444 4.056295
vn -0.165953 -0.780747 -0.602407
f 1072//358 1073//358 1074//358
v 0.591095 -0.706173 4.718795
v 0.619307 -0.573446 4.821205
v 0.723263 -0.084372 4.158705
vn -0.978148 0.207912 -0.000000
f 1075//359 1076//359 1077//359
v 0.591095 -0.706173 4.718795
v 0.723263 -0.084372 4.158705
v 0.695051 -0.217099 4.056295
vn -0.978148 0.207912 0.000000
f 1078//360 1079//360 1080//360
v 0.695051 -0.217099 4.158705
v 0.723263 -0.084372 4.056295
v 0.889548 -0.119717 4.056295
vn -0.125247 -0.589243 -0.798189
f 1081//361 1082//361 1083//361
v 0.695051 -0.217099 4.158705
v 0.889548 -0.119717 4.056295
v 0.861336 -0.252444 4.158705
vn -0.125247 -0.589243 -0.798189
f 1084//362 1085//362 1086//362
v 0.799007 0.271974 4.821205
v 0.965292 0.236629 4.821205
v 0.993504 0.369356 4.718795
vn 0.125247 0.589243 0.798189
f 1087//363 1088//363 1089//363
v 0.799007 0.271974 4.821205
v 0.993504 0.369356 4.718795
v 0.827219 0.404701 4.718795
vn 0.125247 0.589243 0.798189
f 1090//364 1091//364 1092//364
v 0.695051 -0.217099 4.158705
v 0.861336 -0.252444 4.158705
v 0.965292 0.236629 4.821205
vn -0.165953 -0.780747 0.602407
f 1093//365 1094//365 1095//365
v 0.695051 -0.217099 4.158705
v 0.965292 0.236629 4.821205
v 0.799007 0.271974 4.821205
vn -0.165953 -0.780747 0.602407
f 1096//366 1097//366 1098//366
v 0.861336 -0.252444 4.158705
v 0.889548 -0.119717 4.056295
v 0.993504 0.369356 4.718795
vn 0.978148 -0.207912 0.000000
f 1099//367 1100//367 1101//367
v 0.861336 -0.252444 4.158705
v 0.993504 0.369356 4.718795
v 0.965292 0.236629 4.821205
vn 0.978148 -0.207912 -0.000000
f 1102//368 1103//368 1104//368
v 0.889548 -0.119717 4.056295
v 0.723263 -0.084372 4.056295
v 0.827219 0.404701 4.718795
vn 0.165953 0.780747 -0.602407
f 1105//369 1106//369 1107//369
v 0.889548 -0.119717 4.056295
v 0.827219 0.404701 4.718795
v 0.993504 0.369356 4.718795
vn 0.165953 0.780747 -0.602407
f 1108//370 1109//370 1110//370
v 0.723263 -0.084372 4.056295
v 0.695051 -0.217099 4.158705
v 0.799007 0.271974 4.821205
vn -0.978148 0.207912 -0.000000
f 1111//371 1112//371 1113//371
v 0.723263 -0.084372 4.056295
v 0.799007 0.271974 4.821205
v 0.827219 0.404701 4.718795
vn -0.978148 0.207912 0.000000
f 1114//372 1115//372 1116//372
v 0.830785 0.421480 4.770000
v 0.795440 0.255195 4.770000
v 0.961725 0.219850 4.770000
vn 0.000000 0.000000 1.000000
f 1117//373 1118//373 1119//373
v 0.830785 0.421480 4.770000
v 0.961725 0.219850 4.770000
v 0.997070 0.386135 4.770000
vn 0.000000 0.000000 1.000000
f 1120//374 1121//374 1122//374
v 0.830785 0.421480 3.570000
v 0.997070 0.386135 3.570000
v 0.961725 0.219850 3.570000
vn 0.000000 0.000000 -1.000000
f 1123//375 1124//375 1125//375
v 0.830785 0.421480 3.570000
v 0.961725 0.219850 3.570000
v 0.795440 0.255195 3.570000
vn 0.000000 -0.000000 -1.000000
f 1126//376 1127//376 1128//376
v 0.830785 0.421480 4.770000
v 0.997070 0.386135 4.770000
v 0.997070 0.386135 3.570000
vn 0.207912 0.978148 0.000000
f 1129//377 1130//377 1131//377
v 0.830785 0.421480 4.770000
v 0.997070 0.386135 3.570000
v 0.830785 0.421480 3.570000
vn 0.207912 0.978148 0.000000
f 1132//378 1133//378 1134//378
v 0.997070 0.386135 4.770000
v 0.961725 0.219850 4.770000
v 0.961725 0.219850 3.570000
vn 0.978148 -0.207912 0.000000
f 1135//379 1136//379 1137//379
v 0.997070 0.386135 4.770000
v 0.961725 0.219850 3.570000
v 0.997070 0.386135 3.570000
vn 0.978148 -0.207912 0.000000
f 1138//380 1139//380 1140//380
v 0.961725 0.219850 4.770000
v 0.795440 0.255195 4.770000
v 0.795440 0.255195 3.570000
vn -0.207912 -0.978148 0.000000
f 1141//381 1142//381 1143//381
v 0.961725 0.219850 4.770000
v 0.795440 0.255195 3.570000
v 0.961725 0.219850 3.570000
vn -0.207912 -0.978148 -0.000000
f 1144//382 1145//382 1146//382
v 0.795440 0.255195 4.770000
v 0.830785 0.421480 4.770000
v 0.830785 0.421480 3.570000
vn -0.978148 0.207912 0.000000
f 1147//383 1148//383 1149//383
v 0.795440 0.255195 4.770000
v 0.830785 0.421480 3.570000
v 0.795440 0.255195 3.570000
vn -0.978148 0.207912 0.000000
f 1150//384 1151//384 1152//384
v -0.397027 -0.825588 6.370000
v -0.361682 -0.991873 6.370000
v -0.195397 -0.956528 6.370000
vn 0.000000 0.000000 1.000000
f 1153//385 1154//385 1155//385
v -0.397027 -0.825588 6.370000
v -0.195397 -0.956528 6.370000
v -0.230742 -0.790243 6.370000
vn -0.000000 0.000000 1.000000
f 1156//386 1157//386 1158//386
v -0.397027 -0.825588 5.395000
v -0.230742 -0.790243 5.395000
v -0.195397 -0.956528 5.395000
vn 0.000000 0.000000 -1.000000
f 1159//387 1160//387 1161//387
v -0.397027 -0.825588 5.395000
v -0.195397 -0.956528 5.395000
v -0.361682 -0.991873 5.395000
vn 0.000000 0.000000 -1.000000
f 1162//388 1163//388 1164//388
v -0.397027 -0.825588 6.370000
v -0.230742 -0.790243 6.370000
v -0.230742 -0.790243 5.395000
vn -0.207912 0.978148 0.000000
f 1165//389 1166//389 1167//389
v -0.397027 -0.825588 6.370000
v -0.230742 -0.790243 5.395000
v -0.397027 -0.825588 5.395000
vn -0.207912 0.978148 0.000000
f 1168//390 1169//390 1170//390
v -0.230742 -0.790243 6.370000
v -0.195397 -0.956528 6.370000
v -0.195397 -0.956528 5.395000
vn 0.978148 0.207912 0.000000
f 1171//391 1172//391 1173//391
v -0.230742 -0.790243 6.370000
v -0.195397 -0.956528 5.395000
v -0.230742 -0.790243 5.395000
vn 0.978148 0.207912 0.000000
f 1174//392 1175//392 1176//392
v -0.195397 -0.956528 6.370000
v -0.361682 -0.991873 6.370000
v -0.361682 -0.991873 5.395000
vn 0.207912 -0.978148 0.000000
f 1177//393 1178//393 1179//393
v -0.195397 -0.956528 6.370000
v -0.361682 -0.991873 5.395000
v -0.195397 -0.956528 5.395000
vn 0.207912 -0.978148 0.000000
f 1180//394 1181//394 1182//394
v -0.361682 -0.991873 6.370000
v -0.397027 -0.825588 6.370000
v -0.397027 -0.825588 5.395000
vn -0.978148 -0.207912 0.000000
f 1183//395 1184//395 1185//395
v -0.361682 -0.991873 6.370000
v -0.397027 -0.825588 5.395000
v -0.361682 -0.991873 5.395000
vn -0.978148 -0.207912 -0.000000
f 1186//396 1187//396 1188//396
v -0.251743 -0.794706 5.451471
v -0.376026 -0.821124 5.338529
v -0.340681 -0.987409 5.338529
vn -0.649846 -0.138129 0.747409
f 1189//397 1190//397 1191//397
v -0.251743 -0.794706 5.451471
v -0.340681 -0.987409 5.338529
v -0.216398 -0.960992 5.451471
vn -0.649846 -0.138129 0.747409
f 1192//398 1193//398 1194//398
v -0.056113 -0.753124 5.226471
v -0.020768 -0.919409 5.226471
v -0.145051 -0.945826 5.113529
vn 0.649846 0.138129 -0.747409
f 1195//399 1196//399 1197//399
v -0.056113 -0.753124 5.226471
v -0.145051 -0.945826 5.113529
v -0.180396 -0.779541 5.113529
vn 0.649846 0.138129 -0.747409
f 1198//400 1199//400 1200//400
v -0.251743 -0.794706 5.451471
v -0.216398 -0.960992 5.451471
v -0.020768 -0.919409 5.226471
vn 0.731077 0.155395 0.664364
f 1201//401 1202//401 1203//401
v -0.251743 -0.794706 5.451471
v -0.020768 -0.919409 5.226471
v -0.056113 -0.753124 5.226471
vn 0.731077 0.155395 0.664364
f 1204//402 1205//402 1206//402
v -0.216398 -0.960992 5.451471
v -0.340681 -0.987409 5.338529
v -0.145051 -0.945826 5.113529
vn 0.207912 -0.978148 -0.000000
f 1207//403 1208//403 1209//403
v -0.216398 -0.960992 5.451471
v -0.145051 -0.945826 5.113529
v -0.020768 -0.919409 5.226471
vn 0.207912 -0.978148 -0.000000
f 1210//404 1211//404 1212//404
v -0.340681 -0.987409 5.338529
v -0.376026 -0.821124 5.338529
v -0.180396 -0.779541 5.113529
vn -0.731077 -0.155395 -0.664364
f 1213//405 1214//405 1215//405
v -0.340681 -0.987409 5.338529
v -0.180396 -0.779541 5.113529
v -0.145051 -0.945826 5.113529
vn -0.731077 -0.155395 -0.664364
f 1216//406 1217//406 1218//406
v -0.376026 -0.821124 5.338529
v -0.251743 -0.794706 5.451471
v -0.056113 -0.753124 5.226471
vn -0.207912 0.978148 0.000000
f 1219//407 1220//407 1221//407
v -0.376026 -0.821124 5.338529
v -0.056113 -0.753124 5.226471
v -0.180396 -0.779541 5.113529
vn -0.207912 0.978148 0.000000
f 1222//408 1223//408 1224//408
v -0.118255 -0.766333 5.255000
v -0.118255 -0.766333 5.085000
v -0.082910 -0.932618 5.085000
vn -0.978148 -0.207912 -0.000000
f 1225//409 1226//409 1227//409
v -0.118255 -0.766333 5.255000
v -0.082910 -0.932618 5.085000
v -0.082910 -0.932618 5.255000
vn -0.978148 -0.207912 0.000000
f 1228//410 1229//410 1230//410
v 0.419727 -0.651981 5.255000
v 0.455072 -0.818266 5.255000
v 0.455072 -0.818266 5.085000
vn 0.978148 0.207912 0.000000
f 1231//411 1232//411 1233//411
v 0.419727 -0.651981 5.255000
v 0.455072 -0.818266 5.085000
v 0.419727 -0.651981 5.085000
vn 0.978148 0.207912 0.000000
f 1234//412 1235//412 1236//412
v -0.118255 -0.766333 5.255000
v -0.082910 -0.932618 5.255000
v 0.455072 -0.818266 5.255000
vn 0.000000 0.000000 1.000000
f 1237//413 1238//413 1239//413
v -0.118255 -0.766333 5.255000
v 0.455072 -0.818266 5.255000
v 0.419727 -0.651981 5.255000
vn -0.000000 0.000000 1.000000
f 1240//414 1241//414 1242//414
v -0.082910 -0.932618 5.255000
v -0.082910 -0.932618 5.085000
v 0.455072 -0.818266 5.085000
vn 0.207912 -0.978148 0.000000
f 1243//415 1244//415 1245//415
v -0.082910 -0.932618 5.255000
v 0.455072 -0.818266 5.085000
v 0.455072 -0.818266 5.255000
vn 0.207912 -0.978148 0.000000
f 1246//416 1247//416 1248//416
v -0.082910 -0.932618 5.085000
v -0.118255 -0.766333 5.085000
v 0.419727 -0.651981 5.085000
vn 0.000000 0.000000 -1.000000
f 1249//417 1250//417 1251//417
v -0.082910 -0.932618 5.085000
v 0.419727 -0.651981 5.085000
v 0.455072 -0.818266 5.085000
vn 0.000000 0.000000 -1.000000
f 1252//418 1253//418 1254//418
v -0.118255 -0.766333 5.085000
v -0.118255 -0.766333 5.255000
v 0.419727 -0.651981 5.255000
vn -0.207912 0.978148 0.000000
f 1255//419 1256//419 1257//419
v -0.118255 -0.766333 5.085000
v 0.419727 -0.651981 5.255000
v 0.419727 -0.651981 5.085000
vn -0.207912 0.978148 0.000000
f 1258//420 1259//420 1260//420
v 0.357585 -0.665190 5.226471
v 0.481868 -0.638773 5.113529
v 0.517213 -0.805058 5.113529
vn -0.649846 -0.138129 -0.747409
f 1261//421 1262//421 1263//421
v 0.357585 -0.665190 5.226471
v 0.517213 -0.805058 5.113529
v 0.392930 -0.831475 5.226471
vn -0.649846 -0.138129 -0.747409
f 1264//422 1265//422 1266//422
v 0.553215 -0.623608 5.451471
v 0.588560 -0.789893 5.451471
v 0.712843 -0.763475 5.338529
vn 0.649846 0.138129 0.747409
f 1267//423 1268//423 1269//423
v 0.553215 -0.623608 5.451471
v 0.712843 -0.763475 5.338529
v 0.677498 -0.597190 5.338529
vn 0.649846 0.138129 0.747409
f 1270//424 1271//424 1272//424
v 0.357585 -0.665190 5.226471
v 0.392930 -0.831475 5.226471
v 0.588560 -0.789893 5.451471
vn -0.731077 -0.155395 0.664364
f 1273//425 1274//425 1275//425
v 0.357585 -0.665190 5.226471
v 0.588560 -0.789893 5.451471
v 0.553215 -0.623608 5.451471
vn -0.731077 -0.155395 0.664364
f 1276//426 1277//426 1278//426
v 0.392930 -0.831475 5.226471
v 0.517213 -0.805058 5.113529
v 0.712843 -0.763475 5.338529
vn 0.207912 -0.978148 0.000000
f 1279//427 1280//427 1281//427
v 0.392930 -0.831475 5.226471
v 0.712843 -0.763475 5.338529
v 0.588560 -0.789893 5.451471
vn 0.207912 -0.978148 0.000000
f 1282//428 1283//428 1284//428
v 0.517213 -0.805058 5.113529
v 0.481868 -0.638773 5.113529
v 0.677498 -0.597190 5.338529
vn 0.731077 0.155395 -0.664364
f 1285//429 1286//429 1287//429
v 0.517213 -0.805058 5.113529
v 0.677498 -0.597190 5.338529
v 0.712843 -0.763475 5.338529
vn 0.731077 0.155395 -0.664364
f 1288//430 1289//430 1290//430
v 0.481868 -0.638773 5.113529
v 0.357585 -0.665190 5.226471
v 0.553215 -0.623608 5.451471
vn -0.207912 0.978148 -0.000000
f 1291//431 1292//431 1293//431
v 0.481868 -0.638773 5.113529
v 0.553215 -0.623608 5.451471
v 0.677498 -0.597190 5.338529
vn -0.207912 0.978148 -0.000000
f 1294//432 1295//432 1296//432
v 0.698499 -0.592726 5.395000
v 0.733844 -0.759012 5.395000
v 0.567559 -0.794357 5.395000
vn 0.000000 -0.000000 -1.000000
f 1297//433 1298//433 1299//433
v 0.698499 -0.592726 5.395000
v 0.567559 -0.794357 5.395000
v 0.532214 -0.628071 5.395000
vn 0.000000 0.000000 -1.000000
f 1300//434 1301//434 1302//434
v 0.698499 -0.592726 6.370000
v 0.532214 -0.628071 6.370000
v 0.567559 -0.794357 6.370000
vn 0.000000 0.000000 1.000000
f 1303//435 1304//435 1305//435
v 0.698499 -0.592726 6.370000
v 0.567559 -0.794357 6.370000
v 0.733844 -0.759012 6.370000
vn 0.000000 0.000000 1.000000
f 1306//436 1307//436 1308//436
v 0.698499 -0.592726 5.395000
v 0.532214 -0.628071 5.395000
v 0.532214 -0.628071 6.370000
vn -0.207912 0.978148 0.000000
f 1309//437 1310//437 1311//437
v 0.698499 -0.592726 5.395000
v 0.532214 -0.628071 6.370000
v 0.698499 -0.592726 6.370000
vn -0.207912 0.978148 0.000000
f 1312//438 1313//438 1314//438
v 0.532214 -0.628071 5.395000
v 0.567559 -0.794357 5.395000
v 0.567559 -0.794357 6.370000
vn -0.978148 -0.207912 0.000000
f 1315//439 1316//439 1317//439
v 0.532214 -0.628071 5.395000
v 0.567559 -0.794357 6.370000
v 0.532214 -0.628071 6.370000
vn -0.978148 -0.207912 0.000000
f 1318//440 1319//440 1320//440
v 0.567559 -0.794357 5.395000
v 0.733844 -0.759012 5.395000
v 0.733844 -0.759012 6.370000
vn 0.207912 -0.978148 0.000000
f 1321//441 1322//441 1323//441
v 0.567559 -0.794357 5.395000
v 0.733844 -0.759012 6.370000
v 0.567559 -0.794357 6.370000
vn 0.207912 -0.978148 0.000000
f 1324//442 1325//442 1326//442
v 0.733844 -0.759012 5.395000
v 0.698499 -0.592726 5.395000
v 0.698499 -0.592726 6.370000
vn 0.978148 0.207912 0.000000
f 1327//443 1328//443 1329//443
v 0.733844 -0.759012 5.395000
v 0.698499 -0.592726 6.370000
v 0.733844 -0.759012 6.370000
vn 0.978148 0.207912 -0.000000
f 1330//444 1331//444 1332//444
v 0.790243 -0.230742 6.370000
v 0.825588 -0.397027 6.370000
v 0.991873 -0.361682 6.370000
vn 0.000000 0.000000 1.000000
f 1333//445 1334//445 1335//445
v 0.790243 -0.230742 6.370000
v 0.991873 -0.361682 6.370000
v 0.956528 -0.195397 6.370000
vn -0.000000 0.000000 1.000000
f 1336//446 1337//446 1338//446
v 0.790243 -0.230742 5.395000
v 0.956528 -0.195397 5.395000
v 0.991873 -0.361682 5.395000
vn 0.000000 0.000000 -1.000000
f 1339//447 1340//447 1341//447
v 0.790243 -0.230742 5.395000
v 0.991873 -0.361682 5.395000
v 0.825588 -0.397027 5.395000
vn 0.000000 0.000000 -1.000000
f 1342//448 1343//448 1344//448
v 0.790243 -0.230742 6.370000
v 0.956528 -0.195397 6.370000
v 0.956528 -0.195397 5.395000
vn -0.207912 0.978148 0.000000
f 1345//449 1346//449 1347//449
v 0.790243 -0.230742 6.370000
v 0.956528 -0.195397 5.395000
v 0.790243 -0.230742 5.395000
vn -0.207912 0.978148 0.000000
f 1348//450 1349//450 1350//450
v 0.956528 -0.195397 6.370000
v 0.991873 -0.361682 6.370000
v 0.991873 -0.361682 5.395000
vn 0.978148 0.207912 0.000000
f 1351//451 1352//451 1353//451
v 0.956528 -0.195397 6.370000
v 0.991873 -0.361682 5.395000
v 0.956528 -0.195397 5.395000
vn 0.978148 0.207912 0.000000
f 1354//452 1355//452 1356//452
v 0.991873 -0.361682 6.370000
v 0.825588 -0.397027 6.370000
v 0.825588 -0.397027 5.395000
vn 0.207912 -0.978148 0.000000
f 1357//453 1358//453 1359//453
v 0.991873 -0.361682 6.370000
v 0.825588 -0.397027 5.395000
v 0.991873 -0.361682 5.395000
vn 0.207912 -0.978148 0.000000
f 1360//454 1361//454 1362//454
v 0.825588 -0.397027 6.370000
v 0.790243 -0.230742 6.370000
v 0.790243 -0.230742 5.395000
vn -0.978148 -0.207912 0.000000
f 1363//455 1364//455 1365//455
v 0.825588 -0.397027 6.370000
v 0.790243 -0.230742 5.395000
v 0.825588 -0.397027 5.395000
vn -0.978148 -0.207912 -0.000000
f 1366//456 1367//456 1368//456
v 0.794706 -0.251743 5.451471
v 0.821124 -0.376026 5.338529
v 0.987409 -0.340681 5.338529
vn 0.138129 -0.649846 0.747409
f 1369//457 1370//457 1371//457
v 0.794706 -0.251743 5.451471
v 0.987409 -0.340681 5.338529
v 0.960992 -0.216398 5.451471
vn 0.138129 -0.649846 0.747409
f 1372//458 1373//458 1374//458
v 0.753124 -0.056113 5.226471
v 0.919409 -0.020768 5.226471
v 0.945826 -0.145051 5.113529
vn -0.138129 0.649846 -0.747409
f 1375//459 1376//459 1377//459
v 0.753124 -0.056113 5.226471
v 0.945826 -0.145051 5.113529
v 0.779541 -0.180396 5.113529
vn -0.138129 0.649846 -0.747409
f 1378//460 1379//460 1380//460
v 0.794706 -0.251743 5.451471
v 0.960992 -0.216398 5.451471
v 0.919409 -0.020768 5.226471
vn -0.155395 0.731077 0.664364
f 1381//461 1382//461 1383//461
v 0.794706 -0.251743 5.451471
v 0.919409 -0.020768 5.226471
v 0.753124 -0.056113 5.226471
vn -0.155395 0.731077 0.664364
f 1384//462 1385//462 1386//462
v 0.960992 -0.216398 5.451471
v 0.987409 -0.340681 5.338529
v 0.945826 -0.145051 5.113529
vn 0.978148 0.207912 -0.000000
f 1387//463 1388//463 1389//463
v 0.960992 -0.216398 5.451471
v 0.945826 -0.145051 5.113529
v 0.919409 -0.020768 5.226471
vn 0.978148 0.207912 -0.000000
f 1390//464 1391//464 1392//464
v 0.987409 -0.340681 5.338529
v 0.821124 -0.376026 5.338529
v 0.779541 -0.180396 5.113529
vn 0.155395 -0.731077 -0.664364
f 1393//465 1394//465 1395//465
v 0.987409 -0.340681 5.338529
v 0.779541 -0.180396 5.113529
v 0.945826 -0.145051 5.113529
vn 0.155395 -0.731077 -0.664364
f 1396//466 1397//466 1398//466
v 0.821124 -0.376026 5.338529
v 0.794706 -0.251743 5.451471
v 0.753124 -0.056113 5.226471
vn -0.978148 -0.207912 0.000000
f 1399//467 1400//467 1401//467
v 0.821124 -0.376026 5.338529
v 0.753124 -0.056113 5.226471
v 0.779541 -0.180396 5.113529
vn -0.978148 -0.207912 0.000000
f 1402//468 1403//468 1404//468
v 0.766333 -0.118255 5.255000
v 0.766333 -0.118255 5.085000
v 0.932618 -0.082910 5.085000
vn 0.207912 -0.978148 0.000000
f 1405//469 1406//469 1407//469
v 0.766333 -0.118255 5.255000
v 0.932618 -0.082910 5.085000
v 0.932618 -0.082910 5.255000
vn 0.207912 -0.978148 0.000000
f 1408//470 1409//470 1410//470
v 0.651981 0.419727 5.255000
v 0.818266 0.455072 5.255000
v 0.818266 0.455072 5.085000
vn -0.207912 0.978148 0.000000
f 1411//471 1412//471 1413//471
v 0.651981 0.419727 5.255000
v 0.818266 0.455072 5.085000
v 0.651981 0.419727 5.085000
vn -0.207912 0.978148 0.000000
f 1414//472 1415//472 1416//472
v 0.766333 -0.118255 5.255000
v 0.932618 -0.082910 5.255000
v 0.818266 0.455072 5.255000
vn 0.000000 0.000000 1.000000
f 1417//473 1418//473 1419//473
v 0.766333 -0.118255 5.255000
v 0.818266 0.455072 5.255000
v 0.651981 0.419727 5.255000
vn 0.000000 -0.000000 1.000000
f 1420//474 1421//474 1422//474
v 0.932618 -0.082910 5.255000
v 0.932618 -0.082910 5.085000
v 0.818266 0.455072 5.085000
vn 0.978148 0.207912 0.000000
f 1423//475 1424//475 1425//475
v 0.932618 -0.082910 5.255000
v 0.818266 0.455072 5.085000
v 0.818266 0.455072 5.255000
vn 0.978148 0.207912 0.000000
f 1426//476 1427//476 1428//476
v 0.932618 -0.082910 5.085000
v 0.766333 -0.118255 5.085000
v 0.651981 0.419727 5.085000
vn -0.000000 0.000000 -1.000000
f 1429//477 1430//477 1431//477
v 0.932618 -0.082910 5.085000
v 0.651981 0.419727 5.085000
v 0.818266 0.455072 5.085000
vn 0.000000 0.000000 -1.000000
f 1432//478 1433//478 1434//478
v 0.766333 -0.118255 5.085000
v 0.766333 -0.118255 5.255000
v 0.651981 0.419727 5.255000
vn -0.978148 -0.207912 0.000000
f 1435//479 1436//479 1437//479
v 0.766333 -0.118255 5.085000
v 0.651981 0.419727 5.255000
v 0.651981 0.419727 5.085000
vn -0.978148 -0.207912 0.000000
f 1438//480 1439//480 1440//480
v 0.665190 0.357585 5.226471
v 0.638773 0.481868 5.113529
v 0.805058 0.517213 5.113529
vn 0.138129 -0.649846 -0.747409
f 1441//481 1442//481 1443//481
v 0.665190 0.357585 5.226471
v 0.805058 0.517213 5.113529
v 0.831475 0.392930 5.226471
vn 0.138129 -0.649846 -0.747409
f 1444//482 1445//482 1446//482
v 0.623608 0.553215 5.451471
v 0.789893 0.588560 5.451471
v 0.763475 0.712843 5.338529
vn -0.138129 0.649846 0.747409
f 1447//483 1448//483 1449//483
v 0.623608 0.553215 5.451471
v 0.763475 0.712843 5.338529
v 0.597190 0.677498 5.338529
vn -0.138129 0.649846 0.747409
f 1450//484 1451//484 1452//484
v 0.665190 0.357585 5.226471
v 0.831475 0.392930 5.226471
v 0.789893 0.588560 5.451471
vn 0.155395 -0.731077 0.664364
f 1453//485 1454//485 1455//485
v 0.665190 0.357585 5.226471
v 0.789893 0.588560 5.451471
v 0.623608 0.553215 5.451471
vn 0.155395 -0.731077 0.664364
f 1456//486 1457//486 1458//486
v 0.831475 0.392930 5.226471
v 0.805058 0.517213 5.113529
v 0.763475 0.712843 5.338529
vn 0.978148 0.207912 0.000000
f 1459//487 1460//487 1461//487
v 0.831475 0.392930 5.226471
v 0.763475 0.712843 5.338529
v 0.789893 0.588560 5.451471
vn 0.978148 0.207912 0.000000
f 1462//488 1463//488 1464//488
v 0.805058 0.517213 5.113529
v 0.638773 0.481868 5.113529
v 0.597190 0.677498 5.338529
vn -0.155395 0.731077 -0.664364
f 1465//489 1466//489 1467//489
v 0.805058 0.517213 5.113529
v 0.597190 0.677498 5.338529
v 0.763475 0.712843 5.338529
vn -0.155395 0.731077 -0.664364
f 1468//490 1469//490 1470//490
v 0.638773 0.481868 5.113529
v 0.665190 0.357585 5.226471
v 0.623608 0.553215 5.451471
vn -0.978148 -0.207912 -0.000000
f 1471//491 1472//491 1473//491
v 0.638773 0.481868 5.113529
v 0.623608 0.553215 5.451471
v 0.597190 0.677498 5.338529
vn -0.978148 -0.207912 -0.000000
f 1474//492 1475//492 1476//492
v 0.759012 0.733844 5.395000
v 0.794357 0.567559 5.395000
v 0.628071 0.532214 5.395000
vn 0.000000 -0.000000 -1.000000
f 1477//493 1478//493 1479//493
v 0.759012 0.733844 5.395000
v 0.628071 0.532214 5.395000
v 0.592726 0.698499 5.395000
vn 0.000000 0.000000 -1.000000
f 1480//494 1481//494 1482//494
v 0.759012 0.733844 6.370000
v 0.592726 0.698499 6.370000
v 0.628071 0.532214 6.370000
vn 0.000000 0.000000 1.000000
f 1483//495 1484//495 1485//495
v 0.759012 0.733844 6.370000
v 0.628071 0.532214 6.370000
v 0.794357 0.567559 6.370000
vn 0.000000 0.000000 1.000000
f 1486//496 1487//496 1488//496
v 0.759012 0.733844 5.395000
v 0.592726 0.698499 5.395000
v 0.592726 0.698499 6.370000
vn -0.207912 0.978148 0.000000
f 1489//497 1490//497 1491//497
v 0.759012 0.733844 5.395000
v 0.592726 0.698499 6.370000
v 0.759012 0.733844 6.370000
vn -0.207912 0.978148 0.000000
f 1492//498 1493//498 1494//498
v 0.592726 0.698499 5.395000
v 0.628071 0.532214 5.395000
v 0.628071 0.532214 6.370000
vn -0.978148 -0.207912 0.000000
f 1495//499 1496//499 1497//499
v 0.592726 0.698499 5.395000
v 0.628071 0.532214 6.370000
v 0.592726 0.698499 6.370000
vn -0.978148 -0.207912 0.000000
f 1498//500 1499//500 1500//500
v 0.628071 0.532214 5.395000
v 0.794357 0.567559 5.395000
v 0.794357 0.567559 6.370000
vn 0.207912 -0.978148 0.000000
f 1501//501 1502//501 1503//501
v 0.628071 0.532214 5.395000
v 0.794357 0.567559 6.370000
v 0.628071 0.532214 6.370000
vn 0.207912 -0.978148 0.000000
f 1504//502 1505//502 1506//502
v 0.794357 0.567559 5.395000
v 0.759012 0.733844 5.395000
v 0.759012 0.733844 6.370000
vn 0.978148 0.207912 0.000000
f 1507//503 1508//503 1509//503
v 0.794357 0.567559 5.395000
v 0.759012 0.733844 6.370000
v 0.794357 0.567559 6.370000
vn 0.978148 0.207912 -0.000000
f 1510//504 1511//504 1512//504
