# First-party deterministic geometry; units: metres.
mtllib ivory.mtl
o geometry
usemtl surface
v -21.675000 20.880000 1.050000
v -21.675000 20.920000 1.050000
v -21.625000 20.920000 1.050000
vn 0.000000 0.000000 -1.000000
f 1//1 2//1 3//1
v -21.675000 20.880000 1.050000
v -21.625000 20.920000 1.050000
v -21.625000 20.880000 1.050000
vn 0.000000 0.000000 -1.000000
f 4//2 5//2 6//2
v -21.675000 20.880000 3.950000
v -21.625000 20.880000 3.950000
v -21.625000 20.920000 3.950000
vn 0.000000 0.000000 1.000000
f 7//3 8//3 9//3
v -21.675000 20.880000 3.950000
v -21.625000 20.920000 3.950000
v -21.675000 20.920000 3.950000
vn 0.000000 0.000000 1.000000
f 10//4 11//4 12//4
v -21.675000 20.880000 1.050000
v -21.625000 20.880000 1.050000
v -21.625000 20.880000 3.950000
vn 0.000000 -1.000000 0.000000
f 13//5 14//5 15//5
v -21.675000 20.880000 1.050000
v -21.625000 20.880000 3.950000
v -21.675000 20.880000 3.950000
vn 0.000000 -1.000000 0.000000
f 16//6 17//6 18//6
v -21.625000 20.880000 1.050000
v -21.625000 20.920000 1.050000
v -21.625000 20.920000 3.950000
vn 1.000000 0.000000 0.000000
f 19//7 20//7 21//7
v -21.625000 20.880000 1.050000
v -21.625000 20.920000 3.950000
v -21.625000 20.880000 3.950000
vn 1.000000 0.000000 0.000000
f 22//8 23//8 24//8
v -21.625000 20.920000 1.050000
v -21.675000 20.920000 1.050000
v -21.675000 20.920000 3.950000
vn 0.000000 1.000000 0.000000
f 25//9 26//9 27//9
v -21.625000 20.920000 1.050000
v -21.675000 20.920000 3.950000
v -21.625000 20.920000 3.950000
vn 0.000000 1.000000 -0.000000
f 28//10 29//10 30//10
v -21.675000 20.920000 1.050000
v -21.675000 20.880000 1.050000
v -21.675000 20.880000 3.950000
vn -1.000000 0.000000 0.000000
f 31//11 32//11 33//11
v -21.675000 20.920000 1.050000
v -21.675000 20.880000 3.950000
v -21.675000 20.920000 3.950000
vn -1.000000 0.000000 0.000000
f 34//12 35//12 36//12
v -21.675000 20.880000 5.150000
v -21.675000 20.920000 5.150000
v -21.625000 20.920000 5.150000
vn 0.000000 0.000000 -1.000000
f 37//13 38//13 39//13
v -21.675000 20.880000 5.150000
v -21.625000 20.920000 5.150000
v -21.625000 20.880000 5.150000
vn 0.000000 0.000000 -1.000000
f 40//14 41//14 42//14
v -21.675000 20.880000 8.050000
v -21.625000 20.880000 8.050000
v -21.625000 20.920000 8.050000
vn 0.000000 0.000000 1.000000
f 43//15 44//15 45//15
v -21.675000 20.880000 8.050000
v -21.625000 20.920000 8.050000
v -21.675000 20.920000 8.050000
vn 0.000000 0.000000 1.000000
f 46//16 47//16 48//16
v -21.675000 20.880000 5.150000
v -21.625000 20.880000 5.150000
v -21.625000 20.880000 8.050000
vn 0.000000 -1.000000 0.000000
f 49//17 50//17 51//17
v -21.675000 20.880000 5.150000
v -21.625000 20.880000 8.050000
v -21.675000 20.880000 8.050000
vn 0.000000 -1.000000 0.000000
f 52//18 53//18 54//18
v -21.625000 20.880000 5.150000
v -21.625000 20.920000 5.150000
v -21.625000 20.920000 8.050000
vn 1.000000 0.000000 0.000000
f 55//19 56//19 57//19
v -21.625000 20.880000 5.150000
v -21.625000 20.920000 8.050000
v -21.625000 20.880000 8.050000
vn 1.000000 0.000000 0.000000
f 58//20 59//20 60//20
v -21.625000 20.920000 5.150000
v -21.675000 20.920000 5.150000
v -21.675000 20.920000 8.050000
vn 0.000000 1.000000 0.000000
f 61//21 62//21 63//21
v -21.625000 20.920000 5.150000
v -21.675000 20.920000 8.050000
v -21.625000 20.920000 8.050000
vn 0.000000 1.000000 -0.000000
f 64//22 65//22 66//22
v -21.675000 20.920000 5.150000
v -21.675000 20.880000 5.150000
v -21.675000 20.880000 8.050000
vn -1.000000 0.000000 0.000000
f 67//23 68//23 69//23
v -21.675000 20.920000 5.150000
v -21.675000 20.880000 8.050000
v -21.675000 20.920000 8.050000
vn -1.000000 0.000000 0.000000
f 70//24 71//24 72//24
v -18.675000 20.880000 1.050000
v -18.675000 20.920000 1.050000
v -18.625000 20.920000 1.050000
vn 0.000000 0.000000 -1.000000
f 73//25 74//25 75//25
v -18.675000 20.880000 1.050000
v -18.625000 20.920000 1.050000
v -18.625000 20.880000 1.050000
vn 0.000000 0.000000 -1.000000
f 76//26 77//26 78//26
v -18.675000 20.880000 3.950000
v -18.625000 20.880000 3.950000
v -18.625000 20.920000 3.950000
vn 0.000000 0.000000 1.000000
f 79//27 80//27 81//27
v -18.675000 20.880000 3.950000
v -18.625000 20.920000 3.950000
v -18.675000 20.920000 3.950000
vn 0.000000 0.000000 1.000000
f 82//28 83//28 84//28
v -18.675000 20.880000 1.050000
v -18.625000 20.880000 1.050000
v -18.625000 20.880000 3.950000
vn 0.000000 -1.000000 0.000000
f 85//29 86//29 87//29
v -18.675000 20.880000 1.050000
v -18.625000 20.880000 3.950000
v -18.675000 20.880000 3.950000
vn 0.000000 -1.000000 0.000000
f 88//30 89//30 90//30
v -18.625000 20.880000 1.050000
v -18.625000 20.920000 1.050000
v -18.625000 20.920000 3.950000
vn 1.000000 0.000000 0.000000
f 91//31 92//31 93//31
v -18.625000 20.880000 1.050000
v -18.625000 20.920000 3.950000
v -18.625000 20.880000 3.950000
vn 1.000000 0.000000 0.000000
f 94//32 95//32 96//32
v -18.625000 20.920000 1.050000
v -18.675000 20.920000 1.050000
v -18.675000 20.920000 3.950000
vn 0.000000 1.000000 0.000000
f 97//33 98//33 99//33
v -18.625000 20.920000 1.050000
v -18.675000 20.920000 3.950000
v -18.625000 20.920000 3.950000
vn 0.000000 1.000000 -0.000000
f 100//34 101//34 102//34
v -18.675000 20.920000 1.050000
v -18.675000 20.880000 1.050000
v -18.675000 20.880000 3.950000
vn -1.000000 0.000000 0.000000
f 103//35 104//35 105//35
v -18.675000 20.920000 1.050000
v -18.675000 20.880000 3.950000
v -18.675000 20.920000 3.950000
vn -1.000000 0.000000 0.000000
f 106//36 107//36 108//36
v -18.675000 20.880000 5.150000
v -18.675000 20.920000 5.150000
v -18.625000 20.920000 5.150000
vn 0.000000 0.000000 -1.000000
f 109//37 110//37 111//37
v -18.675000 20.880000 5.150000
v -18.625000 20.920000 5.150000
v -18.625000 20.880000 5.150000
vn 0.000000 0.000000 -1.000000
f 112//38 113//38 114//38
v -18.675000 20.880000 8.050000
v -18.625000 20.880000 8.050000
v -18.625000 20.920000 8.050000
vn 0.000000 0.000000 1.000000
f 115//39 116//39 117//39
v -18.675000 20.880000 8.050000
v -18.625000 20.920000 8.050000
v -18.675000 20.920000 8.050000
vn 0.000000 0.000000 1.000000
f 118//40 119//40 120//40
v -18.675000 20.880000 5.150000
v -18.625000 20.880000 5.150000
v -18.625000 20.880000 8.050000
vn 0.000000 -1.000000 0.000000
f 121//41 122//41 123//41
v -18.675000 20.880000 5.150000
v -18.625000 20.880000 8.050000
v -18.675000 20.880000 8.050000
vn 0.000000 -1.000000 0.000000
f 124//42 125//42 126//42
v -18.625000 20.880000 5.150000
v -18.625000 20.920000 5.150000
v -18.625000 20.920000 8.050000
vn 1.000000 0.000000 0.000000
f 127//43 128//43 129//43
v -18.625000 20.880000 5.150000
v -18.625000 20.920000 8.050000
v -18.625000 20.880000 8.050000
vn 1.000000 0.000000 0.000000
f 130//44 131//44 132//44
v -18.625000 20.920000 5.150000
v -18.675000 20.920000 5.150000
v -18.675000 20.920000 8.050000
vn 0.000000 1.000000 0.000000
f 133//45 134//45 135//45
v -18.625000 20.920000 5.150000
v -18.675000 20.920000 8.050000
v -18.625000 20.920000 8.050000
vn 0.000000 1.000000 -0.000000
f 136//46 137//46 138//46
v -18.675000 20.920000 5.150000
v -18.675000 20.880000 5.150000
v -18.675000 20.880000 8.050000
vn -1.000000 0.000000 0.000000
f 139//47 140//47 141//47
v -18.675000 20.920000 5.150000
v -18.675000 20.880000 8.050000
v -18.675000 20.920000 8.050000
vn -1.000000 0.000000 0.000000
f 142//48 143//48 144//48
v -15.675000 20.880000 1.050000
v -15.675000 20.920000 1.050000
v -15.625000 20.920000 1.050000
vn 0.000000 0.000000 -1.000000
f 145//49 146//49 147//49
v -15.675000 20.880000 1.050000
v -15.625000 20.920000 1.050000
v -15.625000 20.880000 1.050000
vn 0.000000 0.000000 -1.000000
f 148//50 149//50 150//50
v -15.675000 20.880000 3.950000
v -15.625000 20.880000 3.950000
v -15.625000 20.920000 3.950000
vn 0.000000 0.000000 1.000000
f 151//51 152//51 153//51
v -15.675000 20.880000 3.950000
v -15.625000 20.920000 3.950000
v -15.675000 20.920000 3.950000
vn 0.000000 0.000000 1.000000
f 154//52 155//52 156//52
v -15.675000 20.880000 1.050000
v -15.625000 20.880000 1.050000
v -15.625000 20.880000 3.950000
vn 0.000000 -1.000000 0.000000
f 157//53 158//53 159//53
v -15.675000 20.880000 1.050000
v -15.625000 20.880000 3.950000
v -15.675000 20.880000 3.950000
vn 0.000000 -1.000000 0.000000
f 160//54 161//54 162//54
v -15.625000 20.880000 1.050000
v -15.625000 20.920000 1.050000
v -15.625000 20.920000 3.950000
vn 1.000000 0.000000 0.000000
f 163//55 164//55 165//55
v -15.625000 20.880000 1.050000
v -15.625000 20.920000 3.950000
v -15.625000 20.880000 3.950000
vn 1.000000 0.000000 0.000000
f 166//56 167//56 168//56
v -15.625000 20.920000 1.050000
v -15.675000 20.920000 1.050000
v -15.675000 20.920000 3.950000
vn 0.000000 1.000000 0.000000
f 169//57 170//57 171//57
v -15.625000 20.920000 1.050000
v -15.675000 20.920000 3.950000
v -15.625000 20.920000 3.950000
vn 0.000000 1.000000 -0.000000
f 172//58 173//58 174//58
v -15.675000 20.920000 1.050000
v -15.675000 20.880000 1.050000
v -15.675000 20.880000 3.950000
vn -1.000000 0.000000 0.000000
f 175//59 176//59 177//59
v -15.675000 20.920000 1.050000
v -15.675000 20.880000 3.950000
v -15.675000 20.920000 3.950000
vn -1.000000 0.000000 0.000000
f 178//60 179//60 180//60
v -15.675000 20.880000 5.150000
v -15.675000 20.920000 5.150000
v -15.625000 20.920000 5.150000
vn 0.000000 0.000000 -1.000000
f 181//61 182//61 183//61
v -15.675000 20.880000 5.150000
v -15.625000 20.920000 5.150000
v -15.625000 20.880000 5.150000
vn 0.000000 0.000000 -1.000000
f 184//62 185//62 186//62
v -15.675000 20.880000 8.050000
v -15.625000 20.880000 8.050000
v -15.625000 20.920000 8.050000
vn 0.000000 0.000000 1.000000
f 187//63 188//63 189//63
v -15.675000 20.880000 8.050000
v -15.625000 20.920000 8.050000
v -15.675000 20.920000 8.050000
vn 0.000000 0.000000 1.000000
f 190//64 191//64 192//64
v -15.675000 20.880000 5.150000
v -15.625000 20.880000 5.150000
v -15.625000 20.880000 8.050000
vn 0.000000 -1.000000 0.000000
f 193//65 194//65 195//65
v -15.675000 20.880000 5.150000
v -15.625000 20.880000 8.050000
v -15.675000 20.880000 8.050000
vn 0.000000 -1.000000 0.000000
f 196//66 197//66 198//66
v -15.625000 20.880000 5.150000
v -15.625000 20.920000 5.150000
v -15.625000 20.920000 8.050000
vn 1.000000 0.000000 0.000000
f 199//67 200//67 201//67
v -15.625000 20.880000 5.150000
v -15.625000 20.920000 8.050000
v -15.625000 20.880000 8.050000
vn 1.000000 0.000000 0.000000
f 202//68 203//68 204//68
v -15.625000 20.920000 5.150000
v -15.675000 20.920000 5.150000
v -15.675000 20.920000 8.050000
vn 0.000000 1.000000 0.000000
f 205//69 206//69 207//69
v -15.625000 20.920000 5.150000
v -15.675000 20.920000 8.050000
v -15.625000 20.920000 8.050000
vn 0.000000 1.000000 -0.000000
f 208//70 209//70 210//70
v -15.675000 20.920000 5.150000
v -15.675000 20.880000 5.150000
v -15.675000 20.880000 8.050000
vn -1.000000 0.000000 0.000000
f 211//71 212//71 213//71
v -15.675000 20.920000 5.150000
v -15.675000 20.880000 8.050000
v -15.675000 20.920000 8.050000
vn -1.000000 0.000000 0.000000
f 214//72 215//72 216//72
v -12.675000 20.880000 1.050000
v -12.675000 20.920000 1.050000
v -12.625000 20.920000 1.050000
vn 0.000000 0.000000 -1.000000
f 217//73 218//73 219//73
v -12.675000 20.880000 1.050000
v -12.625000 20.920000 1.050000
v -12.625000 20.880000 1.050000
vn 0.000000 0.000000 -1.000000
f 220//74 221//74 222//74
v -12.675000 20.880000 3.950000
v -12.625000 20.880000 3.950000
v -12.625000 20.920000 3.950000
vn 0.000000 0.000000 1.000000
f 223//75 224//75 225//75
v -12.675000 20.880000 3.950000
v -12.625000 20.920000 3.950000
v -12.675000 20.920000 3.950000
vn 0.000000 0.000000 1.000000
f 226//76 227//76 228//76
v -12.675000 20.880000 1.050000
v -12.625000 20.880000 1.050000
v -12.625000 20.880000 3.950000
vn 0.000000 -1.000000 0.000000
f 229//77 230//77 231//77
v -12.675000 20.880000 1.050000
v -12.625000 20.880000 3.950000
v -12.675000 20.880000 3.950000
vn 0.000000 -1.000000 0.000000
f 232//78 233//78 234//78
v -12.625000 20.880000 1.050000
v -12.625000 20.920000 1.050000
v -12.625000 20.920000 3.950000
vn 1.000000 0.000000 0.000000
f 235//79 236//79 237//79
v -12.625000 20.880000 1.050000
v -12.625000 20.920000 3.950000
v -12.625000 20.880000 3.950000
vn 1.000000 0.000000 0.000000
f 238//80 239//80 240//80
v -12.625000 20.920000 1.050000
v -12.675000 20.920000 1.050000
v -12.675000 20.920000 3.950000
vn 0.000000 1.000000 0.000000
f 241//81 242//81 243//81
v -12.625000 20.920000 1.050000
v -12.675000 20.920000 3.950000
v -12.625000 20.920000 3.950000
vn 0.000000 1.000000 -0.000000
f 244//82 245//82 246//82
v -12.675000 20.920000 1.050000
v -12.675000 20.880000 1.050000
v -12.675000 20.880000 3.950000
vn -1.000000 0.000000 0.000000
f 247//83 248//83 249//83
v -12.675000 20.920000 1.050000
v -12.675000 20.880000 3.950000
v -12.675000 20.920000 3.950000
vn -1.000000 0.000000 0.000000
f 250//84 251//84 252//84
v -12.675000 20.880000 5.150000
v -12.675000 20.920000 5.150000
v -12.625000 20.920000 5.150000
vn 0.000000 0.000000 -1.000000
f 253//85 254//85 255//85
v -12.675000 20.880000 5.150000
v -12.625000 20.920000 5.150000
v -12.625000 20.880000 5.150000
vn 0.000000 0.000000 -1.000000
f 256//86 257//86 258//86
v -12.675000 20.880000 8.050000
v -12.625000 20.880000 8.050000
v -12.625000 20.920000 8.050000
vn 0.000000 0.000000 1.000000
f 259//87 260//87 261//87
v -12.675000 20.880000 8.050000
v -12.625000 20.920000 8.050000
v -12.675000 20.920000 8.050000
vn 0.000000 0.000000 1.000000
f 262//88 263//88 264//88
v -12.675000 20.880000 5.150000
v -12.625000 20.880000 5.150000
v -12.625000 20.880000 8.050000
vn 0.000000 -1.000000 0.000000
f 265//89 266//89 267//89
v -12.675000 20.880000 5.150000
v -12.625000 20.880000 8.050000
v -12.675000 20.880000 8.050000
vn 0.000000 -1.000000 0.000000
f 268//90 269//90 270//90
v -12.625000 20.880000 5.150000
v -12.625000 20.920000 5.150000
v -12.625000 20.920000 8.050000
vn 1.000000 0.000000 0.000000
f 271//91 272//91 273//91
v -12.625000 20.880000 5.150000
v -12.625000 20.920000 8.050000
v -12.625000 20.880000 8.050000
vn 1.000000 0.000000 0.000000
f 274//92 275//92 276//92
v -12.625000 20.920000 5.150000
v -12.675000 20.920000 5.150000
v -12.675000 20.920000 8.050000
vn 0.000000 1.000000 0.000000
f 277//93 278//93 279//93
v -12.625000 20.920000 5.150000
v -12.675000 20.920000 8.050000
v -12.625000 20.920000 8.050000
vn 0.000000 1.000000 -0.000000
f 280//94 281//94 282//94
v -12.675000 20.920000 5.150000
v -12.675000 20.880000 5.150000
v -12.675000 20.880000 8.050000
vn -1.000000 0.000000 0.000000
f 283//95 284//95 285//95
v -12.675000 20.920000 5.150000
v -12.675000 20.880000 8.050000
v -12.675000 20.920000 8.050000
vn -1.000000 0.000000 0.000000
f 286//96 287//96 288//96
v -9.675000 20.880000 1.050000
v -9.675000 20.920000 1.050000
v -9.625000 20.920000 1.050000
vn 0.000000 0.000000 -1.000000
f 289//97 290//97 291//97
v -9.675000 20.880000 1.050000
v -9.625000 20.920000 1.050000
v -9.625000 20.880000 1.050000
vn 0.000000 0.000000 -1.000000
f 292//98 293//98 294//98
v -9.675000 20.880000 3.950000
v -9.625000 20.880000 3.950000
v -9.625000 20.920000 3.950000
vn 0.000000 0.000000 1.000000
f 295//99 296//99 297//99
v -9.675000 20.880000 3.950000
v -9.625000 20.920000 3.950000
v -9.675000 20.920000 3.950000
vn 0.000000 0.000000 1.000000
f 298//100 299//100 300//100
v -9.675000 20.880000 1.050000
v -9.625000 20.880000 1.050000
v -9.625000 20.880000 3.950000
vn 0.000000 -1.000000 0.000000
f 301//101 302//101 303//101
v -9.675000 20.880000 1.050000
v -9.625000 20.880000 3.950000
v -9.675000 20.880000 3.950000
vn 0.000000 -1.000000 0.000000
f 304//102 305//102 306//102
v -9.625000 20.880000 1.050000
v -9.625000 20.920000 1.050000
v -9.625000 20.920000 3.950000
vn 1.000000 0.000000 0.000000
f 307//103 308//103 309//103
v -9.625000 20.880000 1.050000
v -9.625000 20.920000 3.950000
v -9.625000 20.880000 3.950000
vn 1.000000 0.000000 0.000000
f 310//104 311//104 312//104
v -9.625000 20.920000 1.050000
v -9.675000 20.920000 1.050000
v -9.675000 20.920000 3.950000
vn 0.000000 1.000000 0.000000
f 313//105 314//105 315//105
v -9.625000 20.920000 1.050000
v -9.675000 20.920000 3.950000
v -9.625000 20.920000 3.950000
vn 0.000000 1.000000 -0.000000
f 316//106 317//106 318//106
v -9.675000 20.920000 1.050000
v -9.675000 20.880000 1.050000
v -9.675000 20.880000 3.950000
vn -1.000000 0.000000 0.000000
f 319//107 320//107 321//107
v -9.675000 20.920000 1.050000
v -9.675000 20.880000 3.950000
v -9.675000 20.920000 3.950000
vn -1.000000 0.000000 0.000000
f 322//108 323//108 324//108
v -9.675000 20.880000 5.150000
v -9.675000 20.920000 5.150000
v -9.625000 20.920000 5.150000
vn 0.000000 0.000000 -1.000000
f 325//109 326//109 327//109
v -9.675000 20.880000 5.150000
v -9.625000 20.920000 5.150000
v -9.625000 20.880000 5.150000
vn 0.000000 0.000000 -1.000000
f 328//110 329//110 330//110
v -9.675000 20.880000 8.050000
v -9.625000 20.880000 8.050000
v -9.625000 20.920000 8.050000
vn 0.000000 0.000000 1.000000
f 331//111 332//111 333//111
v -9.675000 20.880000 8.050000
v -9.625000 20.920000 8.050000
v -9.675000 20.920000 8.050000
vn 0.000000 0.000000 1.000000
f 334//112 335//112 336//112
v -9.675000 20.880000 5.150000
v -9.625000 20.880000 5.150000
v -9.625000 20.880000 8.050000
vn 0.000000 -1.000000 0.000000
f 337//113 338//113 339//113
v -9.675000 20.880000 5.150000
v -9.625000 20.880000 8.050000
v -9.675000 20.880000 8.050000
vn 0.000000 -1.000000 0.000000
f 340//114 341//114 342//114
v -9.625000 20.880000 5.150000
v -9.625000 20.920000 5.150000
v -9.625000 20.920000 8.050000
vn 1.000000 0.000000 0.000000
f 343//115 344//115 345//115
v -9.625000 20.880000 5.150000
v -9.625000 20.920000 8.050000
v -9.625000 20.880000 8.050000
vn 1.000000 0.000000 0.000000
f 346//116 347//116 348//116
v -9.625000 20.920000 5.150000
v -9.675000 20.920000 5.150000
v -9.675000 20.920000 8.050000
vn 0.000000 1.000000 0.000000
f 349//117 350//117 351//117
v -9.625000 20.920000 5.150000
v -9.675000 20.920000 8.050000
v -9.625000 20.920000 8.050000
vn 0.000000 1.000000 -0.000000
f 352//118 353//118 354//118
v -9.675000 20.920000 5.150000
v -9.675000 20.880000 5.150000
v -9.675000 20.880000 8.050000
vn -1.000000 0.000000 0.000000
f 355//119 356//119 357//119
v -9.675000 20.920000 5.150000
v -9.675000 20.880000 8.050000
v -9.675000 20.920000 8.050000
vn -1.000000 0.000000 0.000000
f 358//120 359//120 360//120
v -24.250000 20.500000 9.000000
v -24.250000 29.100000 9.000000
v -7.750000 29.100000 9.000000
vn 0.000000 0.000000 -1.000000
f 361//121 362//121 363//121
v -24.250000 20.500000 9.000000
v -7.750000 29.100000 9.000000
v -7.750000 20.500000 9.000000
vn 0.000000 0.000000 -1.000000
f 364//122 365//122 366//122
v -24.250000 20.500000 9.240000
v -7.750000 20.500000 9.240000
v -7.750000 29.100000 9.240000
vn 0.000000 0.000000 1.000000
f 367//123 368//123 369//123
v -24.250000 20.500000 9.240000
v -7.750000 29.100000 9.240000
v -24.250000 29.100000 9.240000
vn 0.000000 0.000000 1.000000
f 370//124 371//124 372//124
v -24.250000 20.500000 9.000000
v -7.750000 20.500000 9.000000
v -7.750000 20.500000 9.240000
vn 0.000000 -1.000000 0.000000
f 373//125 374//125 375//125
v -24.250000 20.500000 9.000000
v -7.750000 20.500000 9.240000
v -24.250000 20.500000 9.240000
vn 0.000000 -1.000000 0.000000
f 376//126 377//126 378//126
v -7.750000 20.500000 9.000000
v -7.750000 29.100000 9.000000
v -7.750000 29.100000 9.240000
vn 1.000000 0.000000 0.000000
f 379//127 380//127 381//127
v -7.750000 20.500000 9.000000
v -7.750000 29.100000 9.240000
v -7.750000 20.500000 9.240000
vn 1.000000 0.000000 0.000000
f 382//128 383//128 384//128
v -7.750000 29.100000 9.000000
v -24.250000 29.100000 9.000000
v -24.250000 29.100000 9.240000
vn 0.000000 1.000000 0.000000
f 385//129 386//129 387//129
v -7.750000 29.100000 9.000000
v -24.250000 29.100000 9.240000
v -7.750000 29.100000 9.240000
vn 0.000000 1.000000 -0.000000
f 388//130 389//130 390//130
v -24.250000 29.100000 9.000000
v -24.250000 20.500000 9.000000
v -24.250000 20.500000 9.240000
vn -1.000000 0.000000 0.000000
f 391//131 392//131 393//131
v -24.250000 29.100000 9.000000
v -24.250000 20.500000 9.240000
v -24.250000 29.100000 9.240000
vn -1.000000 0.000000 0.000000
f 394//132 395//132 396//132
v -3.675000 20.880000 1.050000
v -3.675000 20.920000 1.050000
v -3.625000 20.920000 1.050000
vn 0.000000 0.000000 -1.000000
f 397//133 398//133 399//133
v -3.675000 20.880000 1.050000
v -3.625000 20.920000 1.050000
v -3.625000 20.880000 1.050000
vn 0.000000 0.000000 -1.000000
f 400//134 401//134 402//134
v -3.675000 20.880000 3.950000
v -3.625000 20.880000 3.950000
v -3.625000 20.920000 3.950000
vn 0.000000 0.000000 1.000000
f 403//135 404//135 405//135
v -3.675000 20.880000 3.950000
v -3.625000 20.920000 3.950000
v -3.675000 20.920000 3.950000
vn 0.000000 0.000000 1.000000
f 406//136 407//136 408//136
v -3.675000 20.880000 1.050000
v -3.625000 20.880000 1.050000
v -3.625000 20.880000 3.950000
vn 0.000000 -1.000000 0.000000
f 409//137 410//137 411//137
v -3.675000 20.880000 1.050000
v -3.625000 20.880000 3.950000
v -3.675000 20.880000 3.950000
vn 0.000000 -1.000000 0.000000
f 412//138 413//138 414//138
v -3.625000 20.880000 1.050000
v -3.625000 20.920000 1.050000
v -3.625000 20.920000 3.950000
vn 1.000000 0.000000 0.000000
f 415//139 416//139 417//139
v -3.625000 20.880000 1.050000
v -3.625000 20.920000 3.950000
v -3.625000 20.880000 3.950000
vn 1.000000 0.000000 0.000000
f 418//140 419//140 420//140
v -3.625000 20.920000 1.050000
v -3.675000 20.920000 1.050000
v -3.675000 20.920000 3.950000
vn 0.000000 1.000000 0.000000
f 421//141 422//141 423//141
v -3.625000 20.920000 1.050000
v -3.675000 20.920000 3.950000
v -3.625000 20.920000 3.950000
vn 0.000000 1.000000 -0.000000
f 424//142 425//142 426//142
v -3.675000 20.920000 1.050000
v -3.675000 20.880000 1.050000
v -3.675000 20.880000 3.950000
vn -1.000000 0.000000 0.000000
f 427//143 428//143 429//143
v -3.675000 20.920000 1.050000
v -3.675000 20.880000 3.950000
v -3.675000 20.920000 3.950000
vn -1.000000 0.000000 0.000000
f 430//144 431//144 432//144
v -3.675000 20.880000 5.150000
v -3.675000 20.920000 5.150000
v -3.625000 20.920000 5.150000
vn 0.000000 0.000000 -1.000000
f 433//145 434//145 435//145
v -3.675000 20.880000 5.150000
v -3.625000 20.920000 5.150000
v -3.625000 20.880000 5.150000
vn 0.000000 0.000000 -1.000000
f 436//146 437//146 438//146
v -3.675000 20.880000 8.050000
v -3.625000 20.880000 8.050000
v -3.625000 20.920000 8.050000
vn 0.000000 0.000000 1.000000
f 439//147 440//147 441//147
v -3.675000 20.880000 8.050000
v -3.625000 20.920000 8.050000
v -3.675000 20.920000 8.050000
vn 0.000000 0.000000 1.000000
f 442//148 443//148 444//148
v -3.675000 20.880000 5.150000
v -3.625000 20.880000 5.150000
v -3.625000 20.880000 8.050000
vn 0.000000 -1.000000 0.000000
f 445//149 446//149 447//149
v -3.675000 20.880000 5.150000
v -3.625000 20.880000 8.050000
v -3.675000 20.880000 8.050000
vn 0.000000 -1.000000 0.000000
f 448//150 449//150 450//150
v -3.625000 20.880000 5.150000
v -3.625000 20.920000 5.150000
v -3.625000 20.920000 8.050000
vn 1.000000 0.000000 0.000000
f 451//151 452//151 453//151
v -3.625000 20.880000 5.150000
v -3.625000 20.920000 8.050000
v -3.625000 20.880000 8.050000
vn 1.000000 0.000000 0.000000
f 454//152 455//152 456//152
v -3.625000 20.920000 5.150000
v -3.675000 20.920000 5.150000
v -3.675000 20.920000 8.050000
vn 0.000000 1.000000 0.000000
f 457//153 458//153 459//153
v -3.625000 20.920000 5.150000
v -3.675000 20.920000 8.050000
v -3.625000 20.920000 8.050000
vn 0.000000 1.000000 -0.000000
f 460//154 461//154 462//154
v -3.675000 20.920000 5.150000
v -3.675000 20.880000 5.150000
v -3.675000 20.880000 8.050000
vn -1.000000 0.000000 0.000000
f 463//155 464//155 465//155
v -3.675000 20.920000 5.150000
v -3.675000 20.880000 8.050000
v -3.675000 20.920000 8.050000
vn -1.000000 0.000000 0.000000
f 466//156 467//156 468//156
v -0.675000 20.880000 1.050000
v -0.675000 20.920000 1.050000
v -0.625000 20.920000 1.050000
vn 0.000000 0.000000 -1.000000
f 469//157 470//157 471//157
v -0.675000 20.880000 1.050000
v -0.625000 20.920000 1.050000
v -0.625000 20.880000 1.050000
vn 0.000000 0.000000 -1.000000
f 472//158 473//158 474//158
v -0.675000 20.880000 3.950000
v -0.625000 20.880000 3.950000
v -0.625000 20.920000 3.950000
vn 0.000000 0.000000 1.000000
f 475//159 476//159 477//159
v -0.675000 20.880000 3.950000
v -0.625000 20.920000 3.950000
v -0.675000 20.920000 3.950000
vn 0.000000 0.000000 1.000000
f 478//160 479//160 480//160
v -0.675000 20.880000 1.050000
v -0.625000 20.880000 1.050000
v -0.625000 20.880000 3.950000
vn 0.000000 -1.000000 0.000000
f 481//161 482//161 483//161
v -0.675000 20.880000 1.050000
v -0.625000 20.880000 3.950000
v -0.675000 20.880000 3.950000
vn 0.000000 -1.000000 0.000000
f 484//162 485//162 486//162
v -0.625000 20.880000 1.050000
v -0.625000 20.920000 1.050000
v -0.625000 20.920000 3.950000
vn 1.000000 0.000000 0.000000
f 487//163 488//163 489//163
v -0.625000 20.880000 1.050000
v -0.625000 20.920000 3.950000
v -0.625000 20.880000 3.950000
vn 1.000000 0.000000 0.000000
f 490//164 491//164 492//164
v -0.625000 20.920000 1.050000
v -0.675000 20.920000 1.050000
v -0.675000 20.920000 3.950000
vn 0.000000 1.000000 0.000000
f 493//165 494//165 495//165
v -0.625000 20.920000 1.050000
v -0.675000 20.920000 3.950000
v -0.625000 20.920000 3.950000
vn 0.000000 1.000000 -0.000000
f 496//166 497//166 498//166
v -0.675000 20.920000 1.050000
v -0.675000 20.880000 1.050000
v -0.675000 20.880000 3.950000
vn -1.000000 0.000000 0.000000
f 499//167 500//167 501//167
v -0.675000 20.920000 1.050000
v -0.675000 20.880000 3.950000
v -0.675000 20.920000 3.950000
vn -1.000000 0.000000 0.000000
f 502//168 503//168 504//168
v -0.675000 20.880000 5.150000
v -0.675000 20.920000 5.150000
v -0.625000 20.920000 5.150000
vn 0.000000 0.000000 -1.000000
f 505//169 506//169 507//169
v -0.675000 20.880000 5.150000
v -0.625000 20.920000 5.150000
v -0.625000 20.880000 5.150000
vn 0.000000 0.000000 -1.000000
f 508//170 509//170 510//170
v -0.675000 20.880000 8.050000
v -0.625000 20.880000 8.050000
v -0.625000 20.920000 8.050000
vn 0.000000 0.000000 1.000000
f 511//171 512//171 513//171
v -0.675000 20.880000 8.050000
v -0.625000 20.920000 8.050000
v -0.675000 20.920000 8.050000
vn 0.000000 0.000000 1.000000
f 514//172 515//172 516//172
v -0.675000 20.880000 5.150000
v -0.625000 20.880000 5.150000
v -0.625000 20.880000 8.050000
vn 0.000000 -1.000000 0.000000
f 517//173 518//173 519//173
v -0.675000 20.880000 5.150000
v -0.625000 20.880000 8.050000
v -0.675000 20.880000 8.050000
vn 0.000000 -1.000000 0.000000
f 520//174 521//174 522//174
v -0.625000 20.880000 5.150000
v -0.625000 20.920000 5.150000
v -0.625000 20.920000 8.050000
vn 1.000000 0.000000 0.000000
f 523//175 524//175 525//175
v -0.625000 20.880000 5.150000
v -0.625000 20.920000 8.050000
v -0.625000 20.880000 8.050000
vn 1.000000 0.000000 0.000000
f 526//176 527//176 528//176
v -0.625000 20.920000 5.150000
v -0.675000 20.920000 5.150000
v -0.675000 20.920000 8.050000
vn 0.000000 1.000000 0.000000
f 529//177 530//177 531//177
v -0.625000 20.920000 5.150000
v -0.675000 20.920000 8.050000
v -0.625000 20.920000 8.050000
vn 0.000000 1.000000 -0.000000
f 532//178 533//178 534//178
v -0.675000 20.920000 5.150000
v -0.675000 20.880000 5.150000
v -0.675000 20.880000 8.050000
vn -1.000000 0.000000 0.000000
f 535//179 536//179 537//179
v -0.675000 20.920000 5.150000
v -0.675000 20.880000 8.050000
v -0.675000 20.920000 8.050000
vn -1.000000 0.000000 0.000000
f 538//180 539//180 540//180
v 2.325000 20.880000 1.050000
v 2.325000 20.920000 1.050000
v 2.375000 20.920000 1.050000
vn 0.000000 0.000000 -1.000000
f 541//181 542//181 543//181
v 2.325000 20.880000 1.050000
v 2.375000 20.920000 1.050000
v 2.375000 20.880000 1.050000
vn 0.000000 0.000000 -1.000000
f 544//182 545//182 546//182
v 2.325000 20.880000 3.950000
v 2.375000 20.880000 3.950000
v 2.375000 20.920000 3.950000
vn 0.000000 0.000000 1.000000
f 547//183 548//183 549//183
v 2.325000 20.880000 3.950000
v 2.375000 20.920000 3.950000
v 2.325000 20.920000 3.950000
vn 0.000000 0.000000 1.000000
f 550//184 551//184 552//184
v 2.325000 20.880000 1.050000
v 2.375000 20.880000 1.050000
v 2.375000 20.880000 3.950000
vn 0.000000 -1.000000 0.000000
f 553//185 554//185 555//185
v 2.325000 20.880000 1.050000
v 2.375000 20.880000 3.950000
v 2.325000 20.880000 3.950000
vn 0.000000 -1.000000 0.000000
f 556//186 557//186 558//186
v 2.375000 20.880000 1.050000
v 2.375000 20.920000 1.050000
v 2.375000 20.920000 3.950000
vn 1.000000 0.000000 0.000000
f 559//187 560//187 561//187
v 2.375000 20.880000 1.050000
v 2.375000 20.920000 3.950000
v 2.375000 20.880000 3.950000
vn 1.000000 0.000000 0.000000
f 562//188 563//188 564//188
v 2.375000 20.920000 1.050000
v 2.325000 20.920000 1.050000
v 2.325000 20.920000 3.950000
vn 0.000000 1.000000 0.000000
f 565//189 566//189 567//189
v 2.375000 20.920000 1.050000
v 2.325000 20.920000 3.950000
v 2.375000 20.920000 3.950000
vn 0.000000 1.000000 -0.000000
f 568//190 569//190 570//190
v 2.325000 20.920000 1.050000
v 2.325000 20.880000 1.050000
v 2.325000 20.880000 3.950000
vn -1.000000 0.000000 0.000000
f 571//191 572//191 573//191
v 2.325000 20.920000 1.050000
v 2.325000 20.880000 3.950000
v 2.325000 20.920000 3.950000
vn -1.000000 0.000000 0.000000
f 574//192 575//192 576//192
v 2.325000 20.880000 5.150000
v 2.325000 20.920000 5.150000
v 2.375000 20.920000 5.150000
vn 0.000000 0.000000 -1.000000
f 577//193 578//193 579//193
v 2.325000 20.880000 5.150000
v 2.375000 20.920000 5.150000
v 2.375000 20.880000 5.150000
vn 0.000000 0.000000 -1.000000
f 580//194 581//194 582//194
v 2.325000 20.880000 8.050000
v 2.375000 20.880000 8.050000
v 2.375000 20.920000 8.050000
vn 0.000000 0.000000 1.000000
f 583//195 584//195 585//195
v 2.325000 20.880000 8.050000
v 2.375000 20.920000 8.050000
v 2.325000 20.920000 8.050000
vn 0.000000 0.000000 1.000000
f 586//196 587//196 588//196
v 2.325000 20.880000 5.150000
v 2.375000 20.880000 5.150000
v 2.375000 20.880000 8.050000
vn 0.000000 -1.000000 0.000000
f 589//197 590//197 591//197
v 2.325000 20.880000 5.150000
v 2.375000 20.880000 8.050000
v 2.325000 20.880000 8.050000
vn 0.000000 -1.000000 0.000000
f 592//198 593//198 594//198
v 2.375000 20.880000 5.150000
v 2.375000 20.920000 5.150000
v 2.375000 20.920000 8.050000
vn 1.000000 0.000000 0.000000
f 595//199 596//199 597//199
v 2.375000 20.880000 5.150000
v 2.375000 20.920000 8.050000
v 2.375000 20.880000 8.050000
vn 1.000000 0.000000 0.000000
f 598//200 599//200 600//200
v 2.375000 20.920000 5.150000
v 2.325000 20.920000 5.150000
v 2.325000 20.920000 8.050000
vn 0.000000 1.000000 0.000000
f 601//201 602//201 603//201
v 2.375000 20.920000 5.150000
v 2.325000 20.920000 8.050000
v 2.375000 20.920000 8.050000
vn 0.000000 1.000000 -0.000000
f 604//202 605//202 606//202
v 2.325000 20.920000 5.150000
v 2.325000 20.880000 5.150000
v 2.325000 20.880000 8.050000
vn -1.000000 0.000000 0.000000
f 607//203 608//203 609//203
v 2.325000 20.920000 5.150000
v 2.325000 20.880000 8.050000
v 2.325000 20.920000 8.050000
vn -1.000000 0.000000 0.000000
f 610//204 611//204 612//204
v 5.325000 20.880000 1.050000
v 5.325000 20.920000 1.050000
v 5.375000 20.920000 1.050000
vn 0.000000 0.000000 -1.000000
f 613//205 614//205 615//205
v 5.325000 20.880000 1.050000
v 5.375000 20.920000 1.050000
v 5.375000 20.880000 1.050000
vn 0.000000 0.000000 -1.000000
f 616//206 617//206 618//206
v 5.325000 20.880000 3.950000
v 5.375000 20.880000 3.950000
v 5.375000 20.920000 3.950000
vn 0.000000 0.000000 1.000000
f 619//207 620//207 621//207
v 5.325000 20.880000 3.950000
v 5.375000 20.920000 3.950000
v 5.325000 20.920000 3.950000
vn 0.000000 0.000000 1.000000
f 622//208 623//208 624//208
v 5.325000 20.880000 1.050000
v 5.375000 20.880000 1.050000
v 5.375000 20.880000 3.950000
vn 0.000000 -1.000000 0.000000
f 625//209 626//209 627//209
v 5.325000 20.880000 1.050000
v 5.375000 20.880000 3.950000
v 5.325000 20.880000 3.950000
vn 0.000000 -1.000000 0.000000
f 628//210 629//210 630//210
v 5.375000 20.880000 1.050000
v 5.375000 20.920000 1.050000
v 5.375000 20.920000 3.950000
vn 1.000000 0.000000 0.000000
f 631//211 632//211 633//211
v 5.375000 20.880000 1.050000
v 5.375000 20.920000 3.950000
v 5.375000 20.880000 3.950000
vn 1.000000 0.000000 0.000000
f 634//212 635//212 636//212
v 5.375000 20.920000 1.050000
v 5.325000 20.920000 1.050000
v 5.325000 20.920000 3.950000
vn 0.000000 1.000000 0.000000
f 637//213 638//213 639//213
v 5.375000 20.920000 1.050000
v 5.325000 20.920000 3.950000
v 5.375000 20.920000 3.950000
vn 0.000000 1.000000 -0.000000
f 640//214 641//214 642//214
v 5.325000 20.920000 1.050000
v 5.325000 20.880000 1.050000
v 5.325000 20.880000 3.950000
vn -1.000000 0.000000 0.000000
f 643//215 644//215 645//215
v 5.325000 20.920000 1.050000
v 5.325000 20.880000 3.950000
v 5.325000 20.920000 3.950000
vn -1.000000 0.000000 0.000000
f 646//216 647//216 648//216
v 5.325000 20.880000 5.150000
v 5.325000 20.920000 5.150000
v 5.375000 20.920000 5.150000
vn 0.000000 0.000000 -1.000000
f 649//217 650//217 651//217
v 5.325000 20.880000 5.150000
v 5.375000 20.920000 5.150000
v 5.375000 20.880000 5.150000
vn 0.000000 0.000000 -1.000000
f 652//218 653//218 654//218
v 5.325000 20.880000 8.050000
v 5.375000 20.880000 8.050000
v 5.375000 20.920000 8.050000
vn 0.000000 0.000000 1.000000
f 655//219 656//219 657//219
v 5.325000 20.880000 8.050000
v 5.375000 20.920000 8.050000
v 5.325000 20.920000 8.050000
vn 0.000000 0.000000 1.000000
f 658//220 659//220 660//220
v 5.325000 20.880000 5.150000
v 5.375000 20.880000 5.150000
v 5.375000 20.880000 8.050000
vn 0.000000 -1.000000 0.000000
f 661//221 662//221 663//221
v 5.325000 20.880000 5.150000
v 5.375000 20.880000 8.050000
v 5.325000 20.880000 8.050000
vn 0.000000 -1.000000 0.000000
f 664//222 665//222 666//222
v 5.375000 20.880000 5.150000
v 5.375000 20.920000 5.150000
v 5.375000 20.920000 8.050000
vn 1.000000 0.000000 0.000000
f 667//223 668//223 669//223
v 5.375000 20.880000 5.150000
v 5.375000 20.920000 8.050000
v 5.375000 20.880000 8.050000
vn 1.000000 0.000000 0.000000
f 670//224 671//224 672//224
v 5.375000 20.920000 5.150000
v 5.325000 20.920000 5.150000
v 5.325000 20.920000 8.050000
vn 0.000000 1.000000 0.000000
f 673//225 674//225 675//225
v 5.375000 20.920000 5.150000
v 5.325000 20.920000 8.050000
v 5.375000 20.920000 8.050000
vn 0.000000 1.000000 -0.000000
f 676//226 677//226 678//226
v 5.325000 20.920000 5.150000
v 5.325000 20.880000 5.150000
v 5.325000 20.880000 8.050000
vn -1.000000 0.000000 0.000000
f 679//227 680//227 681//227
v 5.325000 20.920000 5.150000
v 5.325000 20.880000 8.050000
v 5.325000 20.920000 8.050000
vn -1.000000 0.000000 0.000000
f 682//228 683//228 684//228
v 8.325000 20.880000 1.050000
v 8.325000 20.920000 1.050000
v 8.375000 20.920000 1.050000
vn 0.000000 0.000000 -1.000000
f 685//229 686//229 687//229
v 8.325000 20.880000 1.050000
v 8.375000 20.920000 1.050000
v 8.375000 20.880000 1.050000
vn 0.000000 0.000000 -1.000000
f 688//230 689//230 690//230
v 8.325000 20.880000 3.950000
v 8.375000 20.880000 3.950000
v 8.375000 20.920000 3.950000
vn 0.000000 0.000000 1.000000
f 691//231 692//231 693//231
v 8.325000 20.880000 3.950000
v 8.375000 20.920000 3.950000
v 8.325000 20.920000 3.950000
vn 0.000000 0.000000 1.000000
f 694//232 695//232 696//232
v 8.325000 20.880000 1.050000
v 8.375000 20.880000 1.050000
v 8.375000 20.880000 3.950000
vn 0.000000 -1.000000 0.000000
f 697//233 698//233 699//233
v 8.325000 20.880000 1.050000
v 8.375000 20.880000 3.950000
v 8.325000 20.880000 3.950000
vn 0.000000 -1.000000 0.000000
f 700//234 701//234 702//234
v 8.375000 20.880000 1.050000
v 8.375000 20.920000 1.050000
v 8.375000 20.920000 3.950000
vn 1.000000 0.000000 0.000000
f 703//235 704//235 705//235
v 8.375000 20.880000 1.050000
v 8.375000 20.920000 3.950000
v 8.375000 20.880000 3.950000
vn 1.000000 0.000000 0.000000
f 706//236 707//236 708//236
v 8.375000 20.920000 1.050000
v 8.325000 20.920000 1.050000
v 8.325000 20.920000 3.950000
vn 0.000000 1.000000 0.000000
f 709//237 710//237 711//237
v 8.375000 20.920000 1.050000
v 8.325000 20.920000 3.950000
v 8.375000 20.920000 3.950000
vn 0.000000 1.000000 -0.000000
f 712//238 713//238 714//238
v 8.325000 20.920000 1.050000
v 8.325000 20.880000 1.050000
v 8.325000 20.880000 3.950000
vn -1.000000 0.000000 0.000000
f 715//239 716//239 717//239
v 8.325000 20.920000 1.050000
v 8.325000 20.880000 3.950000
v 8.325000 20.920000 3.950000
vn -1.000000 0.000000 0.000000
f 718//240 719//240 720//240
v 8.325000 20.880000 5.150000
v 8.325000 20.920000 5.150000
v 8.375000 20.920000 5.150000
vn 0.000000 0.000000 -1.000000
f 721//241 722//241 723//241
v 8.325000 20.880000 5.150000
v 8.375000 20.920000 5.150000
v 8.375000 20.880000 5.150000
vn 0.000000 0.000000 -1.000000
f 724//242 725//242 726//242
v 8.325000 20.880000 8.050000
v 8.375000 20.880000 8.050000
v 8.375000 20.920000 8.050000
vn 0.000000 0.000000 1.000000
f 727//243 728//243 729//243
v 8.325000 20.880000 8.050000
v 8.375000 20.920000 8.050000
v 8.325000 20.920000 8.050000
vn 0.000000 0.000000 1.000000
f 730//244 731//244 732//244
v 8.325000 20.880000 5.150000
v 8.375000 20.880000 5.150000
v 8.375000 20.880000 8.050000
vn 0.000000 -1.000000 0.000000
f 733//245 734//245 735//245
v 8.325000 20.880000 5.150000
v 8.375000 20.880000 8.050000
v 8.325000 20.880000 8.050000
vn 0.000000 -1.000000 0.000000
f 736//246 737//246 738//246
v 8.375000 20.880000 5.150000
v 8.375000 20.920000 5.150000
v 8.375000 20.920000 8.050000
vn 1.000000 0.000000 0.000000
f 739//247 740//247 741//247
v 8.375000 20.880000 5.150000
v 8.375000 20.920000 8.050000
v 8.375000 20.880000 8.050000
vn 1.000000 0.000000 0.000000
f 742//248 743//248 744//248
v 8.375000 20.920000 5.150000
v 8.325000 20.920000 5.150000
v 8.325000 20.920000 8.050000
vn 0.000000 1.000000 0.000000
f 745//249 746//249 747//249
v 8.375000 20.920000 5.150000
v 8.325000 20.920000 8.050000
v 8.375000 20.920000 8.050000
vn 0.000000 1.000000 -0.000000
f 748//250 749//250 750//250
v 8.325000 20.920000 5.150000
v 8.325000 20.880000 5.150000
v 8.325000 20.880000 8.050000
vn -1.000000 0.000000 0.000000
f 751//251 752//251 753//251
v 8.325000 20.920000 5.150000
v 8.325000 20.880000 8.050000
v 8.325000 20.920000 8.050000
vn -1.000000 0.000000 0.000000
f 754//252 755//252 756//252
v 11.325000 20.880000 1.050000
v 11.325000 20.920000 1.050000
v 11.375000 20.920000 1.050000
vn 0.000000 0.000000 -1.000000
f 757//253 758//253 759//253
v 11.325000 20.880000 1.050000
v 11.375000 20.920000 1.050000
v 11.375000 20.880000 1.050000
vn 0.000000 0.000000 -1.000000
f 760//254 761//254 762//254
v 11.325000 20.880000 3.950000
v 11.375000 20.880000 3.950000
v 11.375000 20.920000 3.950000
vn 0.000000 0.000000 1.000000
f 763//255 764//255 765//255
v 11.325000 20.880000 3.950000
v 11.375000 20.920000 3.950000
v 11.325000 20.920000 3.950000
vn 0.000000 0.000000 1.000000
f 766//256 767//256 768//256
v 11.325000 20.880000 1.050000
v 11.375000 20.880000 1.050000
v 11.375000 20.880000 3.950000
vn 0.000000 -1.000000 0.000000
f 769//257 770//257 771//257
v 11.325000 20.880000 1.050000
v 11.375000 20.880000 3.950000
v 11.325000 20.880000 3.950000
vn 0.000000 -1.000000 0.000000
f 772//258 773//258 774//258
v 11.375000 20.880000 1.050000
v 11.375000 20.920000 1.050000
v 11.375000 20.920000 3.950000
vn 1.000000 0.000000 0.000000
f 775//259 776//259 777//259
v 11.375000 20.880000 1.050000
v 11.375000 20.920000 3.950000
v 11.375000 20.880000 3.950000
vn 1.000000 0.000000 0.000000
f 778//260 779//260 780//260
v 11.375000 20.920000 1.050000
v 11.325000 20.920000 1.050000
v 11.325000 20.920000 3.950000
vn 0.000000 1.000000 0.000000
f 781//261 782//261 783//261
v 11.375000 20.920000 1.050000
v 11.325000 20.920000 3.950000
v 11.375000 20.920000 3.950000
vn 0.000000 1.000000 -0.000000
f 784//262 785//262 786//262
v 11.325000 20.920000 1.050000
v 11.325000 20.880000 1.050000
v 11.325000 20.880000 3.950000
vn -1.000000 0.000000 0.000000
f 787//263 788//263 789//263
v 11.325000 20.920000 1.050000
v 11.325000 20.880000 3.950000
v 11.325000 20.920000 3.950000
vn -1.000000 0.000000 0.000000
f 790//264 791//264 792//264
v 11.325000 20.880000 5.150000
v 11.325000 20.920000 5.150000
v 11.375000 20.920000 5.150000
vn 0.000000 0.000000 -1.000000
f 793//265 794//265 795//265
v 11.325000 20.880000 5.150000
v 11.375000 20.920000 5.150000
v 11.375000 20.880000 5.150000
vn 0.000000 0.000000 -1.000000
f 796//266 797//266 798//266
v 11.325000 20.880000 8.050000
v 11.375000 20.880000 8.050000
v 11.375000 20.920000 8.050000
vn 0.000000 0.000000 1.000000
f 799//267 800//267 801//267
v 11.325000 20.880000 8.050000
v 11.375000 20.920000 8.050000
v 11.325000 20.920000 8.050000
vn 0.000000 0.000000 1.000000
f 802//268 803//268 804//268
v 11.325000 20.880000 5.150000
v 11.375000 20.880000 5.150000
v 11.375000 20.880000 8.050000
vn 0.000000 -1.000000 0.000000
f 805//269 806//269 807//269
v 11.325000 20.880000 5.150000
v 11.375000 20.880000 8.050000
v 11.325000 20.880000 8.050000
vn 0.000000 -1.000000 0.000000
f 808//270 809//270 810//270
v 11.375000 20.880000 5.150000
v 11.375000 20.920000 5.150000
v 11.375000 20.920000 8.050000
vn 1.000000 0.000000 0.000000
f 811//271 812//271 813//271
v 11.375000 20.880000 5.150000
v 11.375000 20.920000 8.050000
v 11.375000 20.880000 8.050000
vn 1.000000 0.000000 0.000000
f 814//272 815//272 816//272
v 11.375000 20.920000 5.150000
v 11.325000 20.920000 5.150000
v 11.325000 20.920000 8.050000
vn 0.000000 1.000000 0.000000
f 817//273 818//273 819//273
v 11.375000 20.920000 5.150000
v 11.325000 20.920000 8.050000
v 11.375000 20.920000 8.050000
vn 0.000000 1.000000 -0.000000
f 820//274 821//274 822//274
v 11.325000 20.920000 5.150000
v 11.325000 20.880000 5.150000
v 11.325000 20.880000 8.050000
vn -1.000000 0.000000 0.000000
f 823//275 824//275 825//275
v 11.325000 20.920000 5.150000
v 11.325000 20.880000 8.050000
v 11.325000 20.920000 8.050000
vn -1.000000 0.000000 0.000000
f 826//276 827//276 828//276
v 14.325000 20.880000 1.050000
v 14.325000 20.920000 1.050000
v 14.375000 20.920000 1.050000
vn 0.000000 0.000000 -1.000000
f 829//277 830//277 831//277
v 14.325000 20.880000 1.050000
v 14.375000 20.920000 1.050000
v 14.375000 20.880000 1.050000
vn 0.000000 0.000000 -1.000000
f 832//278 833//278 834//278
v 14.325000 20.880000 3.950000
v 14.375000 20.880000 3.950000
v 14.375000 20.920000 3.950000
vn 0.000000 0.000000 1.000000
f 835//279 836//279 837//279
v 14.325000 20.880000 3.950000
v 14.375000 20.920000 3.950000
v 14.325000 20.920000 3.950000
vn 0.000000 0.000000 1.000000
f 838//280 839//280 840//280
v 14.325000 20.880000 1.050000
v 14.375000 20.880000 1.050000
v 14.375000 20.880000 3.950000
vn 0.000000 -1.000000 0.000000
f 841//281 842//281 843//281
v 14.325000 20.880000 1.050000
v 14.375000 20.880000 3.950000
v 14.325000 20.880000 3.950000
vn 0.000000 -1.000000 0.000000
f 844//282 845//282 846//282
v 14.375000 20.880000 1.050000
v 14.375000 20.920000 1.050000
v 14.375000 20.920000 3.950000
vn 1.000000 0.000000 0.000000
f 847//283 848//283 849//283
v 14.375000 20.880000 1.050000
v 14.375000 20.920000 3.950000
v 14.375000 20.880000 3.950000
vn 1.000000 0.000000 0.000000
f 850//284 851//284 852//284
v 14.375000 20.920000 1.050000
v 14.325000 20.920000 1.050000
v 14.325000 20.920000 3.950000
vn 0.000000 1.000000 0.000000
f 853//285 854//285 855//285
v 14.375000 20.920000 1.050000
v 14.325000 20.920000 3.950000
v 14.375000 20.920000 3.950000
vn 0.000000 1.000000 -0.000000
f 856//286 857//286 858//286
v 14.325000 20.920000 1.050000
v 14.325000 20.880000 1.050000
v 14.325000 20.880000 3.950000
vn -1.000000 0.000000 0.000000
f 859//287 860//287 861//287
v 14.325000 20.920000 1.050000
v 14.325000 20.880000 3.950000
v 14.325000 20.920000 3.950000
vn -1.000000 0.000000 0.000000
f 862//288 863//288 864//288
v 14.325000 20.880000 5.150000
v 14.325000 20.920000 5.150000
v 14.375000 20.920000 5.150000
vn 0.000000 0.000000 -1.000000
f 865//289 866//289 867//289
v 14.325000 20.880000 5.150000
v 14.375000 20.920000 5.150000
v 14.375000 20.880000 5.150000
vn 0.000000 0.000000 -1.000000
f 868//290 869//290 870//290
v 14.325000 20.880000 8.050000
v 14.375000 20.880000 8.050000
v 14.375000 20.920000 8.050000
vn 0.000000 0.000000 1.000000
f 871//291 872//291 873//291
v 14.325000 20.880000 8.050000
v 14.375000 20.920000 8.050000
v 14.325000 20.920000 8.050000
vn 0.000000 0.000000 1.000000
f 874//292 875//292 876//292
v 14.325000 20.880000 5.150000
v 14.375000 20.880000 5.150000
v 14.375000 20.880000 8.050000
vn 0.000000 -1.000000 0.000000
f 877//293 878//293 879//293
v 14.325000 20.880000 5.150000
v 14.375000 20.880000 8.050000
v 14.325000 20.880000 8.050000
vn 0.000000 -1.000000 0.000000
f 880//294 881//294 882//294
v 14.375000 20.880000 5.150000
v 14.375000 20.920000 5.150000
v 14.375000 20.920000 8.050000
vn 1.000000 0.000000 0.000000
f 883//295 884//295 885//295
v 14.375000 20.880000 5.150000
v 14.375000 20.920000 8.050000
v 14.375000 20.880000 8.050000
vn 1.000000 0.000000 0.000000
f 886//296 887//296 888//296
v 14.375000 20.920000 5.150000
v 14.325000 20.920000 5.150000
v 14.325000 20.920000 8.050000
vn 0.000000 1.000000 0.000000
f 889//297 890//297 891//297
v 14.375000 20.920000 5.150000
v 14.325000 20.920000 8.050000
v 14.375000 20.920000 8.050000
vn 0.000000 1.000000 -0.000000
f 892//298 893//298 894//298
v 14.325000 20.920000 5.150000
v 14.325000 20.880000 5.150000
v 14.325000 20.880000 8.050000
vn -1.000000 0.000000 0.000000
f 895//299 896//299 897//299
v 14.325000 20.920000 5.150000
v 14.325000 20.880000 8.050000
v 14.325000 20.920000 8.050000
vn -1.000000 0.000000 0.000000
f 898//300 899//300 900//300
v -6.250000 20.500000 9.000000
v -6.250000 29.100000 9.000000
v 16.250000 29.100000 9.000000
vn 0.000000 0.000000 -1.000000
f 901//301 902//301 903//301
v -6.250000 20.500000 9.000000
v 16.250000 29.100000 9.000000
v 16.250000 20.500000 9.000000
vn 0.000000 0.000000 -1.000000
f 904//302 905//302 906//302
v -6.250000 20.500000 9.240000
v 16.250000 20.500000 9.240000
v 16.250000 29.100000 9.240000
vn 0.000000 0.000000 1.000000
f 907//303 908//303 909//303
v -6.250000 20.500000 9.240000
v 16.250000 29.100000 9.240000
v -6.250000 29.100000 9.240000
vn 0.000000 0.000000 1.000000
f 910//304 911//304 912//304
v -6.250000 20.500000 9.000000
v 16.250000 20.500000 9.000000
v 16.250000 20.500000 9.240000
vn 0.000000 -1.000000 0.000000
f 913//305 914//305 915//305
v -6.250000 20.500000 9.000000
v 16.250000 20.500000 9.240000
v -6.250000 20.500000 9.240000
vn 0.000000 -1.000000 0.000000
f 916//306 917//306 918//306
v 16.250000 20.500000 9.000000
v 16.250000 29.100000 9.000000
v 16.250000 29.100000 9.240000
vn 1.000000 0.000000 0.000000
f 919//307 920//307 921//307
v 16.250000 20.500000 9.000000
v 16.250000 29.100000 9.240000
v 16.250000 20.500000 9.240000
vn 1.000000 0.000000 0.000000
f 922//308 923//308 924//308
v 16.250000 29.100000 9.000000
v -6.250000 29.100000 9.000000
v -6.250000 29.100000 9.240000
vn 0.000000 1.000000 0.000000
f 925//309 926//309 927//309
v 16.250000 29.100000 9.000000
v -6.250000 29.100000 9.240000
v 16.250000 29.100000 9.240000
vn 0.000000 1.000000 -0.000000
f 928//310 929//310 930//310
v -6.250000 29.100000 9.000000
v -6.250000 20.500000 9.000000
v -6.250000 20.500000 9.240000
vn -1.000000 0.000000 0.000000
f 931//311 932//311 933//311
v -6.250000 29.100000 9.000000
v -6.250000 20.500000 9.240000
v -6.250000 29.100000 9.240000
vn -1.000000 0.000000 0.000000
f 934//312 935//312 936//312
