# First-party deterministic geometry; units: metres.
mtllib white.mtl
o geometry
usemtl surface
v -4.000000 -8.250000 0.120000
v -4.000000 -8.150000 0.120000
v -3.200000 -8.150000 0.120000
vn 0.000000 0.000000 -1.000000
f 1//1 2//1 3//1
v -4.000000 -8.250000 0.120000
v -3.200000 -8.150000 0.120000
v -3.200000 -8.250000 0.120000
vn 0.000000 0.000000 -1.000000
f 4//2 5//2 6//2
v -4.000000 -8.250000 0.124000
v -3.200000 -8.250000 0.124000
v -3.200000 -8.150000 0.124000
vn 0.000000 0.000000 1.000000
f 7//3 8//3 9//3
v -4.000000 -8.250000 0.124000
v -3.200000 -8.150000 0.124000
v -4.000000 -8.150000 0.124000
vn 0.000000 0.000000 1.000000
f 10//4 11//4 12//4
v -4.000000 -8.250000 0.120000
v -3.200000 -8.250000 0.120000
v -3.200000 -8.250000 0.124000
vn 0.000000 -1.000000 0.000000
f 13//5 14//5 15//5
v -4.000000 -8.250000 0.120000
v -3.200000 -8.250000 0.124000
v -4.000000 -8.250000 0.124000
vn 0.000000 -1.000000 0.000000
f 16//6 17//6 18//6
v -3.200000 -8.250000 0.120000
v -3.200000 -8.150000 0.120000
v -3.200000 -8.150000 0.124000
vn 1.000000 0.000000 0.000000
f 19//7 20//7 21//7
v -3.200000 -8.250000 0.120000
v -3.200000 -8.150000 0.124000
v -3.200000 -8.250000 0.124000
vn 1.000000 0.000000 0.000000
f 22//8 23//8 24//8
v -3.200000 -8.150000 0.120000
v -4.000000 -8.150000 0.120000
v -4.000000 -8.150000 0.124000
vn 0.000000 1.000000 0.000000
f 25//9 26//9 27//9
v -3.200000 -8.150000 0.120000
v -4.000000 -8.150000 0.124000
v -3.200000 -8.150000 0.124000
vn 0.000000 1.000000 -0.000000
f 28//10 29//10 30//10
v -4.000000 -8.150000 0.120000
v -4.000000 -8.250000 0.120000
v -4.000000 -8.250000 0.124000
vn -1.000000 0.000000 0.000000
f 31//11 32//11 33//11
v -4.000000 -8.150000 0.120000
v -4.000000 -8.250000 0.124000
v -4.000000 -8.150000 0.124000
vn -1.000000 0.000000 0.000000
f 34//12 35//12 36//12
v -4.000000 -8.575000 0.120000
v -4.000000 -7.825000 0.120000
v -3.900000 -7.825000 0.120000
vn 0.000000 0.000000 -1.000000
f 37//13 38//13 39//13
v -4.000000 -8.575000 0.120000
v -3.900000 -7.825000 0.120000
v -3.900000 -8.575000 0.120000
vn 0.000000 0.000000 -1.000000
f 40//14 41//14 42//14
v -4.000000 -8.575000 0.124000
v -3.900000 -8.575000 0.124000
v -3.900000 -7.825000 0.124000
vn 0.000000 0.000000 1.000000
f 43//15 44//15 45//15
v -4.000000 -8.575000 0.124000
v -3.900000 -7.825000 0.124000
v -4.000000 -7.825000 0.124000
vn 0.000000 0.000000 1.000000
f 46//16 47//16 48//16
v -4.000000 -8.575000 0.120000
v -3.900000 -8.575000 0.120000
v -3.900000 -8.575000 0.124000
vn 0.000000 -1.000000 0.000000
f 49//17 50//17 51//17
v -4.000000 -8.575000 0.120000
v -3.900000 -8.575000 0.124000
v -4.000000 -8.575000 0.124000
vn 0.000000 -1.000000 0.000000
f 52//18 53//18 54//18
v -3.900000 -8.575000 0.120000
v -3.900000 -7.825000 0.120000
v -3.900000 -7.825000 0.124000
vn 1.000000 0.000000 0.000000
f 55//19 56//19 57//19
v -3.900000 -8.575000 0.120000
v -3.900000 -7.825000 0.124000
v -3.900000 -8.575000 0.124000
vn 1.000000 0.000000 0.000000
f 58//20 59//20 60//20
v -3.900000 -7.825000 0.120000
v -4.000000 -7.825000 0.120000
v -4.000000 -7.825000 0.124000
vn 0.000000 1.000000 0.000000
f 61//21 62//21 63//21
v -3.900000 -7.825000 0.120000
v -4.000000 -7.825000 0.124000
v -3.900000 -7.825000 0.124000
vn 0.000000 1.000000 -0.000000
f 64//22 65//22 66//22
v -4.000000 -7.825000 0.120000
v -4.000000 -8.575000 0.120000
v -4.000000 -8.575000 0.124000
vn -1.000000 0.000000 0.000000
f 67//23 68//23 69//23
v -4.000000 -7.825000 0.120000
v -4.000000 -8.575000 0.124000
v -4.000000 -7.825000 0.124000
vn -1.000000 0.000000 0.000000
f 70//24 71//24 72//24
v -3.300000 -8.575000 0.120000
v -3.300000 -7.825000 0.120000
v -3.200000 -7.825000 0.120000
vn 0.000000 0.000000 -1.000000
f 73//25 74//25 75//25
v -3.300000 -8.575000 0.120000
v -3.200000 -7.825000 0.120000
v -3.200000 -8.575000 0.120000
vn 0.000000 0.000000 -1.000000
f 76//26 77//26 78//26
v -3.300000 -8.575000 0.124000
v -3.200000 -8.575000 0.124000
v -3.200000 -7.825000 0.124000
vn 0.000000 0.000000 1.000000
f 79//27 80//27 81//27
v -3.300000 -8.575000 0.124000
v -3.200000 -7.825000 0.124000
v -3.300000 -7.825000 0.124000
vn 0.000000 0.000000 1.000000
f 82//28 83//28 84//28
v -3.300000 -8.575000 0.120000
v -3.200000 -8.575000 0.120000
v -3.200000 -8.575000 0.124000
vn 0.000000 -1.000000 0.000000
f 85//29 86//29 87//29
v -3.300000 -8.575000 0.120000
v -3.200000 -8.575000 0.124000
v -3.300000 -8.575000 0.124000
vn 0.000000 -1.000000 0.000000
f 88//30 89//30 90//30
v -3.200000 -8.575000 0.120000
v -3.200000 -7.825000 0.120000
v -3.200000 -7.825000 0.124000
vn 1.000000 0.000000 0.000000
f 91//31 92//31 93//31
v -3.200000 -8.575000 0.120000
v -3.200000 -7.825000 0.124000
v -3.200000 -8.575000 0.124000
vn 1.000000 0.000000 0.000000
f 94//32 95//32 96//32
v -3.200000 -7.825000 0.120000
v -3.300000 -7.825000 0.120000
v -3.300000 -7.825000 0.124000
vn 0.000000 1.000000 0.000000
f 97//33 98//33 99//33
v -3.200000 -7.825000 0.120000
v -3.300000 -7.825000 0.124000
v -3.200000 -7.825000 0.124000
vn 0.000000 1.000000 -0.000000
f 100//34 101//34 102//34
v -3.300000 -7.825000 0.120000
v -3.300000 -8.575000 0.120000
v -3.300000 -8.575000 0.124000
vn -1.000000 0.000000 0.000000
f 103//35 104//35 105//35
v -3.300000 -7.825000 0.120000
v -3.300000 -8.575000 0.124000
v -3.300000 -7.825000 0.124000
vn -1.000000 0.000000 0.000000
f 106//36 107//36 108//36
v 3.200000 -8.250000 0.120000
v 3.200000 -8.150000 0.120000
v 4.000000 -8.150000 0.120000
vn 0.000000 0.000000 -1.000000
f 109//37 110//37 111//37
v 3.200000 -8.250000 0.120000
v 4.000000 -8.150000 0.120000
v 4.000000 -8.250000 0.120000
vn 0.000000 0.000000 -1.000000
f 112//38 113//38 114//38
v 3.200000 -8.250000 0.124000
v 4.000000 -8.250000 0.124000
v 4.000000 -8.150000 0.124000
vn 0.000000 0.000000 1.000000
f 115//39 116//39 117//39
v 3.200000 -8.250000 0.124000
v 4.000000 -8.150000 0.124000
v 3.200000 -8.150000 0.124000
vn 0.000000 0.000000 1.000000
f 118//40 119//40 120//40
v 3.200000 -8.250000 0.120000
v 4.000000 -8.250000 0.120000
v 4.000000 -8.250000 0.124000
vn 0.000000 -1.000000 0.000000
f 121//41 122//41 123//41
v 3.200000 -8.250000 0.120000
v 4.000000 -8.250000 0.124000
v 3.200000 -8.250000 0.124000
vn 0.000000 -1.000000 0.000000
f 124//42 125//42 126//42
v 4.000000 -8.250000 0.120000
v 4.000000 -8.150000 0.120000
v 4.000000 -8.150000 0.124000
vn 1.000000 0.000000 0.000000
f 127//43 128//43 129//43
v 4.000000 -8.250000 0.120000
v 4.000000 -8.150000 0.124000
v 4.000000 -8.250000 0.124000
vn 1.000000 0.000000 0.000000
f 130//44 131//44 132//44
v 4.000000 -8.150000 0.120000
v 3.200000 -8.150000 0.120000
v 3.200000 -8.150000 0.124000
vn 0.000000 1.000000 0.000000
f 133//45 134//45 135//45
v 4.000000 -8.150000 0.120000
v 3.200000 -8.150000 0.124000
v 4.000000 -8.150000 0.124000
vn 0.000000 1.000000 -0.000000
f 136//46 137//46 138//46
v 3.200000 -8.150000 0.120000
v 3.200000 -8.250000 0.120000
v 3.200000 -8.250000 0.124000
vn -1.000000 0.000000 0.000000
f 139//47 140//47 141//47
v 3.200000 -8.150000 0.120000
v 3.200000 -8.250000 0.124000
v 3.200000 -8.150000 0.124000
vn -1.000000 0.000000 0.000000
f 142//48 143//48 144//48
v 3.200000 -8.575000 0.120000
v 3.200000 -7.825000 0.120000
v 3.300000 -7.825000 0.120000
vn 0.000000 0.000000 -1.000000
f 145//49 146//49 147//49
v 3.200000 -8.575000 0.120000
v 3.300000 -7.825000 0.120000
v 3.300000 -8.575000 0.120000
vn 0.000000 0.000000 -1.000000
f 148//50 149//50 150//50
v 3.200000 -8.575000 0.124000
v 3.300000 -8.575000 0.124000
v 3.300000 -7.825000 0.124000
vn 0.000000 0.000000 1.000000
f 151//51 152//51 153//51
v 3.200000 -8.575000 0.124000
v 3.300000 -7.825000 0.124000
v 3.200000 -7.825000 0.124000
vn 0.000000 0.000000 1.000000
f 154//52 155//52 156//52
v 3.200000 -8.575000 0.120000
v 3.300000 -8.575000 0.120000
v 3.300000 -8.575000 0.124000
vn 0.000000 -1.000000 0.000000
f 157//53 158//53 159//53
v 3.200000 -8.575000 0.120000
v 3.300000 -8.575000 0.124000
v 3.200000 -8.575000 0.124000
vn 0.000000 -1.000000 0.000000
f 160//54 161//54 162//54
v 3.300000 -8.575000 0.120000
v 3.300000 -7.825000 0.120000
v 3.300000 -7.825000 0.124000
vn 1.000000 0.000000 0.000000
f 163//55 164//55 165//55
v 3.300000 -8.575000 0.120000
v 3.300000 -7.825000 0.124000
v 3.300000 -8.575000 0.124000
vn 1.000000 0.000000 0.000000
f 166//56 167//56 168//56
v 3.300000 -7.825000 0.120000
v 3.200000 -7.825000 0.120000
v 3.200000 -7.825000 0.124000
vn 0.000000 1.000000 0.000000
f 169//57 170//57 171//57
v 3.300000 -7.825000 0.120000
v 3.200000 -7.825000 0.124000
v 3.300000 -7.825000 0.124000
vn 0.000000 1.000000 -0.000000
f 172//58 173//58 174//58
v 3.200000 -7.825000 0.120000
v 3.200000 -8.575000 0.120000
v 3.200000 -8.575000 0.124000
vn -1.000000 0.000000 0.000000
f 175//59 176//59 177//59
v 3.200000 -7.825000 0.120000
v 3.200000 -8.575000 0.124000
v 3.200000 -7.825000 0.124000
vn -1.000000 0.000000 0.000000
f 178//60 179//60 180//60
v 3.900000 -8.575000 0.120000
v 3.900000 -7.825000 0.120000
v 4.000000 -7.825000 0.120000
vn 0.000000 0.000000 -1.000000
f 181//61 182//61 183//61
v 3.900000 -8.575000 0.120000
v 4.000000 -7.825000 0.120000
v 4.000000 -8.575000 0.120000
vn 0.000000 0.000000 -1.000000
f 184//62 185//62 186//62
v 3.900000 -8.575000 0.124000
v 4.000000 -8.575000 0.124000
v 4.000000 -7.825000 0.124000
vn 0.000000 0.000000 1.000000
f 187//63 188//63 189//63
v 3.900000 -8.575000 0.124000
v 4.000000 -7.825000 0.124000
v 3.900000 -7.825000 0.124000
vn 0.000000 0.000000 1.000000
f 190//64 191//64 192//64
v 3.900000 -8.575000 0.120000
v 4.000000 -8.575000 0.120000
v 4.000000 -8.575000 0.124000
vn 0.000000 -1.000000 0.000000
f 193//65 194//65 195//65
v 3.900000 -8.575000 0.120000
v 4.000000 -8.575000 0.124000
v 3.900000 -8.575000 0.124000
vn 0.000000 -1.000000 0.000000
f 196//66 197//66 198//66
v 4.000000 -8.575000 0.120000
v 4.000000 -7.825000 0.120000
v 4.000000 -7.825000 0.124000
vn 1.000000 0.000000 0.000000
f 199//67 200//67 201//67
v 4.000000 -8.575000 0.120000
v 4.000000 -7.825000 0.124000
v 4.000000 -8.575000 0.124000
vn 1.000000 0.000000 0.000000
f 202//68 203//68 204//68
v 4.000000 -7.825000 0.120000
v 3.900000 -7.825000 0.120000
v 3.900000 -7.825000 0.124000
vn 0.000000 1.000000 0.000000
f 205//69 206//69 207//69
v 4.000000 -7.825000 0.120000
v 3.900000 -7.825000 0.124000
v 4.000000 -7.825000 0.124000
vn 0.000000 1.000000 -0.000000
f 208//70 209//70 210//70
v 3.900000 -7.825000 0.120000
v 3.900000 -8.575000 0.120000
v 3.900000 -8.575000 0.124000
vn -1.000000 0.000000 0.000000
f 211//71 212//71 213//71
v 3.900000 -7.825000 0.120000
v 3.900000 -8.575000 0.124000
v 3.900000 -7.825000 0.124000
vn -1.000000 0.000000 0.000000
f 214//72 215//72 216//72
