# First-party deterministic geometry; units: metres.
mtllib dark.mtl
o geometry
usemtl surface
v 0.270000 -0.110000 0.220000
v 0.270000 0.110000 0.220000
v 0.430000 0.110000 0.220000
vn 0.000000 0.000000 -1.000000
f 1//1 2//1 3//1
v 0.270000 -0.110000 0.220000
v 0.430000 0.110000 0.220000
v 0.430000 -0.110000 0.220000
vn 0.000000 0.000000 -1.000000
f 4//2 5//2 6//2
v 0.270000 -0.110000 0.380000
v 0.430000 -0.110000 0.380000
v 0.430000 0.110000 0.380000
vn 0.000000 0.000000 1.000000
f 7//3 8//3 9//3
v 0.270000 -0.110000 0.380000
v 0.430000 0.110000 0.380000
v 0.270000 0.110000 0.380000
vn 0.000000 0.000000 1.000000
f 10//4 11//4 12//4
v 0.270000 -0.110000 0.220000
v 0.430000 -0.110000 0.220000
v 0.430000 -0.110000 0.380000
vn 0.000000 -1.000000 0.000000
f 13//5 14//5 15//5
v 0.270000 -0.110000 0.220000
v 0.430000 -0.110000 0.380000
v 0.270000 -0.110000 0.380000
vn 0.000000 -1.000000 0.000000
f 16//6 17//6 18//6
v 0.430000 -0.110000 0.220000
v 0.430000 0.110000 0.220000
v 0.430000 0.110000 0.380000
vn 1.000000 0.000000 0.000000
f 19//7 20//7 21//7
v 0.430000 -0.110000 0.220000
v 0.430000 0.110000 0.380000
v 0.430000 -0.110000 0.380000
vn 1.000000 0.000000 0.000000
f 22//8 23//8 24//8
v 0.430000 0.110000 0.220000
v 0.270000 0.110000 0.220000
v 0.270000 0.110000 0.380000
vn 0.000000 1.000000 0.000000
f 25//9 26//9 27//9
v 0.430000 0.110000 0.220000
v 0.270000 0.110000 0.380000
v 0.430000 0.110000 0.380000
vn 0.000000 1.000000 -0.000000
f 28//10 29//10 30//10
v 0.270000 0.110000 0.220000
v 0.270000 -0.110000 0.220000
v 0.270000 -0.110000 0.380000
vn -1.000000 0.000000 0.000000
f 31//11 32//11 33//11
v 0.270000 0.110000 0.220000
v 0.270000 -0.110000 0.380000
v 0.270000 0.110000 0.380000
vn -1.000000 0.000000 0.000000
f 34//12 35//12 36//12
v -0.160231 -0.180505 0.429879
v -0.164836 -0.185715 0.330121
v -0.239769 -0.119495 0.330121
vn 0.660595 0.747515 -0.069536
f 37//13 38//13 39//13
v -0.160231 -0.180505 0.429879
v -0.239769 -0.119495 0.330121
v -0.235164 -0.114285 0.429879
vn 0.660595 0.747515 -0.069536
f 40//14 41//14 42//14
v -0.540231 -0.610505 0.469879
v -0.615164 -0.544285 0.469879
v -0.619769 -0.549495 0.370121
vn -0.660595 -0.747515 0.069536
f 43//15 44//15 45//15
v -0.540231 -0.610505 0.469879
v -0.619769 -0.549495 0.370121
v -0.544836 -0.615715 0.370121
vn -0.660595 -0.747515 0.069536
f 46//16 47//16 48//16
v -0.160231 -0.180505 0.429879
v -0.235164 -0.114285 0.429879
v -0.615164 -0.544285 0.469879
vn 0.046047 0.052106 0.997579
f 49//17 50//17 51//17
v -0.160231 -0.180505 0.429879
v -0.615164 -0.544285 0.469879
v -0.540231 -0.610505 0.469879
vn 0.046047 0.052106 0.997579
f 52//18 53//18 54//18
v -0.235164 -0.114285 0.429879
v -0.239769 -0.119495 0.330121
v -0.619769 -0.549495 0.370121
vn -0.749329 0.662198 -0.000000
f 55//19 56//19 57//19
v -0.235164 -0.114285 0.429879
v -0.619769 -0.549495 0.370121
v -0.615164 -0.544285 0.469879
vn -0.749329 0.662198 0.000000
f 58//20 59//20 60//20
v -0.239769 -0.119495 0.330121
v -0.164836 -0.185715 0.330121
v -0.544836 -0.615715 0.370121
vn -0.046047 -0.052106 -0.997579
f 61//21 62//21 63//21
v -0.239769 -0.119495 0.330121
v -0.544836 -0.615715 0.370121
v -0.619769 -0.549495 0.370121
vn -0.046047 -0.052106 -0.997579
f 64//22 65//22 66//22
v -0.164836 -0.185715 0.330121
v -0.160231 -0.180505 0.429879
v -0.540231 -0.610505 0.469879
vn 0.749329 -0.662198 0.000000
f 67//23 68//23 69//23
v -0.164836 -0.185715 0.330121
v -0.540231 -0.610505 0.469879
v -0.544836 -0.615715 0.370121
vn 0.749329 -0.662198 -0.000000
f 70//24 71//24 72//24
v -0.850926 -0.735259 0.497500
v -0.880132 -0.666180 0.497500
v -0.309074 -0.424741 0.497500
vn 0.000000 0.000000 -1.000000
f 73//25 74//25 75//25
v -0.850926 -0.735259 0.497500
v -0.309074 -0.424741 0.497500
v -0.279868 -0.493820 0.497500
vn 0.000000 0.000000 -1.000000
f 76//26 77//26 78//26
v -0.850926 -0.735259 0.522500
v -0.279868 -0.493820 0.522500
v -0.309074 -0.424741 0.522500
vn 0.000000 0.000000 1.000000
f 79//27 80//27 81//27
v -0.850926 -0.735259 0.522500
v -0.309074 -0.424741 0.522500
v -0.880132 -0.666180 0.522500
vn 0.000000 -0.000000 1.000000
f 82//28 83//28 84//28
v -0.850926 -0.735259 0.497500
v -0.279868 -0.493820 0.497500
v -0.279868 -0.493820 0.522500
vn 0.389418 -0.921061 0.000000
f 85//29 86//29 87//29
v -0.850926 -0.735259 0.497500
v -0.279868 -0.493820 0.522500
v -0.850926 -0.735259 0.522500
vn 0.389418 -0.921061 0.000000
f 88//30 89//30 90//30
v -0.279868 -0.493820 0.497500
v -0.309074 -0.424741 0.497500
v -0.309074 -0.424741 0.522500
vn 0.921061 0.389418 0.000000
f 91//31 92//31 93//31
v -0.279868 -0.493820 0.497500
v -0.309074 -0.424741 0.522500
v -0.279868 -0.493820 0.522500
vn 0.921061 0.389418 -0.000000
f 94//32 95//32 96//32
v -0.309074 -0.424741 0.497500
v -0.880132 -0.666180 0.497500
v -0.880132 -0.666180 0.522500
vn -0.389418 0.921061 0.000000
f 97//33 98//33 99//33
v -0.309074 -0.424741 0.497500
v -0.880132 -0.666180 0.522500
v -0.309074 -0.424741 0.522500
vn -0.389418 0.921061 0.000000
f 100//34 101//34 102//34
v -0.880132 -0.666180 0.497500
v -0.850926 -0.735259 0.497500
v -0.850926 -0.735259 0.522500
vn -0.921061 -0.389418 0.000000
f 103//35 104//35 105//35
v -0.880132 -0.666180 0.497500
v -0.850926 -0.735259 0.522500
v -0.880132 -0.666180 0.522500
vn -0.921061 -0.389418 0.000000
f 106//36 107//36 108//36
v -0.235164 0.114285 0.429879
v -0.239769 0.119495 0.330121
v -0.164836 0.185715 0.330121
vn 0.660595 -0.747515 -0.069536
f 109//37 110//37 111//37
v -0.235164 0.114285 0.429879
v -0.164836 0.185715 0.330121
v -0.160231 0.180505 0.429879
vn 0.660595 -0.747515 -0.069536
f 112//38 113//38 114//38
v -0.615164 0.544285 0.469879
v -0.540231 0.610505 0.469879
v -0.544836 0.615715 0.370121
vn -0.660595 0.747515 0.069536
f 115//39 116//39 117//39
v -0.615164 0.544285 0.469879
v -0.544836 0.615715 0.370121
v -0.619769 0.549495 0.370121
vn -0.660595 0.747515 0.069536
f 118//40 119//40 120//40
v -0.235164 0.114285 0.429879
v -0.160231 0.180505 0.429879
v -0.540231 0.610505 0.469879
vn 0.046047 -0.052106 0.997579
f 121//41 122//41 123//41
v -0.235164 0.114285 0.429879
v -0.540231 0.610505 0.469879
v -0.615164 0.544285 0.469879
vn 0.046047 -0.052106 0.997579
f 124//42 125//42 126//42
v -0.160231 0.180505 0.429879
v -0.164836 0.185715 0.330121
v -0.544836 0.615715 0.370121
vn 0.749329 0.662198 0.000000
f 127//43 128//43 129//43
v -0.160231 0.180505 0.429879
v -0.544836 0.615715 0.370121
v -0.540231 0.610505 0.469879
vn 0.749329 0.662198 0.000000
f 130//44 131//44 132//44
v -0.164836 0.185715 0.330121
v -0.239769 0.119495 0.330121
v -0.619769 0.549495 0.370121
vn -0.046047 0.052106 -0.997579
f 133//45 134//45 135//45
v -0.164836 0.185715 0.330121
v -0.619769 0.549495 0.370121
v -0.544836 0.615715 0.370121
vn -0.046047 0.052106 -0.997579
f 136//46 137//46 138//46
v -0.239769 0.119495 0.330121
v -0.235164 0.114285 0.429879
v -0.615164 0.544285 0.469879
vn -0.749329 -0.662198 -0.000000
f 139//47 140//47 141//47
v -0.239769 0.119495 0.330121
v -0.615164 0.544285 0.469879
v -0.619769 0.549495 0.370121
vn -0.749329 -0.662198 0.000000
f 142//48 143//48 144//48
v -0.880132 0.666180 0.497500
v -0.850926 0.735259 0.497500
v -0.279868 0.493820 0.497500
vn 0.000000 0.000000 -1.000000
f 145//49 146//49 147//49
v -0.880132 0.666180 0.497500
v -0.279868 0.493820 0.497500
v -0.309074 0.424741 0.497500
vn 0.000000 0.000000 -1.000000
f 148//50 149//50 150//50
v -0.880132 0.666180 0.522500
v -0.309074 0.424741 0.522500
v -0.279868 0.493820 0.522500
vn 0.000000 0.000000 1.000000
f 151//51 152//51 153//51
v -0.880132 0.666180 0.522500
v -0.279868 0.493820 0.522500
v -0.850926 0.735259 0.522500
vn -0.000000 0.000000 1.000000
f 154//52 155//52 156//52
v -0.880132 0.666180 0.497500
v -0.309074 0.424741 0.497500
v -0.309074 0.424741 0.522500
vn -0.389418 -0.921061 0.000000
f 157//53 158//53 159//53
v -0.880132 0.666180 0.497500
v -0.309074 0.424741 0.522500
v -0.880132 0.666180 0.522500
vn -0.389418 -0.921061 0.000000
f 160//54 161//54 162//54
v -0.309074 0.424741 0.497500
v -0.279868 0.493820 0.497500
v -0.279868 0.493820 0.522500
vn 0.921061 -0.389418 0.000000
f 163//55 164//55 165//55
v -0.309074 0.424741 0.497500
v -0.279868 0.493820 0.522500
v -0.309074 0.424741 0.522500
vn 0.921061 -0.389418 0.000000
f 166//56 167//56 168//56
v -0.279868 0.493820 0.497500
v -0.850926 0.735259 0.497500
v -0.850926 0.735259 0.522500
vn 0.389418 0.921061 0.000000
f 169//57 170//57 171//57
v -0.279868 0.493820 0.497500
v -0.850926 0.735259 0.522500
v -0.279868 0.493820 0.522500
vn 0.389418 0.921061 -0.000000
f 172//58 173//58 174//58
v -0.850926 0.735259 0.497500
v -0.880132 0.666180 0.497500
v -0.880132 0.666180 0.522500
vn -0.921061 0.389418 0.000000
f 175//59 176//59 177//59
v -0.850926 0.735259 0.497500
v -0.880132 0.666180 0.522500
v -0.850926 0.735259 0.522500
vn -0.921061 0.389418 0.000000
f 178//60 179//60 180//60
v 0.235164 -0.114285 0.429879
v 0.239769 -0.119495 0.330121
v 0.164836 -0.185715 0.330121
vn -0.660595 0.747515 -0.069536
f 181//61 182//61 183//61
v 0.235164 -0.114285 0.429879
v 0.164836 -0.185715 0.330121
v 0.160231 -0.180505 0.429879
vn -0.660595 0.747515 -0.069536
f 184//62 185//62 186//62
v 0.615164 -0.544285 0.469879
v 0.540231 -0.610505 0.469879
v 0.544836 -0.615715 0.370121
vn 0.660595 -0.747515 0.069536
f 187//63 188//63 189//63
v 0.615164 -0.544285 0.469879
v 0.544836 -0.615715 0.370121
v 0.619769 -0.549495 0.370121
vn 0.660595 -0.747515 0.069536
f 190//64 191//64 192//64
v 0.235164 -0.114285 0.429879
v 0.160231 -0.180505 0.429879
v 0.540231 -0.610505 0.469879
vn -0.046047 0.052106 0.997579
f 193//65 194//65 195//65
v 0.235164 -0.114285 0.429879
v 0.540231 -0.610505 0.469879
v 0.615164 -0.544285 0.469879
vn -0.046047 0.052106 0.997579
f 196//66 197//66 198//66
v 0.160231 -0.180505 0.429879
v 0.164836 -0.185715 0.330121
v 0.544836 -0.615715 0.370121
vn -0.749329 -0.662198 0.000000
f 199//67 200//67 201//67
v 0.160231 -0.180505 0.429879
v 0.544836 -0.615715 0.370121
v 0.540231 -0.610505 0.469879
vn -0.749329 -0.662198 0.000000
f 202//68 203//68 204//68
v 0.164836 -0.185715 0.330121
v 0.239769 -0.119495 0.330121
v 0.619769 -0.549495 0.370121
vn 0.046047 -0.052106 -0.997579
f 205//69 206//69 207//69
v 0.164836 -0.185715 0.330121
v 0.619769 -0.549495 0.370121
v 0.544836 -0.615715 0.370121
vn 0.046047 -0.052106 -0.997579
f 208//70 209//70 210//70
v 0.239769 -0.119495 0.330121
v 0.235164 -0.114285 0.429879
v 0.615164 -0.544285 0.469879
vn 0.749329 0.662198 -0.000000
f 211//71 212//71 213//71
v 0.239769 -0.119495 0.330121
v 0.615164 -0.544285 0.469879
v 0.619769 -0.549495 0.370121
vn 0.749329 0.662198 0.000000
f 214//72 215//72 216//72
v 0.279868 -0.493820 0.497500
v 0.309074 -0.424741 0.497500
v 0.880132 -0.666180 0.497500
vn 0.000000 0.000000 -1.000000
f 217//73 218//73 219//73
v 0.279868 -0.493820 0.497500
v 0.880132 -0.666180 0.497500
v 0.850926 -0.735259 0.497500
vn 0.000000 0.000000 -1.000000
f 220//74 221//74 222//74
v 0.279868 -0.493820 0.522500
v 0.850926 -0.735259 0.522500
v 0.880132 -0.666180 0.522500
vn 0.000000 0.000000 1.000000
f 223//75 224//75 225//75
v 0.279868 -0.493820 0.522500
v 0.880132 -0.666180 0.522500
v 0.309074 -0.424741 0.522500
vn -0.000000 0.000000 1.000000
f 226//76 227//76 228//76
v 0.279868 -0.493820 0.497500
v 0.850926 -0.735259 0.497500
v 0.850926 -0.735259 0.522500
vn -0.389418 -0.921061 0.000000
f 229//77 230//77 231//77
v 0.279868 -0.493820 0.497500
v 0.850926 -0.735259 0.522500
v 0.279868 -0.493820 0.522500
vn -0.389418 -0.921061 0.000000
f 232//78 233//78 234//78
v 0.850926 -0.735259 0.497500
v 0.880132 -0.666180 0.497500
v 0.880132 -0.666180 0.522500
vn 0.921061 -0.389418 0.000000
f 235//79 236//79 237//79
v 0.850926 -0.735259 0.497500
v 0.880132 -0.666180 0.522500
v 0.850926 -0.735259 0.522500
vn 0.921061 -0.389418 0.000000
f 238//80 239//80 240//80
v 0.880132 -0.666180 0.497500
v 0.309074 -0.424741 0.497500
v 0.309074 -0.424741 0.522500
vn 0.389418 0.921061 0.000000
f 241//81 242//81 243//81
v 0.880132 -0.666180 0.497500
v 0.309074 -0.424741 0.522500
v 0.880132 -0.666180 0.522500
vn 0.389418 0.921061 -0.000000
f 244//82 245//82 246//82
v 0.309074 -0.424741 0.497500
v 0.279868 -0.493820 0.497500
v 0.279868 -0.493820 0.522500
vn -0.921061 0.389418 0.000000
f 247//83 248//83 249//83
v 0.309074 -0.424741 0.497500
v 0.279868 -0.493820 0.522500
v 0.309074 -0.424741 0.522500
vn -0.921061 0.389418 0.000000
f 250//84 251//84 252//84
v 0.160231 0.180505 0.429879
v 0.164836 0.185715 0.330121
v 0.239769 0.119495 0.330121
vn -0.660595 -0.747515 -0.069536
f 253//85 254//85 255//85
v 0.160231 0.180505 0.429879
v 0.239769 0.119495 0.330121
v 0.235164 0.114285 0.429879
vn -0.660595 -0.747515 -0.069536
f 256//86 257//86 258//86
v 0.540231 0.610505 0.469879
v 0.615164 0.544285 0.469879
v 0.619769 0.549495 0.370121
vn 0.660595 0.747515 0.069536
f 259//87 260//87 261//87
v 0.540231 0.610505 0.469879
v 0.619769 0.549495 0.370121
v 0.544836 0.615715 0.370121
vn 0.660595 0.747515 0.069536
f 262//88 263//88 264//88
v 0.160231 0.180505 0.429879
v 0.235164 0.114285 0.429879
v 0.615164 0.544285 0.469879
vn -0.046047 -0.052106 0.997579
f 265//89 266//89 267//89
v 0.160231 0.180505 0.429879
v 0.615164 0.544285 0.469879
v 0.540231 0.610505 0.469879
vn -0.046047 -0.052106 0.997579
f 268//90 269//90 270//90
v 0.235164 0.114285 0.429879
v 0.239769 0.119495 0.330121
v 0.619769 0.549495 0.370121
vn 0.749329 -0.662198 -0.000000
f 271//91 272//91 273//91
v 0.235164 0.114285 0.429879
v 0.619769 0.549495 0.370121
v 0.615164 0.544285 0.469879
vn 0.749329 -0.662198 0.000000
f 274//92 275//92 276//92
v 0.239769 0.119495 0.330121
v 0.164836 0.185715 0.330121
v 0.544836 0.615715 0.370121
vn 0.046047 0.052106 -0.997579
f 277//93 278//93 279//93
v 0.239769 0.119495 0.330121
v 0.544836 0.615715 0.370121
v 0.619769 0.549495 0.370121
vn 0.046047 0.052106 -0.997579
f 280//94 281//94 282//94
v 0.164836 0.185715 0.330121
v 0.160231 0.180505 0.429879
v 0.540231 0.610505 0.469879
vn -0.749329 0.662198 0.000000
f 283//95 284//95 285//95
v 0.164836 0.185715 0.330121
v 0.540231 0.610505 0.469879
v 0.544836 0.615715 0.370121
vn -0.749329 0.662198 -0.000000
f 286//96 287//96 288//96
v 0.309074 0.424741 0.497500
v 0.279868 0.493820 0.497500
v 0.850926 0.735259 0.497500
vn 0.000000 0.000000 -1.000000
f 289//97 290//97 291//97
v 0.309074 0.424741 0.497500
v 0.850926 0.735259 0.497500
v 0.880132 0.666180 0.497500
vn 0.000000 0.000000 -1.000000
f 292//98 293//98 294//98
v 0.309074 0.424741 0.522500
v 0.880132 0.666180 0.522500
v 0.850926 0.735259 0.522500
vn 0.000000 0.000000 1.000000
f 295//99 296//99 297//99
v 0.309074 0.424741 0.522500
v 0.850926 0.735259 0.522500
v 0.279868 0.493820 0.522500
vn 0.000000 -0.000000 1.000000
f 298//100 299//100 300//100
v 0.309074 0.424741 0.497500
v 0.880132 0.666180 0.497500
v 0.880132 0.666180 0.522500
vn 0.389418 -0.921061 0.000000
f 301//101 302//101 303//101
v 0.309074 0.424741 0.497500
v 0.880132 0.666180 0.522500
v 0.309074 0.424741 0.522500
vn 0.389418 -0.921061 0.000000
f 304//102 305//102 306//102
v 0.880132 0.666180 0.497500
v 0.850926 0.735259 0.497500
v 0.850926 0.735259 0.522500
vn 0.921061 0.389418 0.000000
f 307//103 308//103 309//103
v 0.880132 0.666180 0.497500
v 0.850926 0.735259 0.522500
v 0.880132 0.666180 0.522500
vn 0.921061 0.389418 -0.000000
f 310//104 311//104 312//104
v 0.850926 0.735259 0.497500
v 0.279868 0.493820 0.497500
v 0.279868 0.493820 0.522500
vn -0.389418 0.921061 0.000000
f 313//105 314//105 315//105
v 0.850926 0.735259 0.497500
v 0.279868 0.493820 0.522500
v 0.850926 0.735259 0.522500
vn -0.389418 0.921061 0.000000
f 316//106 317//106 318//106
v 0.279868 0.493820 0.497500
v 0.309074 0.424741 0.497500
v 0.309074 0.424741 0.522500
vn -0.921061 -0.389418 0.000000
f 319//107 320//107 321//107
v 0.279868 0.493820 0.497500
v 0.309074 0.424741 0.522500
v 0.279868 0.493820 0.522500
vn -0.921061 -0.389418 0.000000
f 322//108 323//108 324//108
v -0.360000 -0.245000 0.055000
v -0.360000 -0.245000 0.005000
v -0.360000 -0.295000 0.005000
vn -1.000000 0.000000 -0.000000
f 325//109 326//109 327//109
v -0.360000 -0.245000 0.055000
v -0.360000 -0.295000 0.005000
v -0.360000 -0.295000 0.055000
vn -1.000000 -0.000000 0.000000
f 328//110 329//110 330//110
v 0.360000 -0.245000 0.055000
v 0.360000 -0.295000 0.055000
v 0.360000 -0.295000 0.005000
vn 1.000000 0.000000 0.000000
f 331//111 332//111 333//111
v 0.360000 -0.245000 0.055000
v 0.360000 -0.295000 0.005000
v 0.360000 -0.245000 0.005000
vn 1.000000 0.000000 0.000000
f 334//112 335//112 336//112
v -0.360000 -0.245000 0.055000
v -0.360000 -0.295000 0.055000
v 0.360000 -0.295000 0.055000
vn 0.000000 0.000000 1.000000
f 337//113 338//113 339//113
v -0.360000 -0.245000 0.055000
v 0.360000 -0.295000 0.055000
v 0.360000 -0.245000 0.055000
vn -0.000000 0.000000 1.000000
f 340//114 341//114 342//114
v -0.360000 -0.295000 0.055000
v -0.360000 -0.295000 0.005000
v 0.360000 -0.295000 0.005000
vn 0.000000 -1.000000 0.000000
f 343//115 344//115 345//115
v -0.360000 -0.295000 0.055000
v 0.360000 -0.295000 0.005000
v 0.360000 -0.295000 0.055000
vn 0.000000 -1.000000 0.000000
f 346//116 347//116 348//116
v -0.360000 -0.295000 0.005000
v -0.360000 -0.245000 0.005000
v 0.360000 -0.245000 0.005000
vn 0.000000 0.000000 -1.000000
f 349//117 350//117 351//117
v -0.360000 -0.295000 0.005000
v 0.360000 -0.245000 0.005000
v 0.360000 -0.295000 0.005000
vn 0.000000 0.000000 -1.000000
f 352//118 353//118 354//118
v -0.360000 -0.245000 0.005000
v -0.360000 -0.245000 0.055000
v 0.360000 -0.245000 0.055000
vn 0.000000 1.000000 0.000000
f 355//119 356//119 357//119
v -0.360000 -0.245000 0.005000
v 0.360000 -0.245000 0.055000
v 0.360000 -0.245000 0.005000
vn 0.000000 1.000000 0.000000
f 358//120 359//120 360//120
v -0.197500 -0.247500 0.030000
v -0.197500 -0.292500 0.030000
v -0.242500 -0.292500 0.030000
vn 0.000000 -0.000000 -1.000000
f 361//121 362//121 363//121
v -0.197500 -0.247500 0.030000
v -0.242500 -0.292500 0.030000
v -0.242500 -0.247500 0.030000
vn -0.000000 0.000000 -1.000000
f 364//122 365//122 366//122
v -0.197500 -0.247500 0.300000
v -0.242500 -0.247500 0.300000
v -0.242500 -0.292500 0.300000
vn 0.000000 0.000000 1.000000
f 367//123 368//123 369//123
v -0.197500 -0.247500 0.300000
v -0.242500 -0.292500 0.300000
v -0.197500 -0.292500 0.300000
vn 0.000000 0.000000 1.000000
f 370//124 371//124 372//124
v -0.197500 -0.247500 0.030000
v -0.242500 -0.247500 0.030000
v -0.242500 -0.247500 0.300000
vn 0.000000 1.000000 0.000000
f 373//125 374//125 375//125
v -0.197500 -0.247500 0.030000
v -0.242500 -0.247500 0.300000
v -0.197500 -0.247500 0.300000
vn 0.000000 1.000000 -0.000000
f 376//126 377//126 378//126
v -0.242500 -0.247500 0.030000
v -0.242500 -0.292500 0.030000
v -0.242500 -0.292500 0.300000
vn -1.000000 0.000000 0.000000
f 379//127 380//127 381//127
v -0.242500 -0.247500 0.030000
v -0.242500 -0.292500 0.300000
v -0.242500 -0.247500 0.300000
vn -1.000000 0.000000 0.000000
f 382//128 383//128 384//128
v -0.242500 -0.292500 0.030000
v -0.197500 -0.292500 0.030000
v -0.197500 -0.292500 0.300000
vn 0.000000 -1.000000 0.000000
f 385//129 386//129 387//129
v -0.242500 -0.292500 0.030000
v -0.197500 -0.292500 0.300000
v -0.242500 -0.292500 0.300000
vn 0.000000 -1.000000 0.000000
f 388//130 389//130 390//130
v -0.197500 -0.292500 0.030000
v -0.197500 -0.247500 0.030000
v -0.197500 -0.247500 0.300000
vn 1.000000 0.000000 0.000000
f 391//131 392//131 393//131
v -0.197500 -0.292500 0.030000
v -0.197500 -0.247500 0.300000
v -0.197500 -0.292500 0.300000
vn 1.000000 0.000000 0.000000
f 394//132 395//132 396//132
v 0.242500 -0.247500 0.030000
v 0.242500 -0.292500 0.030000
v 0.197500 -0.292500 0.030000
vn 0.000000 -0.000000 -1.000000
f 397//133 398//133 399//133
v 0.242500 -0.247500 0.030000
v 0.197500 -0.292500 0.030000
v 0.197500 -0.247500 0.030000
vn -0.000000 0.000000 -1.000000
f 400//134 401//134 402//134
v 0.242500 -0.247500 0.300000
v 0.197500 -0.247500 0.300000
v 0.197500 -0.292500 0.300000
vn 0.000000 0.000000 1.000000
f 403//135 404//135 405//135
v 0.242500 -0.247500 0.300000
v 0.197500 -0.292500 0.300000
v 0.242500 -0.292500 0.300000
vn 0.000000 0.000000 1.000000
f 406//136 407//136 408//136
v 0.242500 -0.247500 0.030000
v 0.197500 -0.247500 0.030000
v 0.197500 -0.247500 0.300000
vn 0.000000 1.000000 0.000000
f 409//137 410//137 411//137
v 0.242500 -0.247500 0.030000
v 0.197500 -0.247500 0.300000
v 0.242500 -0.247500 0.300000
vn 0.000000 1.000000 -0.000000
f 412//138 413//138 414//138
v 0.197500 -0.247500 0.030000
v 0.197500 -0.292500 0.030000
v 0.197500 -0.292500 0.300000
vn -1.000000 0.000000 0.000000
f 415//139 416//139 417//139
v 0.197500 -0.247500 0.030000
v 0.197500 -0.292500 0.300000
v 0.197500 -0.247500 0.300000
vn -1.000000 0.000000 0.000000
f 418//140 419//140 420//140
v 0.197500 -0.292500 0.030000
v 0.242500 -0.292500 0.030000
v 0.242500 -0.292500 0.300000
vn 0.000000 -1.000000 0.000000
f 421//141 422//141 423//141
v 0.197500 -0.292500 0.030000
v 0.242500 -0.292500 0.300000
v 0.197500 -0.292500 0.300000
vn 0.000000 -1.000000 0.000000
f 424//142 425//142 426//142
v 0.242500 -0.292500 0.030000
v 0.242500 -0.247500 0.030000
v 0.242500 -0.247500 0.300000
vn 1.000000 0.000000 0.000000
f 427//143 428//143 429//143
v 0.242500 -0.292500 0.030000
v 0.242500 -0.247500 0.300000
v 0.242500 -0.292500 0.300000
vn 1.000000 0.000000 0.000000
f 430//144 431//144 432//144
v -0.360000 0.295000 0.055000
v -0.360000 0.295000 0.005000
v -0.360000 0.245000 0.005000
vn -1.000000 0.000000 -0.000000
f 433//145 434//145 435//145
v -0.360000 0.295000 0.055000
v -0.360000 0.245000 0.005000
v -0.360000 0.245000 0.055000
vn -1.000000 -0.000000 0.000000
f 436//146 437//146 438//146
v 0.360000 0.295000 0.055000
v 0.360000 0.245000 0.055000
v 0.360000 0.245000 0.005000
vn 1.000000 0.000000 0.000000
f 439//147 440//147 441//147
v 0.360000 0.295000 0.055000
v 0.360000 0.245000 0.005000
v 0.360000 0.295000 0.005000
vn 1.000000 0.000000 0.000000
f 442//148 443//148 444//148
v -0.360000 0.295000 0.055000
v -0.360000 0.245000 0.055000
v 0.360000 0.245000 0.055000
vn 0.000000 0.000000 1.000000
f 445//149 446//149 447//149
v -0.360000 0.295000 0.055000
v 0.360000 0.245000 0.055000
v 0.360000 0.295000 0.055000
vn -0.000000 0.000000 1.000000
f 448//150 449//150 450//150
v -0.360000 0.245000 0.055000
v -0.360000 0.245000 0.005000
v 0.360000 0.245000 0.005000
vn 0.000000 -1.000000 0.000000
f 451//151 452//151 453//151
v -0.360000 0.245000 0.055000
v 0.360000 0.245000 0.005000
v 0.360000 0.245000 0.055000
vn 0.000000 -1.000000 0.000000
f 454//152 455//152 456//152
v -0.360000 0.245000 0.005000
v -0.360000 0.295000 0.005000
v 0.360000 0.295000 0.005000
vn 0.000000 0.000000 -1.000000
f 457//153 458//153 459//153
v -0.360000 0.245000 0.005000
v 0.360000 0.295000 0.005000
v 0.360000 0.245000 0.005000
vn 0.000000 0.000000 -1.000000
f 460//154 461//154 462//154
v -0.360000 0.295000 0.005000
v -0.360000 0.295000 0.055000
v 0.360000 0.295000 0.055000
vn 0.000000 1.000000 0.000000
f 463//155 464//155 465//155
v -0.360000 0.295000 0.005000
v 0.360000 0.295000 0.055000
v 0.360000 0.295000 0.005000
vn 0.000000 1.000000 0.000000
f 466//156 467//156 468//156
v -0.197500 0.292500 0.030000
v -0.197500 0.247500 0.030000
v -0.242500 0.247500 0.030000
vn 0.000000 -0.000000 -1.000000
f 469//157 470//157 471//157
v -0.197500 0.292500 0.030000
v -0.242500 0.247500 0.030000
v -0.242500 0.292500 0.030000
vn -0.000000 0.000000 -1.000000
f 472//158 473//158 474//158
v -0.197500 0.292500 0.300000
v -0.242500 0.292500 0.300000
v -0.242500 0.247500 0.300000
vn 0.000000 0.000000 1.000000
f 475//159 476//159 477//159
v -0.197500 0.292500 0.300000
v -0.242500 0.247500 0.300000
v -0.197500 0.247500 0.300000
vn 0.000000 0.000000 1.000000
f 478//160 479//160 480//160
v -0.197500 0.292500 0.030000
v -0.242500 0.292500 0.030000
v -0.242500 0.292500 0.300000
vn 0.000000 1.000000 0.000000
f 481//161 482//161 483//161
v -0.197500 0.292500 0.030000
v -0.242500 0.292500 0.300000
v -0.197500 0.292500 0.300000
vn 0.000000 1.000000 -0.000000
f 484//162 485//162 486//162
v -0.242500 0.292500 0.030000
v -0.242500 0.247500 0.030000
v -0.242500 0.247500 0.300000
vn -1.000000 0.000000 0.000000
f 487//163 488//163 489//163
v -0.242500 0.292500 0.030000
v -0.242500 0.247500 0.300000
v -0.242500 0.292500 0.300000
vn -1.000000 0.000000 0.000000
f 490//164 491//164 492//164
v -0.242500 0.247500 0.030000
v -0.197500 0.247500 0.030000
v -0.197500 0.247500 0.300000
vn 0.000000 -1.000000 0.000000
f 493//165 494//165 495//165
v -0.242500 0.247500 0.030000
v -0.197500 0.247500 0.300000
v -0.242500 0.247500 0.300000
vn 0.000000 -1.000000 0.000000
f 496//166 497//166 498//166
v -0.197500 0.247500 0.030000
v -0.197500 0.292500 0.030000
v -0.197500 0.292500 0.300000
vn 1.000000 0.000000 0.000000
f 499//167 500//167 501//167
v -0.197500 0.247500 0.030000
v -0.197500 0.292500 0.300000
v -0.197500 0.247500 0.300000
vn 1.000000 0.000000 0.000000
f 502//168 503//168 504//168
v 0.242500 0.292500 0.030000
v 0.242500 0.247500 0.030000
v 0.197500 0.247500 0.030000
vn 0.000000 -0.000000 -1.000000
f 505//169 506//169 507//169
v 0.242500 0.292500 0.030000
v 0.197500 0.247500 0.030000
v 0.197500 0.292500 0.030000
vn -0.000000 0.000000 -1.000000
f 508//170 509//170 510//170
v 0.242500 0.292500 0.300000
v 0.197500 0.292500 0.300000
v 0.197500 0.247500 0.300000
vn 0.000000 0.000000 1.000000
f 511//171 512//171 513//171
v 0.242500 0.292500 0.300000
v 0.197500 0.247500 0.300000
v 0.242500 0.247500 0.300000
vn 0.000000 0.000000 1.000000
f 514//172 515//172 516//172
v 0.242500 0.292500 0.030000
v 0.197500 0.292500 0.030000
v 0.197500 0.292500 0.300000
vn 0.000000 1.000000 0.000000
f 517//173 518//173 519//173
v 0.242500 0.292500 0.030000
v 0.197500 0.292500 0.300000
v 0.242500 0.292500 0.300000
vn 0.000000 1.000000 -0.000000
f 520//174 521//174 522//174
v 0.197500 0.292500 0.030000
v 0.197500 0.247500 0.030000
v 0.197500 0.247500 0.300000
vn -1.000000 0.000000 0.000000
f 523//175 524//175 525//175
v 0.197500 0.292500 0.030000
v 0.197500 0.247500 0.300000
v 0.197500 0.292500 0.300000
vn -1.000000 0.000000 0.000000
f 526//176 527//176 528//176
v 0.197500 0.247500 0.030000
v 0.242500 0.247500 0.030000
v 0.242500 0.247500 0.300000
vn 0.000000 -1.000000 0.000000
f 529//177 530//177 531//177
v 0.197500 0.247500 0.030000
v 0.242500 0.247500 0.300000
v 0.197500 0.247500 0.300000
vn 0.000000 -1.000000 0.000000
f 532//178 533//178 534//178
v 0.242500 0.247500 0.030000
v 0.242500 0.292500 0.030000
v 0.242500 0.292500 0.300000
vn 1.000000 0.000000 0.000000
f 535//179 536//179 537//179
v 0.242500 0.247500 0.030000
v 0.242500 0.292500 0.300000
v 0.242500 0.247500 0.300000
vn 1.000000 0.000000 0.000000
f 538//180 539//180 540//180
