# First-party deterministic geometry; units: metres.
mtllib white.mtl
o geometry
usemtl surface
v 0.070000 -0.150000 0.490000
v 0.070000 0.150000 0.490000
v 0.250000 0.150000 0.490000
vn 0.000000 0.000000 -1.000000
f 1//1 2//1 3//1
v 0.070000 -0.150000 0.490000
v 0.250000 0.150000 0.490000
v 0.250000 -0.150000 0.490000
vn 0.000000 0.000000 -1.000000
f 4//2 5//2 6//2
v 0.070000 -0.150000 0.530000
v 0.250000 -0.150000 0.530000
v 0.250000 0.150000 0.530000
vn 0.000000 0.000000 1.000000
f 7//3 8//3 9//3
v 0.070000 -0.150000 0.530000
v 0.250000 0.150000 0.530000
v 0.070000 0.150000 0.530000
vn 0.000000 0.000000 1.000000
f 10//4 11//4 12//4
v 0.070000 -0.150000 0.490000
v 0.250000 -0.150000 0.490000
v 0.250000 -0.150000 0.530000
vn 0.000000 -1.000000 0.000000
f 13//5 14//5 15//5
v 0.070000 -0.150000 0.490000
v 0.250000 -0.150000 0.530000
v 0.070000 -0.150000 0.530000
vn 0.000000 -1.000000 0.000000
f 16//6 17//6 18//6
v 0.250000 -0.150000 0.490000
v 0.250000 0.150000 0.490000
v 0.250000 0.150000 0.530000
vn 1.000000 0.000000 0.000000
f 19//7 20//7 21//7
v 0.250000 -0.150000 0.490000
v 0.250000 0.150000 0.530000
v 0.250000 -0.150000 0.530000
vn 1.000000 0.000000 0.000000
f 22//8 23//8 24//8
v 0.250000 0.150000 0.490000
v 0.070000 0.150000 0.490000
v 0.070000 0.150000 0.530000
vn 0.000000 1.000000 0.000000
f 25//9 26//9 27//9
v 0.250000 0.150000 0.490000
v 0.070000 0.150000 0.530000
v 0.250000 0.150000 0.530000
vn 0.000000 1.000000 -0.000000
f 28//10 29//10 30//10
v 0.070000 0.150000 0.490000
v 0.070000 -0.150000 0.490000
v 0.070000 -0.150000 0.530000
vn -1.000000 0.000000 0.000000
f 31//11 32//11 33//11
v 0.070000 0.150000 0.490000
v 0.070000 -0.150000 0.530000
v 0.070000 0.150000 0.530000
vn -1.000000 0.000000 0.000000
f 34//12 35//12 36//12
